%TF.GenerationSoftware,KiCad,Pcbnew,10.0.3*%
%TF.CreationDate,2026-06-14T22:38:18+02:00*%
%TF.ProjectId,envsensor,656e7673-656e-4736-9f72-2e6b69636164,rev?*%
%TF.SameCoordinates,Original*%
%TF.FileFunction,Legend,Bot*%
%TF.FilePolarity,Positive*%
%FSLAX46Y46*%
G04 Gerber Fmt 4.6, Leading zero omitted, Abs format (unit mm)*
G04 Created by KiCad (PCBNEW 10.0.3) date 2026-06-14 22:38:18*
%MOMM*%
%LPD*%
G01*
G04 APERTURE LIST*
%ADD10C,0.300000*%
%ADD11C,0.150000*%
%ADD12C,0.100000*%
%ADD13C,0.120000*%
G04 APERTURE END LIST*
D10*
X121321428Y-120270366D02*
X120821428Y-120270366D01*
X120607142Y-121056080D02*
X121321428Y-121056080D01*
X121321428Y-121056080D02*
X121321428Y-119556080D01*
X121321428Y-119556080D02*
X120607142Y-119556080D01*
X120178570Y-119556080D02*
X119678570Y-121056080D01*
X119678570Y-121056080D02*
X119178570Y-119556080D01*
X117607142Y-120984652D02*
X117392857Y-121056080D01*
X117392857Y-121056080D02*
X117035714Y-121056080D01*
X117035714Y-121056080D02*
X116892857Y-120984652D01*
X116892857Y-120984652D02*
X116821428Y-120913223D01*
X116821428Y-120913223D02*
X116749999Y-120770366D01*
X116749999Y-120770366D02*
X116749999Y-120627509D01*
X116749999Y-120627509D02*
X116821428Y-120484652D01*
X116821428Y-120484652D02*
X116892857Y-120413223D01*
X116892857Y-120413223D02*
X117035714Y-120341794D01*
X117035714Y-120341794D02*
X117321428Y-120270366D01*
X117321428Y-120270366D02*
X117464285Y-120198937D01*
X117464285Y-120198937D02*
X117535714Y-120127509D01*
X117535714Y-120127509D02*
X117607142Y-119984652D01*
X117607142Y-119984652D02*
X117607142Y-119841794D01*
X117607142Y-119841794D02*
X117535714Y-119698937D01*
X117535714Y-119698937D02*
X117464285Y-119627509D01*
X117464285Y-119627509D02*
X117321428Y-119556080D01*
X117321428Y-119556080D02*
X116964285Y-119556080D01*
X116964285Y-119556080D02*
X116749999Y-119627509D01*
X115535714Y-120984652D02*
X115678571Y-121056080D01*
X115678571Y-121056080D02*
X115964286Y-121056080D01*
X115964286Y-121056080D02*
X116107143Y-120984652D01*
X116107143Y-120984652D02*
X116178571Y-120841794D01*
X116178571Y-120841794D02*
X116178571Y-120270366D01*
X116178571Y-120270366D02*
X116107143Y-120127509D01*
X116107143Y-120127509D02*
X115964286Y-120056080D01*
X115964286Y-120056080D02*
X115678571Y-120056080D01*
X115678571Y-120056080D02*
X115535714Y-120127509D01*
X115535714Y-120127509D02*
X115464286Y-120270366D01*
X115464286Y-120270366D02*
X115464286Y-120413223D01*
X115464286Y-120413223D02*
X116178571Y-120556080D01*
X114821429Y-120056080D02*
X114821429Y-121056080D01*
X114821429Y-120198937D02*
X114750000Y-120127509D01*
X114750000Y-120127509D02*
X114607143Y-120056080D01*
X114607143Y-120056080D02*
X114392857Y-120056080D01*
X114392857Y-120056080D02*
X114250000Y-120127509D01*
X114250000Y-120127509D02*
X114178572Y-120270366D01*
X114178572Y-120270366D02*
X114178572Y-121056080D01*
X113535714Y-120984652D02*
X113392857Y-121056080D01*
X113392857Y-121056080D02*
X113107143Y-121056080D01*
X113107143Y-121056080D02*
X112964286Y-120984652D01*
X112964286Y-120984652D02*
X112892857Y-120841794D01*
X112892857Y-120841794D02*
X112892857Y-120770366D01*
X112892857Y-120770366D02*
X112964286Y-120627509D01*
X112964286Y-120627509D02*
X113107143Y-120556080D01*
X113107143Y-120556080D02*
X113321429Y-120556080D01*
X113321429Y-120556080D02*
X113464286Y-120484652D01*
X113464286Y-120484652D02*
X113535714Y-120341794D01*
X113535714Y-120341794D02*
X113535714Y-120270366D01*
X113535714Y-120270366D02*
X113464286Y-120127509D01*
X113464286Y-120127509D02*
X113321429Y-120056080D01*
X113321429Y-120056080D02*
X113107143Y-120056080D01*
X113107143Y-120056080D02*
X112964286Y-120127509D01*
X112035714Y-121056080D02*
X112178571Y-120984652D01*
X112178571Y-120984652D02*
X112250000Y-120913223D01*
X112250000Y-120913223D02*
X112321428Y-120770366D01*
X112321428Y-120770366D02*
X112321428Y-120341794D01*
X112321428Y-120341794D02*
X112250000Y-120198937D01*
X112250000Y-120198937D02*
X112178571Y-120127509D01*
X112178571Y-120127509D02*
X112035714Y-120056080D01*
X112035714Y-120056080D02*
X111821428Y-120056080D01*
X111821428Y-120056080D02*
X111678571Y-120127509D01*
X111678571Y-120127509D02*
X111607143Y-120198937D01*
X111607143Y-120198937D02*
X111535714Y-120341794D01*
X111535714Y-120341794D02*
X111535714Y-120770366D01*
X111535714Y-120770366D02*
X111607143Y-120913223D01*
X111607143Y-120913223D02*
X111678571Y-120984652D01*
X111678571Y-120984652D02*
X111821428Y-121056080D01*
X111821428Y-121056080D02*
X112035714Y-121056080D01*
X110892857Y-121056080D02*
X110892857Y-120056080D01*
X110892857Y-120341794D02*
X110821428Y-120198937D01*
X110821428Y-120198937D02*
X110750000Y-120127509D01*
X110750000Y-120127509D02*
X110607142Y-120056080D01*
X110607142Y-120056080D02*
X110464285Y-120056080D01*
X119214285Y-122470996D02*
X118857142Y-123470996D01*
X118857142Y-123470996D02*
X118499999Y-122470996D01*
X117142856Y-123470996D02*
X117999999Y-123470996D01*
X117571428Y-123470996D02*
X117571428Y-121970996D01*
X117571428Y-121970996D02*
X117714285Y-122185282D01*
X117714285Y-122185282D02*
X117857142Y-122328139D01*
X117857142Y-122328139D02*
X117999999Y-122399568D01*
X116500000Y-123328139D02*
X116428571Y-123399568D01*
X116428571Y-123399568D02*
X116500000Y-123470996D01*
X116500000Y-123470996D02*
X116571428Y-123399568D01*
X116571428Y-123399568D02*
X116500000Y-123328139D01*
X116500000Y-123328139D02*
X116500000Y-123470996D01*
X115499999Y-121970996D02*
X115357142Y-121970996D01*
X115357142Y-121970996D02*
X115214285Y-122042425D01*
X115214285Y-122042425D02*
X115142857Y-122113853D01*
X115142857Y-122113853D02*
X115071428Y-122256710D01*
X115071428Y-122256710D02*
X114999999Y-122542425D01*
X114999999Y-122542425D02*
X114999999Y-122899568D01*
X114999999Y-122899568D02*
X115071428Y-123185282D01*
X115071428Y-123185282D02*
X115142857Y-123328139D01*
X115142857Y-123328139D02*
X115214285Y-123399568D01*
X115214285Y-123399568D02*
X115357142Y-123470996D01*
X115357142Y-123470996D02*
X115499999Y-123470996D01*
X115499999Y-123470996D02*
X115642857Y-123399568D01*
X115642857Y-123399568D02*
X115714285Y-123328139D01*
X115714285Y-123328139D02*
X115785714Y-123185282D01*
X115785714Y-123185282D02*
X115857142Y-122899568D01*
X115857142Y-122899568D02*
X115857142Y-122542425D01*
X115857142Y-122542425D02*
X115785714Y-122256710D01*
X115785714Y-122256710D02*
X115714285Y-122113853D01*
X115714285Y-122113853D02*
X115642857Y-122042425D01*
X115642857Y-122042425D02*
X115499999Y-121970996D01*
X114357143Y-123328139D02*
X114285714Y-123399568D01*
X114285714Y-123399568D02*
X114357143Y-123470996D01*
X114357143Y-123470996D02*
X114428571Y-123399568D01*
X114428571Y-123399568D02*
X114357143Y-123328139D01*
X114357143Y-123328139D02*
X114357143Y-123470996D01*
X113357142Y-121970996D02*
X113214285Y-121970996D01*
X113214285Y-121970996D02*
X113071428Y-122042425D01*
X113071428Y-122042425D02*
X113000000Y-122113853D01*
X113000000Y-122113853D02*
X112928571Y-122256710D01*
X112928571Y-122256710D02*
X112857142Y-122542425D01*
X112857142Y-122542425D02*
X112857142Y-122899568D01*
X112857142Y-122899568D02*
X112928571Y-123185282D01*
X112928571Y-123185282D02*
X113000000Y-123328139D01*
X113000000Y-123328139D02*
X113071428Y-123399568D01*
X113071428Y-123399568D02*
X113214285Y-123470996D01*
X113214285Y-123470996D02*
X113357142Y-123470996D01*
X113357142Y-123470996D02*
X113500000Y-123399568D01*
X113500000Y-123399568D02*
X113571428Y-123328139D01*
X113571428Y-123328139D02*
X113642857Y-123185282D01*
X113642857Y-123185282D02*
X113714285Y-122899568D01*
X113714285Y-122899568D02*
X113714285Y-122542425D01*
X113714285Y-122542425D02*
X113642857Y-122256710D01*
X113642857Y-122256710D02*
X113571428Y-122113853D01*
X113571428Y-122113853D02*
X113500000Y-122042425D01*
X113500000Y-122042425D02*
X113357142Y-121970996D01*
X119250000Y-125885912D02*
X119250000Y-124385912D01*
X119250000Y-124385912D02*
X118392857Y-125885912D01*
X118392857Y-125885912D02*
X118392857Y-124385912D01*
X117892856Y-124385912D02*
X117392856Y-125885912D01*
X117392856Y-125885912D02*
X116892856Y-124385912D01*
X116392857Y-125314484D02*
X115250000Y-125314484D01*
X115821428Y-125885912D02*
X115821428Y-124743055D01*
X114107142Y-124385912D02*
X114107142Y-125457341D01*
X114107142Y-125457341D02*
X114178571Y-125671626D01*
X114178571Y-125671626D02*
X114321428Y-125814484D01*
X114321428Y-125814484D02*
X114535714Y-125885912D01*
X114535714Y-125885912D02*
X114678571Y-125885912D01*
X113392857Y-125100198D02*
X112892857Y-125100198D01*
X112678571Y-125885912D02*
X113392857Y-125885912D01*
X113392857Y-125885912D02*
X113392857Y-124385912D01*
X113392857Y-124385912D02*
X112678571Y-124385912D01*
X118571427Y-126943685D02*
X118499999Y-126872257D01*
X118499999Y-126872257D02*
X118357142Y-126800828D01*
X118357142Y-126800828D02*
X117999999Y-126800828D01*
X117999999Y-126800828D02*
X117857142Y-126872257D01*
X117857142Y-126872257D02*
X117785713Y-126943685D01*
X117785713Y-126943685D02*
X117714284Y-127086542D01*
X117714284Y-127086542D02*
X117714284Y-127229400D01*
X117714284Y-127229400D02*
X117785713Y-127443685D01*
X117785713Y-127443685D02*
X118642856Y-128300828D01*
X118642856Y-128300828D02*
X117714284Y-128300828D01*
X116785713Y-126800828D02*
X116642856Y-126800828D01*
X116642856Y-126800828D02*
X116499999Y-126872257D01*
X116499999Y-126872257D02*
X116428571Y-126943685D01*
X116428571Y-126943685D02*
X116357142Y-127086542D01*
X116357142Y-127086542D02*
X116285713Y-127372257D01*
X116285713Y-127372257D02*
X116285713Y-127729400D01*
X116285713Y-127729400D02*
X116357142Y-128015114D01*
X116357142Y-128015114D02*
X116428571Y-128157971D01*
X116428571Y-128157971D02*
X116499999Y-128229400D01*
X116499999Y-128229400D02*
X116642856Y-128300828D01*
X116642856Y-128300828D02*
X116785713Y-128300828D01*
X116785713Y-128300828D02*
X116928571Y-128229400D01*
X116928571Y-128229400D02*
X116999999Y-128157971D01*
X116999999Y-128157971D02*
X117071428Y-128015114D01*
X117071428Y-128015114D02*
X117142856Y-127729400D01*
X117142856Y-127729400D02*
X117142856Y-127372257D01*
X117142856Y-127372257D02*
X117071428Y-127086542D01*
X117071428Y-127086542D02*
X116999999Y-126943685D01*
X116999999Y-126943685D02*
X116928571Y-126872257D01*
X116928571Y-126872257D02*
X116785713Y-126800828D01*
X115714285Y-126943685D02*
X115642857Y-126872257D01*
X115642857Y-126872257D02*
X115500000Y-126800828D01*
X115500000Y-126800828D02*
X115142857Y-126800828D01*
X115142857Y-126800828D02*
X115000000Y-126872257D01*
X115000000Y-126872257D02*
X114928571Y-126943685D01*
X114928571Y-126943685D02*
X114857142Y-127086542D01*
X114857142Y-127086542D02*
X114857142Y-127229400D01*
X114857142Y-127229400D02*
X114928571Y-127443685D01*
X114928571Y-127443685D02*
X115785714Y-128300828D01*
X115785714Y-128300828D02*
X114857142Y-128300828D01*
X113571429Y-126800828D02*
X113857143Y-126800828D01*
X113857143Y-126800828D02*
X114000000Y-126872257D01*
X114000000Y-126872257D02*
X114071429Y-126943685D01*
X114071429Y-126943685D02*
X114214286Y-127157971D01*
X114214286Y-127157971D02*
X114285714Y-127443685D01*
X114285714Y-127443685D02*
X114285714Y-128015114D01*
X114285714Y-128015114D02*
X114214286Y-128157971D01*
X114214286Y-128157971D02*
X114142857Y-128229400D01*
X114142857Y-128229400D02*
X114000000Y-128300828D01*
X114000000Y-128300828D02*
X113714286Y-128300828D01*
X113714286Y-128300828D02*
X113571429Y-128229400D01*
X113571429Y-128229400D02*
X113500000Y-128157971D01*
X113500000Y-128157971D02*
X113428571Y-128015114D01*
X113428571Y-128015114D02*
X113428571Y-127657971D01*
X113428571Y-127657971D02*
X113500000Y-127515114D01*
X113500000Y-127515114D02*
X113571429Y-127443685D01*
X113571429Y-127443685D02*
X113714286Y-127372257D01*
X113714286Y-127372257D02*
X114000000Y-127372257D01*
X114000000Y-127372257D02*
X114142857Y-127443685D01*
X114142857Y-127443685D02*
X114214286Y-127515114D01*
X114214286Y-127515114D02*
X114285714Y-127657971D01*
D11*
X89414819Y-67666666D02*
X90129104Y-67666666D01*
X90129104Y-67666666D02*
X90271961Y-67619047D01*
X90271961Y-67619047D02*
X90367200Y-67523809D01*
X90367200Y-67523809D02*
X90414819Y-67380952D01*
X90414819Y-67380952D02*
X90414819Y-67285714D01*
X90414819Y-68666666D02*
X90414819Y-68095238D01*
X90414819Y-68380952D02*
X89414819Y-68380952D01*
X89414819Y-68380952D02*
X89557676Y-68285714D01*
X89557676Y-68285714D02*
X89652914Y-68190476D01*
X89652914Y-68190476D02*
X89700533Y-68095238D01*
D12*
X89461904Y-105007419D02*
X89461904Y-105816942D01*
X89461904Y-105816942D02*
X89414285Y-105912180D01*
X89414285Y-105912180D02*
X89366666Y-105959800D01*
X89366666Y-105959800D02*
X89271428Y-106007419D01*
X89271428Y-106007419D02*
X89080952Y-106007419D01*
X89080952Y-106007419D02*
X88985714Y-105959800D01*
X88985714Y-105959800D02*
X88938095Y-105912180D01*
X88938095Y-105912180D02*
X88890476Y-105816942D01*
X88890476Y-105816942D02*
X88890476Y-105007419D01*
X88461904Y-105102657D02*
X88414285Y-105055038D01*
X88414285Y-105055038D02*
X88319047Y-105007419D01*
X88319047Y-105007419D02*
X88080952Y-105007419D01*
X88080952Y-105007419D02*
X87985714Y-105055038D01*
X87985714Y-105055038D02*
X87938095Y-105102657D01*
X87938095Y-105102657D02*
X87890476Y-105197895D01*
X87890476Y-105197895D02*
X87890476Y-105293133D01*
X87890476Y-105293133D02*
X87938095Y-105435990D01*
X87938095Y-105435990D02*
X88509523Y-106007419D01*
X88509523Y-106007419D02*
X87890476Y-106007419D01*
%TO.C,J1*%
D13*
X76040000Y-69380000D02*
X76040000Y-66620000D01*
X86310000Y-66620000D02*
X76040000Y-66620000D01*
X86310000Y-69380000D02*
X76040000Y-69380000D01*
X86310000Y-69380000D02*
X86310000Y-66620000D01*
X87580000Y-69380000D02*
X88960000Y-69380000D01*
X88960000Y-69380000D02*
X88960000Y-68000000D01*
%TO.C,U2*%
D12*
X79700000Y-71300000D02*
X97700000Y-71300000D01*
X97700000Y-77500000D01*
X79700000Y-77500000D01*
X79700000Y-71300000D01*
X74550000Y-77550000D02*
X102850000Y-77550000D01*
X102850000Y-134550000D01*
X74550000Y-134550000D01*
X74550000Y-77550000D01*
%TD*%
M02*
