%TF.GenerationSoftware,KiCad,Pcbnew,10.0.3*%
%TF.CreationDate,2026-06-14T22:38:18+02:00*%
%TF.ProjectId,envsensor,656e7673-656e-4736-9f72-2e6b69636164,rev?*%
%TF.SameCoordinates,Original*%
%TF.FileFunction,Soldermask,Bot*%
%TF.FilePolarity,Negative*%
%FSLAX46Y46*%
G04 Gerber Fmt 4.6, Leading zero omitted, Abs format (unit mm)*
G04 Created by KiCad (PCBNEW 10.0.3) date 2026-06-14 22:38:18*
%MOMM*%
%LPD*%
G01*
G04 APERTURE LIST*
%ADD10C,2.200000*%
%ADD11R,1.700000X1.530000*%
%ADD12C,1.530000*%
%ADD13R,1.700000X1.700000*%
%ADD14C,1.700000*%
%ADD15C,1.800000*%
G04 APERTURE END LIST*
D10*
%TO.C,U5*%
X110630000Y-75170000D03*
X110630000Y-77710000D03*
X110630000Y-80250000D03*
X110630000Y-82790000D03*
X110630000Y-85330000D03*
%TD*%
%TO.C,U4*%
X118750000Y-109750000D03*
X118750000Y-107210000D03*
X118750000Y-104670000D03*
X118750000Y-102130000D03*
X118750000Y-99590000D03*
X118750000Y-97050000D03*
X118750000Y-94510000D03*
%TD*%
D11*
%TO.C,U6*%
X93880000Y-71525000D03*
D12*
X96420000Y-71525000D03*
X98960000Y-71525000D03*
X101500000Y-71525000D03*
X104040000Y-71525000D03*
X106580000Y-71525000D03*
X109120000Y-71525000D03*
%TD*%
D13*
%TO.C,J1*%
X87580000Y-68000000D03*
D14*
X85040000Y-68000000D03*
X82500000Y-68000000D03*
X79960000Y-68000000D03*
X77420000Y-68000000D03*
%TD*%
D10*
%TO.C,U2*%
X101400000Y-79380000D03*
X101400000Y-81920000D03*
X101400000Y-84460000D03*
X101400000Y-87000000D03*
X101400000Y-89540000D03*
X101400000Y-92080000D03*
X101400000Y-94620000D03*
X101400000Y-97160000D03*
X101400000Y-99700000D03*
X101400000Y-102240000D03*
X101400000Y-104780000D03*
X101400000Y-107320000D03*
X101400000Y-109860000D03*
X101400000Y-112400000D03*
X101400000Y-114940000D03*
X101400000Y-117480000D03*
X101400000Y-120020000D03*
X101400000Y-122560000D03*
X101400000Y-125100000D03*
X101400000Y-127640000D03*
X101400000Y-130180000D03*
X101400000Y-132720000D03*
X76000000Y-79380000D03*
X76000000Y-81920000D03*
X76000000Y-84460000D03*
X76000000Y-87000000D03*
X76000000Y-89540000D03*
X76000000Y-92080000D03*
X76000000Y-94620000D03*
X76000000Y-97160000D03*
X76000000Y-99700000D03*
X76000000Y-102240000D03*
X76000000Y-104780000D03*
X76000000Y-107320000D03*
X76000000Y-109860000D03*
X76000000Y-112400000D03*
X76000000Y-114940000D03*
X76000000Y-117480000D03*
X76000000Y-120020000D03*
X76000000Y-122560000D03*
X76000000Y-125100000D03*
X76000000Y-127640000D03*
X76000000Y-130180000D03*
X76000000Y-132720000D03*
%TD*%
D15*
%TO.C,U3*%
X126262500Y-99512500D03*
X126262500Y-96972500D03*
X126262500Y-94432500D03*
X126272500Y-91892500D03*
X126262500Y-89352500D03*
X126262500Y-86812500D03*
X126262500Y-84272500D03*
%TD*%
M02*
