%TF.GenerationSoftware,KiCad,Pcbnew,10.0.3*%
%TF.CreationDate,2026-06-14T22:38:18+02:00*%
%TF.ProjectId,envsensor,656e7673-656e-4736-9f72-2e6b69636164,rev?*%
%TF.SameCoordinates,Original*%
%TF.FileFunction,Copper,L4,Bot*%
%TF.FilePolarity,Positive*%
%FSLAX46Y46*%
G04 Gerber Fmt 4.6, Leading zero omitted, Abs format (unit mm)*
G04 Created by KiCad (PCBNEW 10.0.3) date 2026-06-14 22:38:18*
%MOMM*%
%LPD*%
G01*
G04 APERTURE LIST*
%TA.AperFunction,ComponentPad*%
%ADD10C,2.200000*%
%TD*%
%TA.AperFunction,ComponentPad*%
%ADD11R,1.700000X1.530000*%
%TD*%
%TA.AperFunction,ComponentPad*%
%ADD12C,1.530000*%
%TD*%
%TA.AperFunction,ComponentPad*%
%ADD13R,1.700000X1.700000*%
%TD*%
%TA.AperFunction,ComponentPad*%
%ADD14C,1.700000*%
%TD*%
%TA.AperFunction,ComponentPad*%
%ADD15C,1.800000*%
%TD*%
%TA.AperFunction,ViaPad*%
%ADD16C,0.600000*%
%TD*%
%TA.AperFunction,Conductor*%
%ADD17C,0.300000*%
%TD*%
G04 APERTURE END LIST*
D10*
%TO.P,U5,1,ADDR_1*%
%TO.N,GND*%
X110630000Y-75170000D03*
%TO.P,U5,2,SDA_2*%
%TO.N,/SDA*%
X110630000Y-77710000D03*
%TO.P,U5,3,SCL_3*%
%TO.N,/SCL*%
X110630000Y-80250000D03*
%TO.P,U5,4,GND_4*%
%TO.N,GND*%
X110630000Y-82790000D03*
%TO.P,U5,5,VCC_5*%
%TO.N,3V3*%
X110630000Y-85330000D03*
%TD*%
%TO.P,U4,1,VCC_1*%
%TO.N,3V3*%
X118750000Y-109750000D03*
%TO.P,U4,2,GND_2*%
%TO.N,GND*%
X118750000Y-107210000D03*
%TO.P,U4,3,SCL_3*%
%TO.N,/SCL*%
X118750000Y-104670000D03*
%TO.P,U4,4,SDA_4*%
%TO.N,/SDA*%
X118750000Y-102130000D03*
%TO.P,U4,5,CSB_5*%
%TO.N,3V3*%
X118750000Y-99590000D03*
%TO.P,U4,6,SDO_6*%
%TO.N,unconnected-(U4-SDO-Pad6)*%
X118750000Y-97050000D03*
%TO.P,U4,7,PS_7*%
%TO.N,3V3*%
X118750000Y-94510000D03*
%TD*%
D11*
%TO.P,U6,1,GND_1*%
%TO.N,GND*%
X93880000Y-71525000D03*
D12*
%TO.P,U6,2,VCC_2*%
%TO.N,3V3*%
X96420000Y-71525000D03*
%TO.P,U6,3,SCL_3*%
%TO.N,/ESP12*%
X98960000Y-71525000D03*
%TO.P,U6,4,SDA_4*%
%TO.N,/ESP11*%
X101500000Y-71525000D03*
%TO.P,U6,5,RES_5*%
%TO.N,/ESP14*%
X104040000Y-71525000D03*
%TO.P,U6,6,DC_6*%
%TO.N,/ESP13*%
X106580000Y-71525000D03*
%TO.P,U6,7,CS_7*%
%TO.N,/ESP10*%
X109120000Y-71525000D03*
%TD*%
D13*
%TO.P,J1,1,Pin_1_1*%
%TO.N,+5V*%
X87580000Y-68000000D03*
D14*
%TO.P,J1,2,Pin_2_2*%
%TO.N,GND*%
X85040000Y-68000000D03*
%TO.P,J1,3,Pin_3_3*%
%TO.N,/SDA*%
X82500000Y-68000000D03*
%TO.P,J1,4,Pin_4_4*%
%TO.N,/SCL*%
X79960000Y-68000000D03*
%TO.P,J1,5,Pin_5_5*%
%TO.N,GND*%
X77420000Y-68000000D03*
%TD*%
D10*
%TO.P,U2,1,3V3_1*%
%TO.N,3V3*%
X101400000Y-79380000D03*
%TO.P,U2,2,3V3_2*%
X101400000Y-81920000D03*
%TO.P,U2,3,RST_3*%
%TO.N,unconnected-(U2-RST-Pad3)*%
X101400000Y-84460000D03*
%TO.P,U2,4,4_4*%
%TO.N,unconnected-(U2-Pad4)*%
X101400000Y-87000000D03*
%TO.P,U2,5,5_5*%
%TO.N,unconnected-(U2-Pad5)*%
X101400000Y-89540000D03*
%TO.P,U2,6,6_6*%
%TO.N,unconnected-(U2-Pad6)*%
X101400000Y-92080000D03*
%TO.P,U2,7,7_7*%
%TO.N,unconnected-(U2-Pad7)*%
X101400000Y-94620000D03*
%TO.P,U2,8,15_8*%
%TO.N,unconnected-(U2-15-Pad8)*%
X101400000Y-97160000D03*
%TO.P,U2,9,16_9*%
%TO.N,unconnected-(U2-16-Pad9)*%
X101400000Y-99700000D03*
%TO.P,U2,10,17_10*%
%TO.N,/ESP32TX*%
X101400000Y-102240000D03*
%TO.P,U2,11,18_11*%
%TO.N,/ESP32RX*%
X101400000Y-104780000D03*
%TO.P,U2,12,8_12*%
%TO.N,/SDA*%
X101400000Y-107320000D03*
%TO.P,U2,13,3_13*%
%TO.N,unconnected-(U2-3-Pad13)*%
X101400000Y-109860000D03*
%TO.P,U2,14,46_14*%
%TO.N,unconnected-(U2-46-Pad14)*%
X101400000Y-112400000D03*
%TO.P,U2,15,9_15*%
%TO.N,/SCL*%
X101400000Y-114940000D03*
%TO.P,U2,16,10_16*%
%TO.N,/ESP10*%
X101400000Y-117480000D03*
%TO.P,U2,17,11_17*%
%TO.N,/ESP11*%
X101400000Y-120020000D03*
%TO.P,U2,18,12_18*%
%TO.N,/ESP12*%
X101400000Y-122560000D03*
%TO.P,U2,19,13_19*%
%TO.N,/ESP13*%
X101400000Y-125100000D03*
%TO.P,U2,20,14_20*%
%TO.N,/ESP14*%
X101400000Y-127640000D03*
%TO.P,U2,21,5VIN_21*%
%TO.N,+5V*%
X101400000Y-130180000D03*
%TO.P,U2,22,GND_22*%
%TO.N,GND*%
X101400000Y-132720000D03*
%TO.P,U2,23,GND_23*%
X76000000Y-79380000D03*
%TO.P,U2,24,TX_24*%
%TO.N,unconnected-(U2-TX-Pad24)*%
X76000000Y-81920000D03*
%TO.P,U2,25,RX_25*%
%TO.N,unconnected-(U2-RX-Pad25)*%
X76000000Y-84460000D03*
%TO.P,U2,26,1_26*%
%TO.N,unconnected-(U2-1-Pad26)*%
X76000000Y-87000000D03*
%TO.P,U2,27,2_27*%
%TO.N,unconnected-(U2-2-Pad27)*%
X76000000Y-89540000D03*
%TO.P,U2,28,42_28*%
%TO.N,unconnected-(U2-42-Pad28)*%
X76000000Y-92080000D03*
%TO.P,U2,29,41_29*%
%TO.N,unconnected-(U2-41-Pad29)*%
X76000000Y-94620000D03*
%TO.P,U2,30,40_30*%
%TO.N,unconnected-(U2-40-Pad30)*%
X76000000Y-97160000D03*
%TO.P,U2,31,39_31*%
%TO.N,unconnected-(U2-39-Pad31)*%
X76000000Y-99700000D03*
%TO.P,U2,32,38_32*%
%TO.N,unconnected-(U2-38-Pad32)*%
X76000000Y-102240000D03*
%TO.P,U2,33,37_33*%
%TO.N,unconnected-(U2-37-Pad33)*%
X76000000Y-104780000D03*
%TO.P,U2,34,36_34*%
%TO.N,unconnected-(U2-36-Pad34)*%
X76000000Y-107320000D03*
%TO.P,U2,35,35_35*%
%TO.N,unconnected-(U2-Pad35)*%
X76000000Y-109860000D03*
%TO.P,U2,36,0_36*%
%TO.N,unconnected-(U2-0-Pad36)*%
X76000000Y-112400000D03*
%TO.P,U2,37,45_37*%
%TO.N,unconnected-(U2-45-Pad37)*%
X76000000Y-114940000D03*
%TO.P,U2,38,48_38*%
%TO.N,unconnected-(U2-48-Pad38)*%
X76000000Y-117480000D03*
%TO.P,U2,39,47_39*%
%TO.N,unconnected-(U2-47-Pad39)*%
X76000000Y-120020000D03*
%TO.P,U2,40,21_40*%
%TO.N,unconnected-(U2-21-Pad40)*%
X76000000Y-122560000D03*
%TO.P,U2,41,20_41*%
%TO.N,unconnected-(U2-20-Pad41)*%
X76000000Y-125100000D03*
%TO.P,U2,42,19_42*%
%TO.N,unconnected-(U2-19-Pad42)*%
X76000000Y-127640000D03*
%TO.P,U2,43,GND_43*%
%TO.N,GND*%
X76000000Y-130180000D03*
%TO.P,U2,44,GND_44*%
X76000000Y-132720000D03*
%TD*%
D15*
%TO.P,U3,1,VDD_1*%
%TO.N,+5V*%
X126262500Y-99512500D03*
%TO.P,U3,2,GND_2*%
%TO.N,GND*%
X126262500Y-96972500D03*
%TO.P,U3,3,TX/SCL_3*%
%TO.N,/SCL*%
X126262500Y-94432500D03*
%TO.P,U3,4,RX/SDA_4*%
%TO.N,/SDA*%
X126272500Y-91892500D03*
%TO.P,U3,5,RDY_5*%
%TO.N,unconnected-(U3-RDY-Pad5)*%
X126262500Y-89352500D03*
%TO.P,U3,6,PWM_6*%
%TO.N,unconnected-(U3-PWM-Pad6)*%
X126262500Y-86812500D03*
%TO.P,U3,7,SEL_7*%
%TO.N,GND*%
X126262500Y-84272500D03*
%TD*%
D16*
%TO.N,/ESP32TX*%
X107500000Y-102240000D03*
X116250000Y-130000000D03*
%TO.N,/ESP32RX*%
X116068647Y-127999999D03*
X106750000Y-103250000D03*
%TO.N,/SDA*%
X110243874Y-104750000D03*
%TO.N,+5V*%
X110750000Y-128000000D03*
%TO.N,GND*%
X111250000Y-124000000D03*
%TD*%
%TO.N,/SDA*%
D17*
X118750000Y-102130000D02*
X112863874Y-102130000D01*
X112863874Y-102130000D02*
X110243874Y-104750000D01*
X122250000Y-101170000D02*
X121290000Y-102130000D01*
X121290000Y-102130000D02*
X118750000Y-102130000D01*
%TO.N,/ESP32TX*%
X116250000Y-130000000D02*
X116768647Y-129481353D01*
X116768647Y-129481353D02*
X116768647Y-127710049D01*
X107500000Y-118441402D02*
X107500000Y-102240000D01*
X116768647Y-127710049D02*
X107500000Y-118441402D01*
%TO.N,/ESP32RX*%
X106750000Y-118500000D02*
X106750000Y-103250000D01*
X116068647Y-127818647D02*
X106750000Y-118500000D01*
X116068647Y-127999999D02*
X116068647Y-127818647D01*
%TO.N,/SDA*%
X122250000Y-93812500D02*
X124156250Y-91906250D01*
X122250000Y-101170000D02*
X122250000Y-93812500D01*
X124156250Y-91906250D02*
X124142500Y-91892500D01*
X124142500Y-91892500D02*
X126272500Y-91892500D01*
%TO.N,/ESP10*%
X99480000Y-117480000D02*
X101400000Y-117480000D01*
X98250000Y-78750000D02*
X98250000Y-116250000D01*
X103750000Y-76895000D02*
X100105000Y-76895000D01*
X98250000Y-116250000D02*
X99480000Y-117480000D01*
X100105000Y-76895000D02*
X98250000Y-78750000D01*
X109120000Y-71525000D02*
X103750000Y-76895000D01*
%TO.N,/ESP11*%
X109581849Y-70410000D02*
X110235000Y-71063151D01*
X104750000Y-118500000D02*
X103230000Y-120020000D01*
X110235000Y-71986849D02*
X104750000Y-77471849D01*
X102615000Y-70410000D02*
X109581849Y-70410000D01*
X101500000Y-71525000D02*
X102615000Y-70410000D01*
X104750000Y-77471849D02*
X104750000Y-118500000D01*
X103230000Y-120020000D02*
X101400000Y-120020000D01*
X110235000Y-71063151D02*
X110235000Y-71986849D01*
%TO.N,/ESP12*%
X110737000Y-70855216D02*
X110737000Y-72194785D01*
X100577000Y-69908000D02*
X109789785Y-69908000D01*
X109789785Y-69908000D02*
X110737000Y-70855216D01*
X110737000Y-72194785D02*
X105250000Y-77681785D01*
X105250000Y-121000000D02*
X103690000Y-122560000D01*
X105250000Y-77681785D02*
X105250000Y-121000000D01*
X103690000Y-122560000D02*
X101400000Y-122560000D01*
X98960000Y-71525000D02*
X100577000Y-69908000D01*
%TO.N,/ESP13*%
X97750000Y-121450000D02*
X101400000Y-125100000D01*
X101710000Y-76395000D02*
X99897894Y-76395000D01*
X97750000Y-78542894D02*
X97750000Y-121450000D01*
X106580000Y-71525000D02*
X101710000Y-76395000D01*
X99897894Y-76395000D02*
X97750000Y-78542894D01*
%TO.N,/ESP14*%
X97250000Y-125500000D02*
X99390000Y-127640000D01*
X104040000Y-71525000D02*
X97250000Y-78315000D01*
X99390000Y-127640000D02*
X101400000Y-127640000D01*
X97250000Y-78315000D02*
X97250000Y-125500000D01*
%TD*%
%TA.AperFunction,Conductor*%
%TO.N,+5V*%
G36*
X128442539Y-65520185D02*
G01*
X128488294Y-65572989D01*
X128499500Y-65624500D01*
X128499500Y-134375500D01*
X128479815Y-134442539D01*
X128427011Y-134488294D01*
X128375500Y-134499500D01*
X101885494Y-134499500D01*
X101818455Y-134479815D01*
X101772700Y-134427011D01*
X101762756Y-134357853D01*
X101791781Y-134294297D01*
X101847175Y-134257569D01*
X102014379Y-134203241D01*
X102238845Y-134088870D01*
X102442656Y-133940793D01*
X102620793Y-133762656D01*
X102768870Y-133558845D01*
X102883241Y-133334379D01*
X102961090Y-133094785D01*
X103000500Y-132845962D01*
X103000500Y-132594038D01*
X102961090Y-132345215D01*
X102883241Y-132105621D01*
X102883239Y-132105618D01*
X102883239Y-132105616D01*
X102841747Y-132024184D01*
X102768870Y-131881155D01*
X102706179Y-131794868D01*
X102620798Y-131677350D01*
X102620794Y-131677345D01*
X102442654Y-131499205D01*
X102442649Y-131499201D01*
X102238846Y-131351130D01*
X102212979Y-131337950D01*
X102181594Y-131315147D01*
X101570234Y-130703787D01*
X101612292Y-130692518D01*
X101737708Y-130620110D01*
X101840110Y-130517708D01*
X101912518Y-130392292D01*
X101923787Y-130350235D01*
X102694250Y-131120698D01*
X102694250Y-131120697D01*
X102768442Y-131018581D01*
X102768446Y-131018575D01*
X102882780Y-130794184D01*
X102960602Y-130554669D01*
X103000000Y-130305928D01*
X103000000Y-130054071D01*
X102960602Y-129805330D01*
X102882780Y-129565815D01*
X102768442Y-129341416D01*
X102694250Y-129239301D01*
X102694250Y-129239300D01*
X101923787Y-130009764D01*
X101912518Y-129967708D01*
X101840110Y-129842292D01*
X101737708Y-129739890D01*
X101612292Y-129667482D01*
X101570232Y-129656212D01*
X102181594Y-129044851D01*
X102212975Y-129022051D01*
X102238845Y-129008870D01*
X102442656Y-128860793D01*
X102620793Y-128682656D01*
X102768870Y-128478845D01*
X102883241Y-128254379D01*
X102961090Y-128014785D01*
X103000500Y-127765962D01*
X103000500Y-127514038D01*
X102961090Y-127265215D01*
X102883241Y-127025621D01*
X102883239Y-127025618D01*
X102883239Y-127025616D01*
X102830339Y-126921795D01*
X102768870Y-126801155D01*
X102706179Y-126714868D01*
X102620798Y-126597350D01*
X102620794Y-126597345D01*
X102481130Y-126457681D01*
X102447645Y-126396358D01*
X102452629Y-126326666D01*
X102481130Y-126282319D01*
X102620793Y-126142656D01*
X102768870Y-125938845D01*
X102883241Y-125714379D01*
X102961090Y-125474785D01*
X103000500Y-125225962D01*
X103000500Y-124974038D01*
X102961090Y-124725215D01*
X102883241Y-124485621D01*
X102883239Y-124485618D01*
X102883239Y-124485616D01*
X102829006Y-124379179D01*
X102768870Y-124261155D01*
X102706179Y-124174868D01*
X102620798Y-124057350D01*
X102620794Y-124057345D01*
X102481130Y-123917681D01*
X102447645Y-123856358D01*
X102452629Y-123786666D01*
X102481130Y-123742319D01*
X102620793Y-123602656D01*
X102768870Y-123398845D01*
X102830339Y-123278205D01*
X102878314Y-123227409D01*
X102940824Y-123210500D01*
X103754071Y-123210500D01*
X103838615Y-123193682D01*
X103879744Y-123185501D01*
X103998127Y-123136465D01*
X104104669Y-123065277D01*
X105755276Y-121414669D01*
X105826465Y-121308127D01*
X105875501Y-121189744D01*
X105885023Y-121141873D01*
X105900500Y-121064069D01*
X105900500Y-118772352D01*
X105920185Y-118705313D01*
X105972989Y-118659558D01*
X106042147Y-118649614D01*
X106105703Y-118678639D01*
X106139061Y-118724900D01*
X106173532Y-118808123D01*
X106244726Y-118914673D01*
X106244727Y-118914674D01*
X110636306Y-123306252D01*
X110669791Y-123367575D01*
X110664807Y-123437267D01*
X110636310Y-123481611D01*
X110628210Y-123489710D01*
X110628210Y-123489711D01*
X110540609Y-123620814D01*
X110540602Y-123620827D01*
X110480264Y-123766498D01*
X110480261Y-123766510D01*
X110449500Y-123921153D01*
X110449500Y-124078846D01*
X110480261Y-124233489D01*
X110480264Y-124233501D01*
X110540602Y-124379172D01*
X110540609Y-124379185D01*
X110628210Y-124510288D01*
X110628213Y-124510292D01*
X110739707Y-124621786D01*
X110739711Y-124621789D01*
X110870814Y-124709390D01*
X110870827Y-124709397D01*
X111016498Y-124769735D01*
X111016503Y-124769737D01*
X111171153Y-124800499D01*
X111171156Y-124800500D01*
X111171158Y-124800500D01*
X111328844Y-124800500D01*
X111328845Y-124800499D01*
X111483497Y-124769737D01*
X111629179Y-124709394D01*
X111760289Y-124621789D01*
X111768383Y-124613694D01*
X111829703Y-124580209D01*
X111899395Y-124585190D01*
X111943747Y-124613693D01*
X115231828Y-127901774D01*
X115265313Y-127963097D01*
X115268147Y-127989455D01*
X115268147Y-128078845D01*
X115298908Y-128233488D01*
X115298911Y-128233500D01*
X115359249Y-128379171D01*
X115359256Y-128379184D01*
X115446857Y-128510287D01*
X115446860Y-128510291D01*
X115558354Y-128621785D01*
X115558358Y-128621788D01*
X115689461Y-128709389D01*
X115689474Y-128709396D01*
X115835145Y-128769734D01*
X115835150Y-128769736D01*
X115989800Y-128800498D01*
X115989803Y-128800499D01*
X115989805Y-128800499D01*
X115994147Y-128800499D01*
X116002832Y-128803049D01*
X116011794Y-128801761D01*
X116035834Y-128812739D01*
X116061186Y-128820184D01*
X116067113Y-128827024D01*
X116075350Y-128830786D01*
X116089639Y-128853020D01*
X116106941Y-128872988D01*
X116109228Y-128883502D01*
X116113124Y-128889564D01*
X116118147Y-128924499D01*
X116118147Y-129108280D01*
X116098462Y-129175319D01*
X116045658Y-129221074D01*
X116018346Y-129229896D01*
X116016508Y-129230261D01*
X116016498Y-129230264D01*
X115870827Y-129290602D01*
X115870814Y-129290609D01*
X115739711Y-129378210D01*
X115739707Y-129378213D01*
X115628213Y-129489707D01*
X115628210Y-129489711D01*
X115540609Y-129620814D01*
X115540602Y-129620827D01*
X115480264Y-129766498D01*
X115480261Y-129766510D01*
X115449500Y-129921153D01*
X115449500Y-130078846D01*
X115480261Y-130233489D01*
X115480264Y-130233501D01*
X115540602Y-130379172D01*
X115540609Y-130379185D01*
X115628210Y-130510288D01*
X115628213Y-130510292D01*
X115739707Y-130621786D01*
X115739711Y-130621789D01*
X115870814Y-130709390D01*
X115870827Y-130709397D01*
X115955186Y-130744339D01*
X116016503Y-130769737D01*
X116139406Y-130794184D01*
X116171153Y-130800499D01*
X116171156Y-130800500D01*
X116171158Y-130800500D01*
X116328844Y-130800500D01*
X116328845Y-130800499D01*
X116483497Y-130769737D01*
X116629179Y-130709394D01*
X116760289Y-130621789D01*
X116871789Y-130510289D01*
X116959394Y-130379179D01*
X117019737Y-130233497D01*
X117033079Y-130166416D01*
X117065463Y-130104509D01*
X117066901Y-130103043D01*
X117273924Y-129896022D01*
X117345113Y-129789479D01*
X117394148Y-129671096D01*
X117406562Y-129608686D01*
X117419147Y-129545424D01*
X117419147Y-127645977D01*
X117394149Y-127520310D01*
X117394148Y-127520309D01*
X117394148Y-127520305D01*
X117345112Y-127401922D01*
X117310084Y-127349499D01*
X117273923Y-127295379D01*
X117273921Y-127295377D01*
X117273919Y-127295374D01*
X108186819Y-118208274D01*
X108153334Y-118146951D01*
X108150500Y-118120593D01*
X108150500Y-104671153D01*
X109443374Y-104671153D01*
X109443374Y-104828846D01*
X109474135Y-104983489D01*
X109474138Y-104983501D01*
X109534476Y-105129172D01*
X109534483Y-105129185D01*
X109622084Y-105260288D01*
X109622087Y-105260292D01*
X109733581Y-105371786D01*
X109733585Y-105371789D01*
X109864688Y-105459390D01*
X109864701Y-105459397D01*
X109984081Y-105508845D01*
X110010377Y-105519737D01*
X110165027Y-105550499D01*
X110165030Y-105550500D01*
X110165032Y-105550500D01*
X110322718Y-105550500D01*
X110322719Y-105550499D01*
X110477371Y-105519737D01*
X110623053Y-105459394D01*
X110754163Y-105371789D01*
X110865663Y-105260289D01*
X110953268Y-105129179D01*
X111013611Y-104983497D01*
X111026953Y-104916416D01*
X111059337Y-104854509D01*
X111060832Y-104852986D01*
X113097001Y-102816819D01*
X113158324Y-102783334D01*
X113184682Y-102780500D01*
X117209176Y-102780500D01*
X117276215Y-102800185D01*
X117319661Y-102848205D01*
X117381132Y-102968848D01*
X117529201Y-103172649D01*
X117529205Y-103172654D01*
X117668870Y-103312319D01*
X117702355Y-103373642D01*
X117697371Y-103443334D01*
X117668870Y-103487681D01*
X117529205Y-103627345D01*
X117529201Y-103627350D01*
X117381132Y-103831151D01*
X117266760Y-104055616D01*
X117188910Y-104295214D01*
X117153862Y-104516498D01*
X117149500Y-104544038D01*
X117149500Y-104795962D01*
X117188910Y-105044785D01*
X117266760Y-105284383D01*
X117345413Y-105438747D01*
X117355933Y-105459394D01*
X117381132Y-105508848D01*
X117529201Y-105712649D01*
X117529205Y-105712654D01*
X117668870Y-105852319D01*
X117702355Y-105913642D01*
X117697371Y-105983334D01*
X117668870Y-106027681D01*
X117529205Y-106167345D01*
X117529201Y-106167350D01*
X117381132Y-106371151D01*
X117266760Y-106595616D01*
X117188910Y-106835214D01*
X117149500Y-107084038D01*
X117149500Y-107335962D01*
X117188910Y-107584785D01*
X117266760Y-107824383D01*
X117381132Y-108048848D01*
X117529201Y-108252649D01*
X117529205Y-108252654D01*
X117668870Y-108392319D01*
X117702355Y-108453642D01*
X117697371Y-108523334D01*
X117668870Y-108567681D01*
X117529205Y-108707345D01*
X117529201Y-108707350D01*
X117381132Y-108911151D01*
X117266760Y-109135616D01*
X117188910Y-109375214D01*
X117149500Y-109624038D01*
X117149500Y-109875962D01*
X117188910Y-110124785D01*
X117266760Y-110364383D01*
X117381132Y-110588848D01*
X117529201Y-110792649D01*
X117529205Y-110792654D01*
X117707345Y-110970794D01*
X117707350Y-110970798D01*
X117805791Y-111042319D01*
X117911155Y-111118870D01*
X118018047Y-111173334D01*
X118135616Y-111233239D01*
X118135618Y-111233239D01*
X118135621Y-111233241D01*
X118375215Y-111311090D01*
X118624038Y-111350500D01*
X118624039Y-111350500D01*
X118875961Y-111350500D01*
X118875962Y-111350500D01*
X119124785Y-111311090D01*
X119364379Y-111233241D01*
X119588845Y-111118870D01*
X119792656Y-110970793D01*
X119970793Y-110792656D01*
X120118870Y-110588845D01*
X120233241Y-110364379D01*
X120311090Y-110124785D01*
X120350500Y-109875962D01*
X120350500Y-109624038D01*
X120311090Y-109375215D01*
X120233241Y-109135621D01*
X120233239Y-109135618D01*
X120233239Y-109135616D01*
X120174918Y-109021155D01*
X120118870Y-108911155D01*
X120050713Y-108817345D01*
X119970798Y-108707350D01*
X119970794Y-108707345D01*
X119831130Y-108567681D01*
X119797645Y-108506358D01*
X119802629Y-108436666D01*
X119831130Y-108392319D01*
X119893024Y-108330425D01*
X119970793Y-108252656D01*
X120118870Y-108048845D01*
X120233241Y-107824379D01*
X120311090Y-107584785D01*
X120350500Y-107335962D01*
X120350500Y-107084038D01*
X120311090Y-106835215D01*
X120233241Y-106595621D01*
X120233239Y-106595618D01*
X120233239Y-106595616D01*
X120174918Y-106481155D01*
X120118870Y-106371155D01*
X120050713Y-106277345D01*
X119970798Y-106167350D01*
X119970794Y-106167345D01*
X119831130Y-106027681D01*
X119797645Y-105966358D01*
X119802629Y-105896666D01*
X119831130Y-105852319D01*
X119862767Y-105820682D01*
X119970793Y-105712656D01*
X120118870Y-105508845D01*
X120233241Y-105284379D01*
X120311090Y-105044785D01*
X120350500Y-104795962D01*
X120350500Y-104544038D01*
X120311090Y-104295215D01*
X120233241Y-104055621D01*
X120233239Y-104055618D01*
X120233239Y-104055616D01*
X120174918Y-103941155D01*
X120118870Y-103831155D01*
X120050713Y-103737345D01*
X119970798Y-103627350D01*
X119970794Y-103627345D01*
X119831130Y-103487681D01*
X119797645Y-103426358D01*
X119802629Y-103356666D01*
X119831130Y-103312319D01*
X119893024Y-103250425D01*
X119970793Y-103172656D01*
X120118870Y-102968845D01*
X120180339Y-102848205D01*
X120228314Y-102797409D01*
X120290824Y-102780500D01*
X121354071Y-102780500D01*
X121438615Y-102763682D01*
X121479744Y-102755501D01*
X121598127Y-102706465D01*
X121704669Y-102635277D01*
X122755277Y-101584669D01*
X122826465Y-101478127D01*
X122875501Y-101359744D01*
X122889145Y-101291155D01*
X122900500Y-101234071D01*
X122900500Y-94133308D01*
X122920185Y-94066269D01*
X122936819Y-94045627D01*
X124403127Y-92579319D01*
X124464450Y-92545834D01*
X124490808Y-92543000D01*
X124956141Y-92543000D01*
X125023180Y-92562685D01*
X125066626Y-92610705D01*
X125074687Y-92626526D01*
X125204252Y-92804858D01*
X125204256Y-92804863D01*
X125360136Y-92960743D01*
X125360141Y-92960747D01*
X125494754Y-93058549D01*
X125537420Y-93113879D01*
X125543399Y-93183492D01*
X125510794Y-93245287D01*
X125494754Y-93259185D01*
X125350141Y-93364252D01*
X125350136Y-93364256D01*
X125194256Y-93520136D01*
X125194252Y-93520141D01*
X125064687Y-93698474D01*
X124964604Y-93894893D01*
X124964603Y-93894896D01*
X124896485Y-94104547D01*
X124862000Y-94322278D01*
X124862000Y-94542721D01*
X124896485Y-94760452D01*
X124964603Y-94970103D01*
X124964604Y-94970106D01*
X125064687Y-95166525D01*
X125194252Y-95344858D01*
X125194256Y-95344863D01*
X125350136Y-95500743D01*
X125350141Y-95500747D01*
X125489754Y-95602182D01*
X125532420Y-95657512D01*
X125538399Y-95727125D01*
X125505793Y-95788920D01*
X125489754Y-95802818D01*
X125350141Y-95904252D01*
X125350136Y-95904256D01*
X125194256Y-96060136D01*
X125194252Y-96060141D01*
X125064687Y-96238474D01*
X124964604Y-96434893D01*
X124964603Y-96434896D01*
X124896485Y-96644547D01*
X124862000Y-96862278D01*
X124862000Y-97082721D01*
X124896485Y-97300452D01*
X124964603Y-97510103D01*
X124964604Y-97510106D01*
X125064687Y-97706525D01*
X125194252Y-97884858D01*
X125194256Y-97884863D01*
X125350140Y-98040747D01*
X125490179Y-98142490D01*
X125532845Y-98197819D01*
X125538824Y-98267433D01*
X125506219Y-98329228D01*
X125490179Y-98343126D01*
X125464985Y-98361430D01*
X125464985Y-98361432D01*
X126133090Y-99029537D01*
X126069507Y-99046575D01*
X125955493Y-99112401D01*
X125862401Y-99205493D01*
X125796575Y-99319507D01*
X125779537Y-99383090D01*
X125111432Y-98714985D01*
X125111431Y-98714985D01*
X125065116Y-98778733D01*
X124965067Y-98975089D01*
X124896973Y-99184664D01*
X124862500Y-99402318D01*
X124862500Y-99622681D01*
X124896973Y-99840335D01*
X124965067Y-100049910D01*
X125065111Y-100246256D01*
X125111432Y-100310013D01*
X125779537Y-99641908D01*
X125796575Y-99705493D01*
X125862401Y-99819507D01*
X125955493Y-99912599D01*
X126069507Y-99978425D01*
X126133090Y-99995462D01*
X125464985Y-100663565D01*
X125464985Y-100663566D01*
X125528743Y-100709888D01*
X125725089Y-100809932D01*
X125934664Y-100878026D01*
X126152319Y-100912500D01*
X126372681Y-100912500D01*
X126590335Y-100878026D01*
X126799910Y-100809932D01*
X126996260Y-100709886D01*
X127060013Y-100663566D01*
X127060014Y-100663566D01*
X126391909Y-99995462D01*
X126455493Y-99978425D01*
X126569507Y-99912599D01*
X126662599Y-99819507D01*
X126728425Y-99705493D01*
X126745462Y-99641909D01*
X127413566Y-100310014D01*
X127413566Y-100310013D01*
X127459886Y-100246260D01*
X127559932Y-100049910D01*
X127628026Y-99840335D01*
X127662500Y-99622681D01*
X127662500Y-99402318D01*
X127628026Y-99184664D01*
X127559932Y-98975089D01*
X127459888Y-98778743D01*
X127413566Y-98714985D01*
X127413565Y-98714985D01*
X126745462Y-99383089D01*
X126728425Y-99319507D01*
X126662599Y-99205493D01*
X126569507Y-99112401D01*
X126455493Y-99046575D01*
X126391907Y-99029537D01*
X127060013Y-98361432D01*
X127034819Y-98343128D01*
X126992153Y-98287798D01*
X126986174Y-98218185D01*
X127018779Y-98156389D01*
X127034813Y-98142494D01*
X127174865Y-98040742D01*
X127330742Y-97884865D01*
X127460315Y-97706522D01*
X127560395Y-97510106D01*
X127628515Y-97300451D01*
X127663000Y-97082722D01*
X127663000Y-96862278D01*
X127628515Y-96644549D01*
X127594455Y-96539721D01*
X127560396Y-96434896D01*
X127560395Y-96434893D01*
X127502439Y-96321151D01*
X127460315Y-96238478D01*
X127438347Y-96208241D01*
X127330747Y-96060141D01*
X127330743Y-96060136D01*
X127174863Y-95904256D01*
X127174858Y-95904252D01*
X127035245Y-95802818D01*
X126992579Y-95747489D01*
X126986600Y-95677875D01*
X127019205Y-95616080D01*
X127035245Y-95602182D01*
X127174858Y-95500747D01*
X127174856Y-95500747D01*
X127174865Y-95500742D01*
X127330742Y-95344865D01*
X127460315Y-95166522D01*
X127560395Y-94970106D01*
X127628515Y-94760451D01*
X127663000Y-94542722D01*
X127663000Y-94322278D01*
X127628515Y-94104549D01*
X127594455Y-93999721D01*
X127560396Y-93894896D01*
X127560395Y-93894893D01*
X127502439Y-93781151D01*
X127460315Y-93698478D01*
X127438347Y-93668241D01*
X127330747Y-93520141D01*
X127330743Y-93520136D01*
X127174863Y-93364256D01*
X127174858Y-93364252D01*
X127040245Y-93266450D01*
X126997579Y-93211120D01*
X126991600Y-93141507D01*
X127024206Y-93079712D01*
X127040238Y-93065818D01*
X127184865Y-92960742D01*
X127340742Y-92804865D01*
X127470315Y-92626522D01*
X127570395Y-92430106D01*
X127638515Y-92220451D01*
X127673000Y-92002722D01*
X127673000Y-91782278D01*
X127638515Y-91564549D01*
X127570395Y-91354894D01*
X127570395Y-91354893D01*
X127504256Y-91225091D01*
X127470315Y-91158478D01*
X127448347Y-91128241D01*
X127340747Y-90980141D01*
X127340743Y-90980136D01*
X127184863Y-90824256D01*
X127184858Y-90824252D01*
X127040245Y-90719185D01*
X126997579Y-90663855D01*
X126991600Y-90594242D01*
X127024205Y-90532447D01*
X127040240Y-90518551D01*
X127174865Y-90420742D01*
X127330742Y-90264865D01*
X127460315Y-90086522D01*
X127560395Y-89890106D01*
X127628515Y-89680451D01*
X127663000Y-89462722D01*
X127663000Y-89242278D01*
X127628515Y-89024549D01*
X127560395Y-88814894D01*
X127560395Y-88814893D01*
X127502439Y-88701151D01*
X127460315Y-88618478D01*
X127438347Y-88588241D01*
X127330747Y-88440141D01*
X127330743Y-88440136D01*
X127174863Y-88284256D01*
X127174858Y-88284252D01*
X127035245Y-88182818D01*
X126992579Y-88127489D01*
X126986600Y-88057875D01*
X127019205Y-87996080D01*
X127035245Y-87982182D01*
X127174858Y-87880747D01*
X127174856Y-87880747D01*
X127174865Y-87880742D01*
X127330742Y-87724865D01*
X127460315Y-87546522D01*
X127560395Y-87350106D01*
X127628515Y-87140451D01*
X127663000Y-86922722D01*
X127663000Y-86702278D01*
X127628515Y-86484549D01*
X127560395Y-86274894D01*
X127560395Y-86274893D01*
X127506361Y-86168848D01*
X127460315Y-86078478D01*
X127438347Y-86048241D01*
X127330747Y-85900141D01*
X127330743Y-85900136D01*
X127174863Y-85744256D01*
X127174858Y-85744252D01*
X127035245Y-85642818D01*
X126992579Y-85587489D01*
X126986600Y-85517875D01*
X127019205Y-85456080D01*
X127035245Y-85442182D01*
X127174858Y-85340747D01*
X127174856Y-85340747D01*
X127174865Y-85340742D01*
X127330742Y-85184865D01*
X127460315Y-85006522D01*
X127560395Y-84810106D01*
X127628515Y-84600451D01*
X127663000Y-84382722D01*
X127663000Y-84162278D01*
X127628515Y-83944549D01*
X127560395Y-83734894D01*
X127560395Y-83734893D01*
X127506361Y-83628848D01*
X127460315Y-83538478D01*
X127438347Y-83508241D01*
X127330747Y-83360141D01*
X127330743Y-83360136D01*
X127174863Y-83204256D01*
X127174858Y-83204252D01*
X126996525Y-83074687D01*
X126996524Y-83074686D01*
X126996522Y-83074685D01*
X126933596Y-83042622D01*
X126800106Y-82974604D01*
X126800103Y-82974603D01*
X126590452Y-82906485D01*
X126472460Y-82887797D01*
X126372722Y-82872000D01*
X126152278Y-82872000D01*
X126079701Y-82883495D01*
X125934547Y-82906485D01*
X125724896Y-82974603D01*
X125724893Y-82974604D01*
X125528474Y-83074687D01*
X125350141Y-83204252D01*
X125350136Y-83204256D01*
X125194256Y-83360136D01*
X125194252Y-83360141D01*
X125064687Y-83538474D01*
X124964604Y-83734893D01*
X124964603Y-83734896D01*
X124896485Y-83944547D01*
X124862000Y-84162278D01*
X124862000Y-84382721D01*
X124896485Y-84600452D01*
X124964603Y-84810103D01*
X124964604Y-84810106D01*
X125064687Y-85006525D01*
X125194252Y-85184858D01*
X125194256Y-85184863D01*
X125350136Y-85340743D01*
X125350141Y-85340747D01*
X125489754Y-85442182D01*
X125532420Y-85497512D01*
X125538399Y-85567125D01*
X125505793Y-85628920D01*
X125489754Y-85642818D01*
X125350141Y-85744252D01*
X125350136Y-85744256D01*
X125194256Y-85900136D01*
X125194252Y-85900141D01*
X125064687Y-86078474D01*
X124964604Y-86274893D01*
X124964603Y-86274896D01*
X124896485Y-86484547D01*
X124862000Y-86702278D01*
X124862000Y-86922721D01*
X124896485Y-87140452D01*
X124964603Y-87350103D01*
X124964604Y-87350106D01*
X125064687Y-87546525D01*
X125194252Y-87724858D01*
X125194256Y-87724863D01*
X125350136Y-87880743D01*
X125350141Y-87880747D01*
X125489754Y-87982182D01*
X125532420Y-88037512D01*
X125538399Y-88107125D01*
X125505793Y-88168920D01*
X125489754Y-88182818D01*
X125350141Y-88284252D01*
X125350136Y-88284256D01*
X125194256Y-88440136D01*
X125194252Y-88440141D01*
X125064687Y-88618474D01*
X124964604Y-88814893D01*
X124964603Y-88814896D01*
X124896485Y-89024547D01*
X124862000Y-89242278D01*
X124862000Y-89462721D01*
X124896485Y-89680452D01*
X124964603Y-89890103D01*
X124964604Y-89890106D01*
X125064687Y-90086525D01*
X125194252Y-90264858D01*
X125194256Y-90264863D01*
X125350136Y-90420743D01*
X125350141Y-90420747D01*
X125494754Y-90525814D01*
X125537420Y-90581143D01*
X125543399Y-90650757D01*
X125510794Y-90712552D01*
X125494755Y-90726450D01*
X125360136Y-90824256D01*
X125204256Y-90980136D01*
X125204252Y-90980141D01*
X125074687Y-91158473D01*
X125066626Y-91174295D01*
X125018652Y-91225091D01*
X124956141Y-91242000D01*
X124078429Y-91242000D01*
X123952761Y-91266997D01*
X123952755Y-91266999D01*
X123834374Y-91316034D01*
X123727826Y-91387226D01*
X123637225Y-91477827D01*
X123637222Y-91477831D01*
X123588632Y-91550551D01*
X123573211Y-91569341D01*
X121744725Y-93397828D01*
X121744719Y-93397836D01*
X121703517Y-93459499D01*
X121703518Y-93459500D01*
X121673534Y-93504374D01*
X121624499Y-93622755D01*
X121624497Y-93622761D01*
X121599500Y-93748428D01*
X121599500Y-100849192D01*
X121579815Y-100916231D01*
X121563181Y-100936873D01*
X121056873Y-101443181D01*
X120995550Y-101476666D01*
X120969192Y-101479500D01*
X120290824Y-101479500D01*
X120223785Y-101459815D01*
X120180339Y-101411795D01*
X120169093Y-101389724D01*
X120118870Y-101291155D01*
X120050713Y-101197345D01*
X119970798Y-101087350D01*
X119970794Y-101087345D01*
X119831130Y-100947681D01*
X119797645Y-100886358D01*
X119802629Y-100816666D01*
X119831130Y-100772319D01*
X119893563Y-100709886D01*
X119970793Y-100632656D01*
X120118870Y-100428845D01*
X120233241Y-100204379D01*
X120311090Y-99964785D01*
X120350500Y-99715962D01*
X120350500Y-99464038D01*
X120311090Y-99215215D01*
X120233241Y-98975621D01*
X120233239Y-98975618D01*
X120233239Y-98975616D01*
X120174918Y-98861155D01*
X120118870Y-98751155D01*
X120050713Y-98657345D01*
X119970798Y-98547350D01*
X119970794Y-98547345D01*
X119831130Y-98407681D01*
X119797645Y-98346358D01*
X119802629Y-98276666D01*
X119831130Y-98232319D01*
X119893134Y-98170315D01*
X119970793Y-98092656D01*
X120118870Y-97888845D01*
X120233241Y-97664379D01*
X120311090Y-97424785D01*
X120350500Y-97175962D01*
X120350500Y-96924038D01*
X120311090Y-96675215D01*
X120233241Y-96435621D01*
X120233239Y-96435618D01*
X120233239Y-96435616D01*
X120174918Y-96321155D01*
X120118870Y-96211155D01*
X120050713Y-96117345D01*
X119970798Y-96007350D01*
X119970794Y-96007345D01*
X119831130Y-95867681D01*
X119797645Y-95806358D01*
X119802629Y-95736666D01*
X119831130Y-95692319D01*
X119893134Y-95630315D01*
X119970793Y-95552656D01*
X120118870Y-95348845D01*
X120233241Y-95124379D01*
X120311090Y-94884785D01*
X120350500Y-94635962D01*
X120350500Y-94384038D01*
X120311090Y-94135215D01*
X120233241Y-93895621D01*
X120233239Y-93895618D01*
X120233239Y-93895616D01*
X120174918Y-93781155D01*
X120118870Y-93671155D01*
X120083706Y-93622756D01*
X119970798Y-93467350D01*
X119970794Y-93467345D01*
X119792654Y-93289205D01*
X119792649Y-93289201D01*
X119588848Y-93141132D01*
X119588847Y-93141131D01*
X119588845Y-93141130D01*
X119489115Y-93090315D01*
X119364383Y-93026760D01*
X119124785Y-92948910D01*
X118934982Y-92918848D01*
X118875962Y-92909500D01*
X118624038Y-92909500D01*
X118565018Y-92918848D01*
X118375214Y-92948910D01*
X118135616Y-93026760D01*
X117911151Y-93141132D01*
X117707350Y-93289201D01*
X117707345Y-93289205D01*
X117529205Y-93467345D01*
X117529201Y-93467350D01*
X117381132Y-93671151D01*
X117266760Y-93895616D01*
X117188910Y-94135214D01*
X117159282Y-94322278D01*
X117149500Y-94384038D01*
X117149500Y-94635962D01*
X117188910Y-94884785D01*
X117266760Y-95124383D01*
X117345413Y-95278747D01*
X117379102Y-95344865D01*
X117381132Y-95348848D01*
X117529201Y-95552649D01*
X117529205Y-95552654D01*
X117668870Y-95692319D01*
X117702355Y-95753642D01*
X117697371Y-95823334D01*
X117668870Y-95867681D01*
X117529205Y-96007345D01*
X117529201Y-96007350D01*
X117381132Y-96211151D01*
X117266760Y-96435616D01*
X117188910Y-96675214D01*
X117159282Y-96862278D01*
X117149500Y-96924038D01*
X117149500Y-97175962D01*
X117188910Y-97424785D01*
X117266760Y-97664383D01*
X117345413Y-97818747D01*
X117379102Y-97884865D01*
X117381132Y-97888848D01*
X117529201Y-98092649D01*
X117529205Y-98092654D01*
X117668870Y-98232319D01*
X117702355Y-98293642D01*
X117697371Y-98363334D01*
X117668870Y-98407681D01*
X117529205Y-98547345D01*
X117529201Y-98547350D01*
X117381132Y-98751151D01*
X117266760Y-98975616D01*
X117188910Y-99215214D01*
X117159276Y-99402318D01*
X117149500Y-99464038D01*
X117149500Y-99715962D01*
X117188910Y-99964785D01*
X117266760Y-100204383D01*
X117381132Y-100428848D01*
X117529201Y-100632649D01*
X117529205Y-100632654D01*
X117668870Y-100772319D01*
X117702355Y-100833642D01*
X117697371Y-100903334D01*
X117668870Y-100947681D01*
X117529205Y-101087345D01*
X117529201Y-101087350D01*
X117381132Y-101291151D01*
X117319661Y-101411795D01*
X117271686Y-101462591D01*
X117209176Y-101479500D01*
X112799803Y-101479500D01*
X112674135Y-101504497D01*
X112674125Y-101504500D01*
X112625094Y-101524810D01*
X112555755Y-101553530D01*
X112555737Y-101553540D01*
X112449206Y-101624721D01*
X112449199Y-101624727D01*
X110140942Y-103932984D01*
X110079619Y-103966469D01*
X110077453Y-103966920D01*
X110010382Y-103980261D01*
X110010372Y-103980264D01*
X109864701Y-104040602D01*
X109864688Y-104040609D01*
X109733585Y-104128210D01*
X109733581Y-104128213D01*
X109622087Y-104239707D01*
X109622084Y-104239711D01*
X109534483Y-104370814D01*
X109534476Y-104370827D01*
X109474138Y-104516498D01*
X109474135Y-104516510D01*
X109443374Y-104671153D01*
X108150500Y-104671153D01*
X108150500Y-102744935D01*
X108170185Y-102677896D01*
X108171366Y-102676090D01*
X108209394Y-102619179D01*
X108269737Y-102473497D01*
X108300500Y-102318842D01*
X108300500Y-102161158D01*
X108300500Y-102161155D01*
X108300499Y-102161153D01*
X108269738Y-102006510D01*
X108269737Y-102006503D01*
X108269735Y-102006498D01*
X108209397Y-101860827D01*
X108209390Y-101860814D01*
X108121789Y-101729711D01*
X108121786Y-101729707D01*
X108010292Y-101618213D01*
X108010288Y-101618210D01*
X107879185Y-101530609D01*
X107879172Y-101530602D01*
X107733501Y-101470264D01*
X107733489Y-101470261D01*
X107578845Y-101439500D01*
X107578842Y-101439500D01*
X107421158Y-101439500D01*
X107421155Y-101439500D01*
X107266510Y-101470261D01*
X107266498Y-101470264D01*
X107120827Y-101530602D01*
X107120814Y-101530609D01*
X106989711Y-101618210D01*
X106989707Y-101618213D01*
X106878213Y-101729707D01*
X106878210Y-101729711D01*
X106790609Y-101860814D01*
X106790602Y-101860827D01*
X106730264Y-102006498D01*
X106730261Y-102006510D01*
X106699500Y-102161153D01*
X106699500Y-102318844D01*
X106700097Y-102324907D01*
X106698554Y-102325058D01*
X106692996Y-102387091D01*
X106650127Y-102442263D01*
X106601805Y-102463294D01*
X106516507Y-102480261D01*
X106516498Y-102480264D01*
X106370827Y-102540602D01*
X106370814Y-102540609D01*
X106239711Y-102628210D01*
X106239707Y-102628213D01*
X106128213Y-102739707D01*
X106128206Y-102739716D01*
X106127597Y-102740628D01*
X106127155Y-102740997D01*
X106124347Y-102744419D01*
X106123697Y-102743886D01*
X106073982Y-102785429D01*
X106004656Y-102794132D01*
X105941631Y-102763973D01*
X105904916Y-102704527D01*
X105900500Y-102671730D01*
X105900500Y-78002592D01*
X105920185Y-77935553D01*
X105936814Y-77914916D01*
X108817819Y-75033910D01*
X108879142Y-75000426D01*
X108948834Y-75005410D01*
X109004767Y-75047282D01*
X109029184Y-75112746D01*
X109029500Y-75121592D01*
X109029500Y-75295961D01*
X109068910Y-75544785D01*
X109146760Y-75784383D01*
X109261132Y-76008848D01*
X109409201Y-76212649D01*
X109409205Y-76212654D01*
X109548870Y-76352319D01*
X109582355Y-76413642D01*
X109577371Y-76483334D01*
X109548870Y-76527681D01*
X109409205Y-76667345D01*
X109409201Y-76667350D01*
X109261132Y-76871151D01*
X109146760Y-77095616D01*
X109068910Y-77335214D01*
X109029500Y-77584038D01*
X109029500Y-77835961D01*
X109068910Y-78084785D01*
X109146760Y-78324383D01*
X109261132Y-78548848D01*
X109409201Y-78752649D01*
X109409205Y-78752654D01*
X109548870Y-78892319D01*
X109582355Y-78953642D01*
X109577371Y-79023334D01*
X109548870Y-79067681D01*
X109409205Y-79207345D01*
X109409201Y-79207350D01*
X109261132Y-79411151D01*
X109146760Y-79635616D01*
X109068910Y-79875214D01*
X109029500Y-80124038D01*
X109029500Y-80375961D01*
X109068910Y-80624785D01*
X109146760Y-80864383D01*
X109261132Y-81088848D01*
X109409201Y-81292649D01*
X109409205Y-81292654D01*
X109548870Y-81432319D01*
X109582355Y-81493642D01*
X109577371Y-81563334D01*
X109548870Y-81607681D01*
X109409205Y-81747345D01*
X109409201Y-81747350D01*
X109261132Y-81951151D01*
X109146760Y-82175616D01*
X109108040Y-82294785D01*
X109068910Y-82415215D01*
X109029500Y-82664038D01*
X109029500Y-82915962D01*
X109054640Y-83074687D01*
X109068910Y-83164785D01*
X109146760Y-83404383D01*
X109261132Y-83628848D01*
X109409201Y-83832649D01*
X109409205Y-83832654D01*
X109548870Y-83972319D01*
X109582355Y-84033642D01*
X109577371Y-84103334D01*
X109548870Y-84147681D01*
X109409205Y-84287345D01*
X109409201Y-84287350D01*
X109261132Y-84491151D01*
X109146760Y-84715616D01*
X109108040Y-84834785D01*
X109068910Y-84955215D01*
X109029500Y-85204038D01*
X109029500Y-85455962D01*
X109056894Y-85628920D01*
X109068910Y-85704785D01*
X109146760Y-85944383D01*
X109261132Y-86168848D01*
X109409201Y-86372649D01*
X109409205Y-86372654D01*
X109587345Y-86550794D01*
X109587350Y-86550798D01*
X109689776Y-86625214D01*
X109791155Y-86698870D01*
X109934184Y-86771747D01*
X110015616Y-86813239D01*
X110015618Y-86813239D01*
X110015621Y-86813241D01*
X110255215Y-86891090D01*
X110504038Y-86930500D01*
X110504039Y-86930500D01*
X110755961Y-86930500D01*
X110755962Y-86930500D01*
X111004785Y-86891090D01*
X111244379Y-86813241D01*
X111468845Y-86698870D01*
X111672656Y-86550793D01*
X111850793Y-86372656D01*
X111998870Y-86168845D01*
X112113241Y-85944379D01*
X112191090Y-85704785D01*
X112230500Y-85455962D01*
X112230500Y-85204038D01*
X112191090Y-84955215D01*
X112113241Y-84715621D01*
X112113239Y-84715618D01*
X112113239Y-84715616D01*
X112071747Y-84634184D01*
X111998870Y-84491155D01*
X111920089Y-84382722D01*
X111850798Y-84287350D01*
X111850794Y-84287345D01*
X111711130Y-84147681D01*
X111677645Y-84086358D01*
X111682629Y-84016666D01*
X111711130Y-83972319D01*
X111738902Y-83944547D01*
X111850793Y-83832656D01*
X111998870Y-83628845D01*
X112113241Y-83404379D01*
X112191090Y-83164785D01*
X112230500Y-82915962D01*
X112230500Y-82664038D01*
X112191090Y-82415215D01*
X112113241Y-82175621D01*
X112113239Y-82175618D01*
X112113239Y-82175616D01*
X112071747Y-82094184D01*
X111998870Y-81951155D01*
X111979952Y-81925117D01*
X111850798Y-81747350D01*
X111850794Y-81747345D01*
X111711130Y-81607681D01*
X111677645Y-81546358D01*
X111682629Y-81476666D01*
X111711130Y-81432319D01*
X111850793Y-81292656D01*
X111998870Y-81088845D01*
X112113241Y-80864379D01*
X112191090Y-80624785D01*
X112230500Y-80375962D01*
X112230500Y-80124038D01*
X112191090Y-79875215D01*
X112113241Y-79635621D01*
X112113239Y-79635618D01*
X112113239Y-79635616D01*
X112071747Y-79554184D01*
X111998870Y-79411155D01*
X111979952Y-79385117D01*
X111850798Y-79207350D01*
X111850794Y-79207345D01*
X111711130Y-79067681D01*
X111677645Y-79006358D01*
X111682629Y-78936666D01*
X111711130Y-78892319D01*
X111850793Y-78752656D01*
X111998870Y-78548845D01*
X112113241Y-78324379D01*
X112191090Y-78084785D01*
X112230500Y-77835962D01*
X112230500Y-77584038D01*
X112191090Y-77335215D01*
X112113241Y-77095621D01*
X112113239Y-77095618D01*
X112113239Y-77095616D01*
X112071747Y-77014184D01*
X111998870Y-76871155D01*
X111979952Y-76845117D01*
X111850798Y-76667350D01*
X111850794Y-76667345D01*
X111711130Y-76527681D01*
X111677645Y-76466358D01*
X111682629Y-76396666D01*
X111711130Y-76352319D01*
X111850793Y-76212656D01*
X111998870Y-76008845D01*
X112113241Y-75784379D01*
X112191090Y-75544785D01*
X112230500Y-75295962D01*
X112230500Y-75044038D01*
X112191090Y-74795215D01*
X112113241Y-74555621D01*
X112113239Y-74555618D01*
X112113239Y-74555616D01*
X112071747Y-74474184D01*
X111998870Y-74331155D01*
X111979952Y-74305117D01*
X111850798Y-74127350D01*
X111850794Y-74127345D01*
X111672654Y-73949205D01*
X111672649Y-73949201D01*
X111468848Y-73801132D01*
X111468847Y-73801131D01*
X111468845Y-73801130D01*
X111398747Y-73765413D01*
X111244383Y-73686760D01*
X111004785Y-73608910D01*
X110755962Y-73569500D01*
X110581593Y-73569500D01*
X110514554Y-73549815D01*
X110468799Y-73497011D01*
X110458855Y-73427853D01*
X110487880Y-73364297D01*
X110493912Y-73357819D01*
X111242273Y-72609458D01*
X111242273Y-72609457D01*
X111242277Y-72609454D01*
X111313465Y-72502912D01*
X111362501Y-72384528D01*
X111369485Y-72349418D01*
X111387500Y-72258854D01*
X111387500Y-70791147D01*
X111387500Y-70791144D01*
X111362502Y-70665477D01*
X111362501Y-70665476D01*
X111362501Y-70665472D01*
X111313465Y-70547089D01*
X111264675Y-70474069D01*
X111242277Y-70440547D01*
X111050183Y-70248453D01*
X110204460Y-69402728D01*
X110204453Y-69402722D01*
X110097913Y-69331535D01*
X110097914Y-69331535D01*
X109979529Y-69282499D01*
X109979523Y-69282497D01*
X109853856Y-69257500D01*
X109853854Y-69257500D01*
X100512931Y-69257500D01*
X100512929Y-69257500D01*
X100387261Y-69282497D01*
X100387255Y-69282499D01*
X100268870Y-69331535D01*
X100162331Y-69402722D01*
X100162324Y-69402728D01*
X99316599Y-70248453D01*
X99255276Y-70281938D01*
X99209521Y-70283245D01*
X99059597Y-70259500D01*
X98860403Y-70259500D01*
X98794822Y-70269887D01*
X98663659Y-70290661D01*
X98663656Y-70290661D01*
X98474219Y-70352213D01*
X98296733Y-70442647D01*
X98253485Y-70474069D01*
X98135582Y-70559731D01*
X98135580Y-70559733D01*
X98135579Y-70559733D01*
X97994733Y-70700579D01*
X97994733Y-70700580D01*
X97994731Y-70700582D01*
X97975872Y-70726539D01*
X97877647Y-70861733D01*
X97800485Y-71013172D01*
X97752510Y-71063968D01*
X97684689Y-71080763D01*
X97618554Y-71058225D01*
X97579515Y-71013172D01*
X97502352Y-70861733D01*
X97451068Y-70791147D01*
X97385269Y-70700582D01*
X97244418Y-70559731D01*
X97083266Y-70442647D01*
X97004379Y-70402452D01*
X96905780Y-70352213D01*
X96716342Y-70290661D01*
X96568782Y-70267290D01*
X96519597Y-70259500D01*
X96320403Y-70259500D01*
X96254822Y-70269887D01*
X96123659Y-70290661D01*
X96123656Y-70290661D01*
X95934219Y-70352213D01*
X95756733Y-70442647D01*
X95713485Y-70474069D01*
X95595582Y-70559731D01*
X95595580Y-70559733D01*
X95595579Y-70559733D01*
X95454730Y-70700582D01*
X95447519Y-70710508D01*
X95392187Y-70753171D01*
X95322573Y-70759147D01*
X95260780Y-70726539D01*
X95226425Y-70665698D01*
X95224449Y-70654033D01*
X95224092Y-70652520D01*
X95173797Y-70517671D01*
X95173793Y-70517664D01*
X95087547Y-70402455D01*
X95087544Y-70402452D01*
X94972335Y-70316206D01*
X94972328Y-70316202D01*
X94837482Y-70265908D01*
X94837483Y-70265908D01*
X94777883Y-70259501D01*
X94777881Y-70259500D01*
X94777873Y-70259500D01*
X94777864Y-70259500D01*
X92982129Y-70259500D01*
X92982123Y-70259501D01*
X92922516Y-70265908D01*
X92787671Y-70316202D01*
X92787664Y-70316206D01*
X92672455Y-70402452D01*
X92672452Y-70402455D01*
X92586206Y-70517664D01*
X92586202Y-70517671D01*
X92535908Y-70652517D01*
X92529501Y-70712116D01*
X92529500Y-70712135D01*
X92529500Y-72337870D01*
X92529501Y-72337876D01*
X92535908Y-72397483D01*
X92586202Y-72532328D01*
X92586206Y-72532335D01*
X92672452Y-72647544D01*
X92672455Y-72647547D01*
X92787664Y-72733793D01*
X92787671Y-72733797D01*
X92922517Y-72784091D01*
X92922516Y-72784091D01*
X92929444Y-72784835D01*
X92982127Y-72790500D01*
X94777872Y-72790499D01*
X94837483Y-72784091D01*
X94972331Y-72733796D01*
X95087546Y-72647546D01*
X95173796Y-72532331D01*
X95224091Y-72397483D01*
X95224091Y-72397481D01*
X95225874Y-72389938D01*
X95227557Y-72390335D01*
X95250643Y-72334585D01*
X95308030Y-72294730D01*
X95377855Y-72292228D01*
X95437948Y-72327874D01*
X95447519Y-72339492D01*
X95454731Y-72349418D01*
X95595582Y-72490269D01*
X95756734Y-72607353D01*
X95934217Y-72697785D01*
X95934219Y-72697786D01*
X96123657Y-72759338D01*
X96123658Y-72759338D01*
X96123661Y-72759339D01*
X96320403Y-72790500D01*
X96320404Y-72790500D01*
X96519596Y-72790500D01*
X96519597Y-72790500D01*
X96716339Y-72759339D01*
X96716342Y-72759338D01*
X96716343Y-72759338D01*
X96905780Y-72697786D01*
X96905780Y-72697785D01*
X96905783Y-72697785D01*
X97083266Y-72607353D01*
X97244418Y-72490269D01*
X97385269Y-72349418D01*
X97502353Y-72188266D01*
X97579515Y-72036827D01*
X97627490Y-71986031D01*
X97695311Y-71969236D01*
X97761446Y-71991773D01*
X97800485Y-72036827D01*
X97877647Y-72188266D01*
X97994731Y-72349418D01*
X98135582Y-72490269D01*
X98296734Y-72607353D01*
X98474217Y-72697785D01*
X98474219Y-72697786D01*
X98663657Y-72759338D01*
X98663658Y-72759338D01*
X98663661Y-72759339D01*
X98860403Y-72790500D01*
X98860404Y-72790500D01*
X99059596Y-72790500D01*
X99059597Y-72790500D01*
X99256339Y-72759339D01*
X99256342Y-72759338D01*
X99256343Y-72759338D01*
X99445780Y-72697786D01*
X99445780Y-72697785D01*
X99445783Y-72697785D01*
X99623266Y-72607353D01*
X99784418Y-72490269D01*
X99925269Y-72349418D01*
X100042353Y-72188266D01*
X100119515Y-72036827D01*
X100167490Y-71986031D01*
X100235311Y-71969236D01*
X100301446Y-71991773D01*
X100340485Y-72036827D01*
X100417647Y-72188266D01*
X100534731Y-72349418D01*
X100675582Y-72490269D01*
X100836734Y-72607353D01*
X101014217Y-72697785D01*
X101014219Y-72697786D01*
X101203657Y-72759338D01*
X101203658Y-72759338D01*
X101203661Y-72759339D01*
X101400403Y-72790500D01*
X101400404Y-72790500D01*
X101555191Y-72790500D01*
X101622230Y-72810185D01*
X101667985Y-72862989D01*
X101677929Y-72932147D01*
X101648904Y-72995703D01*
X101642872Y-73002181D01*
X96744727Y-77900325D01*
X96744724Y-77900328D01*
X96693410Y-77977127D01*
X96673535Y-78006872D01*
X96624499Y-78125255D01*
X96624497Y-78125261D01*
X96599500Y-78250928D01*
X96599500Y-78250931D01*
X96599500Y-125564069D01*
X96599500Y-125564071D01*
X96599499Y-125564071D01*
X96621857Y-125676463D01*
X96624497Y-125689738D01*
X96624500Y-125689747D01*
X96673532Y-125808123D01*
X96744726Y-125914673D01*
X98975325Y-128145272D01*
X98975332Y-128145278D01*
X99080167Y-128215326D01*
X99080172Y-128215329D01*
X99081867Y-128216461D01*
X99081873Y-128216465D01*
X99200256Y-128265501D01*
X99200260Y-128265501D01*
X99200261Y-128265502D01*
X99325928Y-128290500D01*
X99325931Y-128290500D01*
X99859176Y-128290500D01*
X99926215Y-128310185D01*
X99969661Y-128358205D01*
X100031132Y-128478848D01*
X100179201Y-128682649D01*
X100179205Y-128682654D01*
X100357345Y-128860794D01*
X100357350Y-128860798D01*
X100561153Y-129008869D01*
X100587018Y-129022048D01*
X100618405Y-129044852D01*
X101229765Y-129656212D01*
X101187708Y-129667482D01*
X101062292Y-129739890D01*
X100959890Y-129842292D01*
X100887482Y-129967708D01*
X100876212Y-130009765D01*
X100105748Y-129239300D01*
X100105747Y-129239301D01*
X100031559Y-129341413D01*
X99917219Y-129565815D01*
X99839397Y-129805330D01*
X99800000Y-130054071D01*
X99800000Y-130305928D01*
X99839397Y-130554669D01*
X99917219Y-130794184D01*
X100031557Y-131018583D01*
X100105748Y-131120697D01*
X100105748Y-131120698D01*
X100876212Y-130350234D01*
X100887482Y-130392292D01*
X100959890Y-130517708D01*
X101062292Y-130620110D01*
X101187708Y-130692518D01*
X101229765Y-130703787D01*
X100618404Y-131315147D01*
X100587023Y-131337948D01*
X100561152Y-131351131D01*
X100357350Y-131499201D01*
X100357345Y-131499205D01*
X100179205Y-131677345D01*
X100179201Y-131677350D01*
X100031132Y-131881151D01*
X99916760Y-132105616D01*
X99838910Y-132345214D01*
X99799500Y-132594038D01*
X99799500Y-132845961D01*
X99838910Y-133094785D01*
X99916760Y-133334383D01*
X100031132Y-133558848D01*
X100179201Y-133762649D01*
X100179205Y-133762654D01*
X100357345Y-133940794D01*
X100357350Y-133940798D01*
X100535117Y-134069952D01*
X100561155Y-134088870D01*
X100704184Y-134161747D01*
X100785616Y-134203239D01*
X100785618Y-134203239D01*
X100785621Y-134203241D01*
X100952825Y-134257569D01*
X101010500Y-134297007D01*
X101037698Y-134361366D01*
X101025783Y-134430212D01*
X100978539Y-134481688D01*
X100914506Y-134499500D01*
X76485494Y-134499500D01*
X76418455Y-134479815D01*
X76372700Y-134427011D01*
X76362756Y-134357853D01*
X76391781Y-134294297D01*
X76447175Y-134257569D01*
X76614379Y-134203241D01*
X76838845Y-134088870D01*
X77042656Y-133940793D01*
X77220793Y-133762656D01*
X77368870Y-133558845D01*
X77483241Y-133334379D01*
X77561090Y-133094785D01*
X77600500Y-132845962D01*
X77600500Y-132594038D01*
X77561090Y-132345215D01*
X77483241Y-132105621D01*
X77483239Y-132105618D01*
X77483239Y-132105616D01*
X77441747Y-132024184D01*
X77368870Y-131881155D01*
X77306179Y-131794868D01*
X77220798Y-131677350D01*
X77220794Y-131677345D01*
X77081130Y-131537681D01*
X77047645Y-131476358D01*
X77052629Y-131406666D01*
X77081130Y-131362319D01*
X77128302Y-131315147D01*
X77220793Y-131222656D01*
X77368870Y-131018845D01*
X77483241Y-130794379D01*
X77561090Y-130554785D01*
X77600500Y-130305962D01*
X77600500Y-130054038D01*
X77561090Y-129805215D01*
X77483241Y-129565621D01*
X77483239Y-129565618D01*
X77483239Y-129565616D01*
X77441747Y-129484184D01*
X77368870Y-129341155D01*
X77288303Y-129230264D01*
X77220798Y-129137350D01*
X77220794Y-129137345D01*
X77081130Y-128997681D01*
X77047645Y-128936358D01*
X77052629Y-128866666D01*
X77081130Y-128822319D01*
X77133715Y-128769734D01*
X77220793Y-128682656D01*
X77368870Y-128478845D01*
X77483241Y-128254379D01*
X77561090Y-128014785D01*
X77600500Y-127765962D01*
X77600500Y-127514038D01*
X77561090Y-127265215D01*
X77483241Y-127025621D01*
X77483239Y-127025618D01*
X77483239Y-127025616D01*
X77430339Y-126921795D01*
X77368870Y-126801155D01*
X77306179Y-126714868D01*
X77220798Y-126597350D01*
X77220794Y-126597345D01*
X77081130Y-126457681D01*
X77047645Y-126396358D01*
X77052629Y-126326666D01*
X77081130Y-126282319D01*
X77220793Y-126142656D01*
X77368870Y-125938845D01*
X77483241Y-125714379D01*
X77561090Y-125474785D01*
X77600500Y-125225962D01*
X77600500Y-124974038D01*
X77561090Y-124725215D01*
X77483241Y-124485621D01*
X77483239Y-124485618D01*
X77483239Y-124485616D01*
X77429006Y-124379179D01*
X77368870Y-124261155D01*
X77306179Y-124174868D01*
X77220798Y-124057350D01*
X77220794Y-124057345D01*
X77081130Y-123917681D01*
X77047645Y-123856358D01*
X77052629Y-123786666D01*
X77081130Y-123742319D01*
X77220793Y-123602656D01*
X77368870Y-123398845D01*
X77483241Y-123174379D01*
X77561090Y-122934785D01*
X77600500Y-122685962D01*
X77600500Y-122434038D01*
X77561090Y-122185215D01*
X77483241Y-121945621D01*
X77483239Y-121945618D01*
X77483239Y-121945616D01*
X77430339Y-121841795D01*
X77368870Y-121721155D01*
X77306179Y-121634868D01*
X77220798Y-121517350D01*
X77220794Y-121517345D01*
X77081130Y-121377681D01*
X77047645Y-121316358D01*
X77052629Y-121246666D01*
X77081130Y-121202319D01*
X77141577Y-121141872D01*
X77220793Y-121062656D01*
X77368870Y-120858845D01*
X77483241Y-120634379D01*
X77561090Y-120394785D01*
X77600500Y-120145962D01*
X77600500Y-119894038D01*
X77561090Y-119645215D01*
X77483241Y-119405621D01*
X77483239Y-119405618D01*
X77483239Y-119405616D01*
X77419661Y-119280839D01*
X77368870Y-119181155D01*
X77306179Y-119094868D01*
X77220798Y-118977350D01*
X77220794Y-118977345D01*
X77081130Y-118837681D01*
X77047645Y-118776358D01*
X77052629Y-118706666D01*
X77081130Y-118662319D01*
X77112303Y-118631146D01*
X77220793Y-118522656D01*
X77368870Y-118318845D01*
X77483241Y-118094379D01*
X77561090Y-117854785D01*
X77600500Y-117605962D01*
X77600500Y-117354038D01*
X77561090Y-117105215D01*
X77483241Y-116865621D01*
X77483239Y-116865618D01*
X77483239Y-116865616D01*
X77430339Y-116761795D01*
X77368870Y-116641155D01*
X77306179Y-116554868D01*
X77220798Y-116437350D01*
X77220794Y-116437345D01*
X77081130Y-116297681D01*
X77047645Y-116236358D01*
X77052629Y-116166666D01*
X77081130Y-116122319D01*
X77220793Y-115982656D01*
X77368870Y-115778845D01*
X77483241Y-115554379D01*
X77561090Y-115314785D01*
X77600500Y-115065962D01*
X77600500Y-114814038D01*
X77561090Y-114565215D01*
X77483241Y-114325621D01*
X77483239Y-114325618D01*
X77483239Y-114325616D01*
X77441747Y-114244184D01*
X77368870Y-114101155D01*
X77306179Y-114014868D01*
X77220798Y-113897350D01*
X77220794Y-113897345D01*
X77081130Y-113757681D01*
X77047645Y-113696358D01*
X77052629Y-113626666D01*
X77081130Y-113582319D01*
X77220793Y-113442656D01*
X77368870Y-113238845D01*
X77483241Y-113014379D01*
X77561090Y-112774785D01*
X77600500Y-112525962D01*
X77600500Y-112274038D01*
X77561090Y-112025215D01*
X77483241Y-111785621D01*
X77483239Y-111785618D01*
X77483239Y-111785616D01*
X77441747Y-111704184D01*
X77368870Y-111561155D01*
X77306179Y-111474868D01*
X77220798Y-111357350D01*
X77220794Y-111357345D01*
X77081130Y-111217681D01*
X77047645Y-111156358D01*
X77052629Y-111086666D01*
X77081130Y-111042319D01*
X77220793Y-110902656D01*
X77368870Y-110698845D01*
X77483241Y-110474379D01*
X77561090Y-110234785D01*
X77600500Y-109985962D01*
X77600500Y-109734038D01*
X77561090Y-109485215D01*
X77483241Y-109245621D01*
X77483239Y-109245618D01*
X77483239Y-109245616D01*
X77427191Y-109135616D01*
X77368870Y-109021155D01*
X77288948Y-108911151D01*
X77220798Y-108817350D01*
X77220794Y-108817345D01*
X77081130Y-108677681D01*
X77047645Y-108616358D01*
X77052629Y-108546666D01*
X77081130Y-108502319D01*
X77146783Y-108436666D01*
X77220793Y-108362656D01*
X77368870Y-108158845D01*
X77483241Y-107934379D01*
X77561090Y-107694785D01*
X77600500Y-107445962D01*
X77600500Y-107194038D01*
X77561090Y-106945215D01*
X77483241Y-106705621D01*
X77483239Y-106705618D01*
X77483239Y-106705616D01*
X77427191Y-106595616D01*
X77368870Y-106481155D01*
X77288948Y-106371151D01*
X77220798Y-106277350D01*
X77220794Y-106277345D01*
X77081130Y-106137681D01*
X77047645Y-106076358D01*
X77052629Y-106006666D01*
X77081130Y-105962319D01*
X77146783Y-105896666D01*
X77220793Y-105822656D01*
X77368870Y-105618845D01*
X77483241Y-105394379D01*
X77561090Y-105154785D01*
X77600500Y-104905962D01*
X77600500Y-104654038D01*
X77561090Y-104405215D01*
X77483241Y-104165621D01*
X77483239Y-104165618D01*
X77483239Y-104165616D01*
X77419544Y-104040609D01*
X77368870Y-103941155D01*
X77288948Y-103831151D01*
X77220798Y-103737350D01*
X77220794Y-103737345D01*
X77081130Y-103597681D01*
X77047645Y-103536358D01*
X77052629Y-103466666D01*
X77081130Y-103422319D01*
X77146783Y-103356666D01*
X77220793Y-103282656D01*
X77368870Y-103078845D01*
X77483241Y-102854379D01*
X77561090Y-102614785D01*
X77600500Y-102365962D01*
X77600500Y-102114038D01*
X77561090Y-101865215D01*
X77483241Y-101625621D01*
X77483239Y-101625618D01*
X77483239Y-101625616D01*
X77421525Y-101504497D01*
X77368870Y-101401155D01*
X77288948Y-101291151D01*
X77220798Y-101197350D01*
X77220794Y-101197345D01*
X77081130Y-101057681D01*
X77047645Y-100996358D01*
X77052629Y-100926666D01*
X77081130Y-100882319D01*
X77146783Y-100816666D01*
X77220793Y-100742656D01*
X77368870Y-100538845D01*
X77483241Y-100314379D01*
X77561090Y-100074785D01*
X77600500Y-99825962D01*
X77600500Y-99574038D01*
X77561090Y-99325215D01*
X77483241Y-99085621D01*
X77483239Y-99085618D01*
X77483239Y-99085616D01*
X77426922Y-98975089D01*
X77368870Y-98861155D01*
X77310523Y-98780847D01*
X77220798Y-98657350D01*
X77220794Y-98657345D01*
X77081130Y-98517681D01*
X77047645Y-98456358D01*
X77052629Y-98386666D01*
X77081130Y-98342319D01*
X77146783Y-98276666D01*
X77220793Y-98202656D01*
X77368870Y-97998845D01*
X77483241Y-97774379D01*
X77561090Y-97534785D01*
X77600500Y-97285962D01*
X77600500Y-97034038D01*
X77561090Y-96785215D01*
X77483241Y-96545621D01*
X77483239Y-96545618D01*
X77483239Y-96545616D01*
X77426822Y-96434893D01*
X77368870Y-96321155D01*
X77288948Y-96211151D01*
X77220798Y-96117350D01*
X77220794Y-96117345D01*
X77081130Y-95977681D01*
X77047645Y-95916358D01*
X77052629Y-95846666D01*
X77081130Y-95802319D01*
X77146783Y-95736666D01*
X77220793Y-95662656D01*
X77368870Y-95458845D01*
X77483241Y-95234379D01*
X77561090Y-94994785D01*
X77600500Y-94745962D01*
X77600500Y-94494038D01*
X77561090Y-94245215D01*
X77483241Y-94005621D01*
X77483239Y-94005618D01*
X77483239Y-94005616D01*
X77426822Y-93894893D01*
X77368870Y-93781155D01*
X77288948Y-93671151D01*
X77220798Y-93577350D01*
X77220794Y-93577345D01*
X77081130Y-93437681D01*
X77047645Y-93376358D01*
X77052629Y-93306666D01*
X77081130Y-93262319D01*
X77132329Y-93211120D01*
X77220793Y-93122656D01*
X77368870Y-92918845D01*
X77483241Y-92694379D01*
X77561090Y-92454785D01*
X77600500Y-92205962D01*
X77600500Y-91954038D01*
X77561090Y-91705215D01*
X77483241Y-91465621D01*
X77483239Y-91465618D01*
X77483239Y-91465616D01*
X77407023Y-91316035D01*
X77368870Y-91241155D01*
X77349952Y-91215117D01*
X77220798Y-91037350D01*
X77220794Y-91037345D01*
X77081130Y-90897681D01*
X77047645Y-90836358D01*
X77052629Y-90766666D01*
X77081130Y-90722319D01*
X77139594Y-90663855D01*
X77220793Y-90582656D01*
X77368870Y-90378845D01*
X77483241Y-90154379D01*
X77561090Y-89914785D01*
X77600500Y-89665962D01*
X77600500Y-89414038D01*
X77561090Y-89165215D01*
X77483241Y-88925621D01*
X77483239Y-88925618D01*
X77483239Y-88925616D01*
X77426822Y-88814893D01*
X77368870Y-88701155D01*
X77306179Y-88614868D01*
X77220798Y-88497350D01*
X77220794Y-88497345D01*
X77081130Y-88357681D01*
X77047645Y-88296358D01*
X77052629Y-88226666D01*
X77081130Y-88182319D01*
X77135960Y-88127489D01*
X77220793Y-88042656D01*
X77368870Y-87838845D01*
X77483241Y-87614379D01*
X77561090Y-87374785D01*
X77600500Y-87125962D01*
X77600500Y-86874038D01*
X77561090Y-86625215D01*
X77483241Y-86385621D01*
X77483239Y-86385618D01*
X77483239Y-86385616D01*
X77426822Y-86274893D01*
X77368870Y-86161155D01*
X77306179Y-86074868D01*
X77220798Y-85957350D01*
X77220794Y-85957345D01*
X77081130Y-85817681D01*
X77047645Y-85756358D01*
X77052629Y-85686666D01*
X77081130Y-85642319D01*
X77135960Y-85587489D01*
X77220793Y-85502656D01*
X77368870Y-85298845D01*
X77483241Y-85074379D01*
X77561090Y-84834785D01*
X77600500Y-84585962D01*
X77600500Y-84334038D01*
X77561090Y-84085215D01*
X77483241Y-83845621D01*
X77483239Y-83845618D01*
X77483239Y-83845616D01*
X77426822Y-83734893D01*
X77368870Y-83621155D01*
X77306179Y-83534868D01*
X77220798Y-83417350D01*
X77220794Y-83417345D01*
X77081130Y-83277681D01*
X77047645Y-83216358D01*
X77052629Y-83146666D01*
X77081130Y-83102319D01*
X77108764Y-83074685D01*
X77220793Y-82962656D01*
X77368870Y-82758845D01*
X77483241Y-82534379D01*
X77561090Y-82294785D01*
X77600500Y-82045962D01*
X77600500Y-81794038D01*
X77561090Y-81545215D01*
X77483241Y-81305621D01*
X77483239Y-81305618D01*
X77483239Y-81305616D01*
X77441747Y-81224184D01*
X77368870Y-81081155D01*
X77306179Y-80994868D01*
X77220798Y-80877350D01*
X77220794Y-80877345D01*
X77081130Y-80737681D01*
X77047645Y-80676358D01*
X77052629Y-80606666D01*
X77081130Y-80562319D01*
X77220793Y-80422656D01*
X77368870Y-80218845D01*
X77483241Y-79994379D01*
X77561090Y-79754785D01*
X77600500Y-79505962D01*
X77600500Y-79254038D01*
X77561090Y-79005215D01*
X77483241Y-78765621D01*
X77483239Y-78765618D01*
X77483239Y-78765616D01*
X77441747Y-78684184D01*
X77368870Y-78541155D01*
X77306179Y-78454868D01*
X77220798Y-78337350D01*
X77220794Y-78337345D01*
X77042654Y-78159205D01*
X77042649Y-78159201D01*
X76838848Y-78011132D01*
X76838847Y-78011131D01*
X76838845Y-78011130D01*
X76768747Y-77975413D01*
X76614383Y-77896760D01*
X76374785Y-77818910D01*
X76125962Y-77779500D01*
X75874038Y-77779500D01*
X75749626Y-77799205D01*
X75625214Y-77818910D01*
X75385616Y-77896760D01*
X75161151Y-78011132D01*
X74957350Y-78159201D01*
X74957345Y-78159205D01*
X74779205Y-78337345D01*
X74724818Y-78412203D01*
X74669488Y-78454868D01*
X74599874Y-78460847D01*
X74538079Y-78428241D01*
X74503722Y-78367402D01*
X74500500Y-78339317D01*
X74500500Y-67893713D01*
X76069500Y-67893713D01*
X76069500Y-68106286D01*
X76102753Y-68316239D01*
X76168444Y-68518414D01*
X76264951Y-68707820D01*
X76389890Y-68879786D01*
X76540213Y-69030109D01*
X76712179Y-69155048D01*
X76712181Y-69155049D01*
X76712184Y-69155051D01*
X76901588Y-69251557D01*
X77103757Y-69317246D01*
X77313713Y-69350500D01*
X77313714Y-69350500D01*
X77526286Y-69350500D01*
X77526287Y-69350500D01*
X77736243Y-69317246D01*
X77938412Y-69251557D01*
X78127816Y-69155051D01*
X78214478Y-69092088D01*
X78299786Y-69030109D01*
X78299788Y-69030106D01*
X78299792Y-69030104D01*
X78450104Y-68879792D01*
X78450106Y-68879788D01*
X78450109Y-68879786D01*
X78575048Y-68707820D01*
X78575047Y-68707820D01*
X78575051Y-68707816D01*
X78579514Y-68699054D01*
X78627488Y-68648259D01*
X78695308Y-68631463D01*
X78761444Y-68653999D01*
X78800486Y-68699056D01*
X78804951Y-68707820D01*
X78929890Y-68879786D01*
X79080213Y-69030109D01*
X79252179Y-69155048D01*
X79252181Y-69155049D01*
X79252184Y-69155051D01*
X79441588Y-69251557D01*
X79643757Y-69317246D01*
X79853713Y-69350500D01*
X79853714Y-69350500D01*
X80066286Y-69350500D01*
X80066287Y-69350500D01*
X80276243Y-69317246D01*
X80478412Y-69251557D01*
X80667816Y-69155051D01*
X80754478Y-69092088D01*
X80839786Y-69030109D01*
X80839788Y-69030106D01*
X80839792Y-69030104D01*
X80990104Y-68879792D01*
X80990106Y-68879788D01*
X80990109Y-68879786D01*
X81115048Y-68707820D01*
X81115047Y-68707820D01*
X81115051Y-68707816D01*
X81119514Y-68699054D01*
X81167488Y-68648259D01*
X81235308Y-68631463D01*
X81301444Y-68653999D01*
X81340486Y-68699056D01*
X81344951Y-68707820D01*
X81469890Y-68879786D01*
X81620213Y-69030109D01*
X81792179Y-69155048D01*
X81792181Y-69155049D01*
X81792184Y-69155051D01*
X81981588Y-69251557D01*
X82183757Y-69317246D01*
X82393713Y-69350500D01*
X82393714Y-69350500D01*
X82606286Y-69350500D01*
X82606287Y-69350500D01*
X82816243Y-69317246D01*
X83018412Y-69251557D01*
X83207816Y-69155051D01*
X83294478Y-69092088D01*
X83379786Y-69030109D01*
X83379788Y-69030106D01*
X83379792Y-69030104D01*
X83530104Y-68879792D01*
X83530106Y-68879788D01*
X83530109Y-68879786D01*
X83655048Y-68707820D01*
X83655047Y-68707820D01*
X83655051Y-68707816D01*
X83659514Y-68699054D01*
X83707488Y-68648259D01*
X83775308Y-68631463D01*
X83841444Y-68653999D01*
X83880486Y-68699056D01*
X83884951Y-68707820D01*
X84009890Y-68879786D01*
X84160213Y-69030109D01*
X84332179Y-69155048D01*
X84332181Y-69155049D01*
X84332184Y-69155051D01*
X84521588Y-69251557D01*
X84723757Y-69317246D01*
X84933713Y-69350500D01*
X84933714Y-69350500D01*
X85146286Y-69350500D01*
X85146287Y-69350500D01*
X85356243Y-69317246D01*
X85558412Y-69251557D01*
X85747816Y-69155051D01*
X85834478Y-69092088D01*
X85919784Y-69030110D01*
X85919784Y-69030109D01*
X85919792Y-69030104D01*
X86033717Y-68916178D01*
X86095036Y-68882696D01*
X86164728Y-68887680D01*
X86220662Y-68929551D01*
X86237577Y-68960528D01*
X86286646Y-69092088D01*
X86286649Y-69092093D01*
X86372809Y-69207187D01*
X86372812Y-69207190D01*
X86487906Y-69293350D01*
X86487913Y-69293354D01*
X86622620Y-69343596D01*
X86622627Y-69343598D01*
X86682155Y-69349999D01*
X86682172Y-69350000D01*
X87330000Y-69350000D01*
X87330000Y-68433012D01*
X87387007Y-68465925D01*
X87514174Y-68500000D01*
X87645826Y-68500000D01*
X87772993Y-68465925D01*
X87830000Y-68433012D01*
X87830000Y-69350000D01*
X88477828Y-69350000D01*
X88477844Y-69349999D01*
X88537372Y-69343598D01*
X88537379Y-69343596D01*
X88672086Y-69293354D01*
X88672093Y-69293350D01*
X88787187Y-69207190D01*
X88787190Y-69207187D01*
X88873350Y-69092093D01*
X88873354Y-69092086D01*
X88923596Y-68957379D01*
X88923598Y-68957372D01*
X88929999Y-68897844D01*
X88930000Y-68897827D01*
X88930000Y-68250000D01*
X88013012Y-68250000D01*
X88045925Y-68192993D01*
X88080000Y-68065826D01*
X88080000Y-67934174D01*
X88045925Y-67807007D01*
X88013012Y-67750000D01*
X88930000Y-67750000D01*
X88930000Y-67102172D01*
X88929999Y-67102155D01*
X88923598Y-67042627D01*
X88923596Y-67042620D01*
X88873354Y-66907913D01*
X88873350Y-66907906D01*
X88787190Y-66792812D01*
X88787187Y-66792809D01*
X88672093Y-66706649D01*
X88672086Y-66706645D01*
X88537379Y-66656403D01*
X88537372Y-66656401D01*
X88477844Y-66650000D01*
X87830000Y-66650000D01*
X87830000Y-67566988D01*
X87772993Y-67534075D01*
X87645826Y-67500000D01*
X87514174Y-67500000D01*
X87387007Y-67534075D01*
X87330000Y-67566988D01*
X87330000Y-66650000D01*
X86682155Y-66650000D01*
X86622627Y-66656401D01*
X86622620Y-66656403D01*
X86487913Y-66706645D01*
X86487906Y-66706649D01*
X86372812Y-66792809D01*
X86372809Y-66792812D01*
X86286649Y-66907906D01*
X86286646Y-66907912D01*
X86237577Y-67039471D01*
X86195705Y-67095404D01*
X86130241Y-67119821D01*
X86061968Y-67104969D01*
X86033714Y-67083818D01*
X85919786Y-66969890D01*
X85747820Y-66844951D01*
X85558414Y-66748444D01*
X85558413Y-66748443D01*
X85558412Y-66748443D01*
X85356243Y-66682754D01*
X85356241Y-66682753D01*
X85356240Y-66682753D01*
X85194957Y-66657208D01*
X85146287Y-66649500D01*
X84933713Y-66649500D01*
X84885042Y-66657208D01*
X84723760Y-66682753D01*
X84521585Y-66748444D01*
X84332179Y-66844951D01*
X84160213Y-66969890D01*
X84009890Y-67120213D01*
X83884949Y-67292182D01*
X83880484Y-67300946D01*
X83832509Y-67351742D01*
X83764688Y-67368536D01*
X83698553Y-67345998D01*
X83659516Y-67300946D01*
X83655050Y-67292182D01*
X83530109Y-67120213D01*
X83379786Y-66969890D01*
X83207820Y-66844951D01*
X83018414Y-66748444D01*
X83018413Y-66748443D01*
X83018412Y-66748443D01*
X82816243Y-66682754D01*
X82816241Y-66682753D01*
X82816240Y-66682753D01*
X82654957Y-66657208D01*
X82606287Y-66649500D01*
X82393713Y-66649500D01*
X82345042Y-66657208D01*
X82183760Y-66682753D01*
X81981585Y-66748444D01*
X81792179Y-66844951D01*
X81620213Y-66969890D01*
X81469890Y-67120213D01*
X81344949Y-67292182D01*
X81340484Y-67300946D01*
X81292509Y-67351742D01*
X81224688Y-67368536D01*
X81158553Y-67345998D01*
X81119516Y-67300946D01*
X81115050Y-67292182D01*
X80990109Y-67120213D01*
X80839786Y-66969890D01*
X80667820Y-66844951D01*
X80478414Y-66748444D01*
X80478413Y-66748443D01*
X80478412Y-66748443D01*
X80276243Y-66682754D01*
X80276241Y-66682753D01*
X80276240Y-66682753D01*
X80114957Y-66657208D01*
X80066287Y-66649500D01*
X79853713Y-66649500D01*
X79805042Y-66657208D01*
X79643760Y-66682753D01*
X79441585Y-66748444D01*
X79252179Y-66844951D01*
X79080213Y-66969890D01*
X78929890Y-67120213D01*
X78804949Y-67292182D01*
X78800484Y-67300946D01*
X78752509Y-67351742D01*
X78684688Y-67368536D01*
X78618553Y-67345998D01*
X78579516Y-67300946D01*
X78575050Y-67292182D01*
X78450109Y-67120213D01*
X78299786Y-66969890D01*
X78127820Y-66844951D01*
X77938414Y-66748444D01*
X77938413Y-66748443D01*
X77938412Y-66748443D01*
X77736243Y-66682754D01*
X77736241Y-66682753D01*
X77736240Y-66682753D01*
X77574957Y-66657208D01*
X77526287Y-66649500D01*
X77313713Y-66649500D01*
X77265042Y-66657208D01*
X77103760Y-66682753D01*
X76901585Y-66748444D01*
X76712179Y-66844951D01*
X76540213Y-66969890D01*
X76389890Y-67120213D01*
X76264951Y-67292179D01*
X76168444Y-67481585D01*
X76102753Y-67683760D01*
X76069500Y-67893713D01*
X74500500Y-67893713D01*
X74500500Y-65624500D01*
X74520185Y-65557461D01*
X74572989Y-65511706D01*
X74624500Y-65500500D01*
X128375500Y-65500500D01*
X128442539Y-65520185D01*
G37*
%TD.AperFunction*%
%TD*%
M02*
