M48
; DRILL file KiCad 10.0.3 date 2026-06-14T22:38:20
; FORMAT={-:-/ absolute / metric / decimal}
; #@! TF.CreationDate,2026-06-14T22:38:20+02:00
; #@! TF.GenerationSoftware,Kicad,Pcbnew,10.0.3
; #@! TF.FileFunction,Plated,1,4,PTH
FMAT,2
METRIC
; #@! TA.AperFunction,Plated,PTH,ViaDrill
T1C0.300
; #@! TA.AperFunction,Plated,PTH,ComponentDrill
T2C1.000
; #@! TA.AperFunction,Plated,PTH,ComponentDrill
T3C1.020
; #@! TA.AperFunction,Plated,PTH,ComponentDrill
T4C1.100
%
G90
G05
T1
X106.75Y-103.25
X107.5Y-102.24
X110.244Y-104.75
X110.75Y-128.0
X111.25Y-124.0
X116.069Y-128.0
X116.25Y-130.0
T2
X77.42Y-68.0
X79.96Y-68.0
X82.5Y-68.0
X85.04Y-68.0
X87.58Y-68.0
X126.262Y-84.272
X126.262Y-86.812
X126.262Y-89.352
X126.262Y-94.432
X126.262Y-96.972
X126.262Y-99.512
X126.272Y-91.892
T3
X93.88Y-71.525
X96.42Y-71.525
X98.96Y-71.525
X101.5Y-71.525
X104.04Y-71.525
X106.58Y-71.525
X109.12Y-71.525
T4
X76.0Y-79.38
X76.0Y-81.92
X76.0Y-84.46
X76.0Y-87.0
X76.0Y-89.54
X76.0Y-92.08
X76.0Y-94.62
X76.0Y-97.16
X76.0Y-99.7
X76.0Y-102.24
X76.0Y-104.78
X76.0Y-107.32
X76.0Y-109.86
X76.0Y-112.4
X76.0Y-114.94
X76.0Y-117.48
X76.0Y-120.02
X76.0Y-122.56
X76.0Y-125.1
X76.0Y-127.64
X76.0Y-130.18
X76.0Y-132.72
X101.4Y-79.38
X101.4Y-81.92
X101.4Y-84.46
X101.4Y-87.0
X101.4Y-89.54
X101.4Y-92.08
X101.4Y-94.62
X101.4Y-97.16
X101.4Y-99.7
X101.4Y-102.24
X101.4Y-104.78
X101.4Y-107.32
X101.4Y-109.86
X101.4Y-112.4
X101.4Y-114.94
X101.4Y-117.48
X101.4Y-120.02
X101.4Y-122.56
X101.4Y-125.1
X101.4Y-127.64
X101.4Y-130.18
X101.4Y-132.72
X110.63Y-75.17
X110.63Y-77.71
X110.63Y-80.25
X110.63Y-82.79
X110.63Y-85.33
X118.75Y-94.51
X118.75Y-97.05
X118.75Y-99.59
X118.75Y-102.13
X118.75Y-104.67
X118.75Y-107.21
X118.75Y-109.75
M30
