%TF.GenerationSoftware,KiCad,Pcbnew,10.0.3*%
%TF.CreationDate,2026-06-14T22:38:18+02:00*%
%TF.ProjectId,envsensor,656e7673-656e-4736-9f72-2e6b69636164,rev?*%
%TF.SameCoordinates,Original*%
%TF.FileFunction,Copper,L1,Top*%
%TF.FilePolarity,Positive*%
%FSLAX46Y46*%
G04 Gerber Fmt 4.6, Leading zero omitted, Abs format (unit mm)*
G04 Created by KiCad (PCBNEW 10.0.3) date 2026-06-14 22:38:18*
%MOMM*%
%LPD*%
G01*
G04 APERTURE LIST*
G04 Aperture macros list*
%AMRoundRect*
0 Rectangle with rounded corners*
0 $1 Rounding radius*
0 $2 $3 $4 $5 $6 $7 $8 $9 X,Y pos of 4 corners*
0 Add a 4 corners polygon primitive as box body*
4,1,4,$2,$3,$4,$5,$6,$7,$8,$9,$2,$3,0*
0 Add four circle primitives for the rounded corners*
1,1,$1+$1,$2,$3*
1,1,$1+$1,$4,$5*
1,1,$1+$1,$6,$7*
1,1,$1+$1,$8,$9*
0 Add four rect primitives between the rounded corners*
20,1,$1+$1,$2,$3,$4,$5,0*
20,1,$1+$1,$4,$5,$6,$7,0*
20,1,$1+$1,$6,$7,$8,$9,0*
20,1,$1+$1,$8,$9,$2,$3,0*%
G04 Aperture macros list end*
%TA.AperFunction,ComponentPad*%
%ADD10C,2.200000*%
%TD*%
%TA.AperFunction,SMDPad,CuDef*%
%ADD11RoundRect,0.200000X-0.200000X-0.275000X0.200000X-0.275000X0.200000X0.275000X-0.200000X0.275000X0*%
%TD*%
%TA.AperFunction,ComponentPad*%
%ADD12R,1.700000X1.530000*%
%TD*%
%TA.AperFunction,ComponentPad*%
%ADD13C,1.530000*%
%TD*%
%TA.AperFunction,SMDPad,CuDef*%
%ADD14R,2.200000X0.889992*%
%TD*%
%TA.AperFunction,ComponentPad*%
%ADD15R,1.700000X1.700000*%
%TD*%
%TA.AperFunction,ComponentPad*%
%ADD16C,1.700000*%
%TD*%
%TA.AperFunction,ComponentPad*%
%ADD17C,1.800000*%
%TD*%
%TA.AperFunction,ViaPad*%
%ADD18C,0.600000*%
%TD*%
%TA.AperFunction,Conductor*%
%ADD19C,0.300000*%
%TD*%
G04 APERTURE END LIST*
D10*
%TO.P,U5,1,ADDR_1*%
%TO.N,GND*%
X110630000Y-75170000D03*
%TO.P,U5,2,SDA_2*%
%TO.N,/SDA*%
X110630000Y-77710000D03*
%TO.P,U5,3,SCL_3*%
%TO.N,/SCL*%
X110630000Y-80250000D03*
%TO.P,U5,4,GND_4*%
%TO.N,GND*%
X110630000Y-82790000D03*
%TO.P,U5,5,VCC_5*%
%TO.N,3V3*%
X110630000Y-85330000D03*
%TD*%
D11*
%TO.P,R1,1*%
%TO.N,/SDA*%
X104675000Y-107250000D03*
%TO.P,R1,2*%
%TO.N,3V3*%
X106325000Y-107250000D03*
%TD*%
D10*
%TO.P,U4,1,VCC_1*%
%TO.N,3V3*%
X118750000Y-109750000D03*
%TO.P,U4,2,GND_2*%
%TO.N,GND*%
X118750000Y-107210000D03*
%TO.P,U4,3,SCL_3*%
%TO.N,/SCL*%
X118750000Y-104670000D03*
%TO.P,U4,4,SDA_4*%
%TO.N,/SDA*%
X118750000Y-102130000D03*
%TO.P,U4,5,CSB_5*%
%TO.N,3V3*%
X118750000Y-99590000D03*
%TO.P,U4,6,SDO_6*%
%TO.N,unconnected-(U4-SDO-Pad6)*%
X118750000Y-97050000D03*
%TO.P,U4,7,PS_7*%
%TO.N,3V3*%
X118750000Y-94510000D03*
%TD*%
D12*
%TO.P,U6,1,GND_1*%
%TO.N,GND*%
X93880000Y-71525000D03*
D13*
%TO.P,U6,2,VCC_2*%
%TO.N,3V3*%
X96420000Y-71525000D03*
%TO.P,U6,3,SCL_3*%
%TO.N,/ESP12*%
X98960000Y-71525000D03*
%TO.P,U6,4,SDA_4*%
%TO.N,/ESP11*%
X101500000Y-71525000D03*
%TO.P,U6,5,RES_5*%
%TO.N,/ESP14*%
X104040000Y-71525000D03*
%TO.P,U6,6,DC_6*%
%TO.N,/ESP13*%
X106580000Y-71525000D03*
%TO.P,U6,7,CS_7*%
%TO.N,/ESP10*%
X109120000Y-71525000D03*
%TD*%
D14*
%TO.P,U1,1,DM_1*%
%TO.N,unconnected-(U1-DM-Pad1)*%
X118525000Y-124000000D03*
%TO.P,U1,2,DP_2*%
%TO.N,unconnected-(U1-DP-Pad2)*%
X118525000Y-126000000D03*
%TO.P,U1,3,TX_3*%
%TO.N,/ESP32RX*%
X118525000Y-128000000D03*
%TO.P,U1,4,RX_4*%
%TO.N,/ESP32TX*%
X118525000Y-130000000D03*
%TO.P,U1,5,5V_5*%
%TO.N,unconnected-(U1-5V-Pad5)*%
X113925050Y-130000000D03*
%TO.P,U1,6,3V3_6*%
%TO.N,+5V*%
X113925050Y-128000000D03*
%TO.P,U1,7,PA9_7*%
%TO.N,unconnected-(U1-PA9-Pad7)*%
X113925050Y-126000000D03*
%TO.P,U1,8,GND_8*%
%TO.N,GND*%
X113925050Y-124000000D03*
%TD*%
D11*
%TO.P,R2,1*%
%TO.N,/SCL*%
X104675000Y-115000000D03*
%TO.P,R2,2*%
%TO.N,3V3*%
X106325000Y-115000000D03*
%TD*%
D15*
%TO.P,J1,1,Pin_1_1*%
%TO.N,+5V*%
X87580000Y-68000000D03*
D16*
%TO.P,J1,2,Pin_2_2*%
%TO.N,GND*%
X85040000Y-68000000D03*
%TO.P,J1,3,Pin_3_3*%
%TO.N,/SDA*%
X82500000Y-68000000D03*
%TO.P,J1,4,Pin_4_4*%
%TO.N,/SCL*%
X79960000Y-68000000D03*
%TO.P,J1,5,Pin_5_5*%
%TO.N,GND*%
X77420000Y-68000000D03*
%TD*%
D10*
%TO.P,U2,1,3V3_1*%
%TO.N,3V3*%
X101400000Y-79380000D03*
%TO.P,U2,2,3V3_2*%
X101400000Y-81920000D03*
%TO.P,U2,3,RST_3*%
%TO.N,unconnected-(U2-RST-Pad3)*%
X101400000Y-84460000D03*
%TO.P,U2,4,4_4*%
%TO.N,unconnected-(U2-Pad4)*%
X101400000Y-87000000D03*
%TO.P,U2,5,5_5*%
%TO.N,unconnected-(U2-Pad5)*%
X101400000Y-89540000D03*
%TO.P,U2,6,6_6*%
%TO.N,unconnected-(U2-Pad6)*%
X101400000Y-92080000D03*
%TO.P,U2,7,7_7*%
%TO.N,unconnected-(U2-Pad7)*%
X101400000Y-94620000D03*
%TO.P,U2,8,15_8*%
%TO.N,unconnected-(U2-15-Pad8)*%
X101400000Y-97160000D03*
%TO.P,U2,9,16_9*%
%TO.N,unconnected-(U2-16-Pad9)*%
X101400000Y-99700000D03*
%TO.P,U2,10,17_10*%
%TO.N,/ESP32TX*%
X101400000Y-102240000D03*
%TO.P,U2,11,18_11*%
%TO.N,/ESP32RX*%
X101400000Y-104780000D03*
%TO.P,U2,12,8_12*%
%TO.N,/SDA*%
X101400000Y-107320000D03*
%TO.P,U2,13,3_13*%
%TO.N,unconnected-(U2-3-Pad13)*%
X101400000Y-109860000D03*
%TO.P,U2,14,46_14*%
%TO.N,unconnected-(U2-46-Pad14)*%
X101400000Y-112400000D03*
%TO.P,U2,15,9_15*%
%TO.N,/SCL*%
X101400000Y-114940000D03*
%TO.P,U2,16,10_16*%
%TO.N,/ESP10*%
X101400000Y-117480000D03*
%TO.P,U2,17,11_17*%
%TO.N,/ESP11*%
X101400000Y-120020000D03*
%TO.P,U2,18,12_18*%
%TO.N,/ESP12*%
X101400000Y-122560000D03*
%TO.P,U2,19,13_19*%
%TO.N,/ESP13*%
X101400000Y-125100000D03*
%TO.P,U2,20,14_20*%
%TO.N,/ESP14*%
X101400000Y-127640000D03*
%TO.P,U2,21,5VIN_21*%
%TO.N,+5V*%
X101400000Y-130180000D03*
%TO.P,U2,22,GND_22*%
%TO.N,GND*%
X101400000Y-132720000D03*
%TO.P,U2,23,GND_23*%
X76000000Y-79380000D03*
%TO.P,U2,24,TX_24*%
%TO.N,unconnected-(U2-TX-Pad24)*%
X76000000Y-81920000D03*
%TO.P,U2,25,RX_25*%
%TO.N,unconnected-(U2-RX-Pad25)*%
X76000000Y-84460000D03*
%TO.P,U2,26,1_26*%
%TO.N,unconnected-(U2-1-Pad26)*%
X76000000Y-87000000D03*
%TO.P,U2,27,2_27*%
%TO.N,unconnected-(U2-2-Pad27)*%
X76000000Y-89540000D03*
%TO.P,U2,28,42_28*%
%TO.N,unconnected-(U2-42-Pad28)*%
X76000000Y-92080000D03*
%TO.P,U2,29,41_29*%
%TO.N,unconnected-(U2-41-Pad29)*%
X76000000Y-94620000D03*
%TO.P,U2,30,40_30*%
%TO.N,unconnected-(U2-40-Pad30)*%
X76000000Y-97160000D03*
%TO.P,U2,31,39_31*%
%TO.N,unconnected-(U2-39-Pad31)*%
X76000000Y-99700000D03*
%TO.P,U2,32,38_32*%
%TO.N,unconnected-(U2-38-Pad32)*%
X76000000Y-102240000D03*
%TO.P,U2,33,37_33*%
%TO.N,unconnected-(U2-37-Pad33)*%
X76000000Y-104780000D03*
%TO.P,U2,34,36_34*%
%TO.N,unconnected-(U2-36-Pad34)*%
X76000000Y-107320000D03*
%TO.P,U2,35,35_35*%
%TO.N,unconnected-(U2-Pad35)*%
X76000000Y-109860000D03*
%TO.P,U2,36,0_36*%
%TO.N,unconnected-(U2-0-Pad36)*%
X76000000Y-112400000D03*
%TO.P,U2,37,45_37*%
%TO.N,unconnected-(U2-45-Pad37)*%
X76000000Y-114940000D03*
%TO.P,U2,38,48_38*%
%TO.N,unconnected-(U2-48-Pad38)*%
X76000000Y-117480000D03*
%TO.P,U2,39,47_39*%
%TO.N,unconnected-(U2-47-Pad39)*%
X76000000Y-120020000D03*
%TO.P,U2,40,21_40*%
%TO.N,unconnected-(U2-21-Pad40)*%
X76000000Y-122560000D03*
%TO.P,U2,41,20_41*%
%TO.N,unconnected-(U2-20-Pad41)*%
X76000000Y-125100000D03*
%TO.P,U2,42,19_42*%
%TO.N,unconnected-(U2-19-Pad42)*%
X76000000Y-127640000D03*
%TO.P,U2,43,GND_43*%
%TO.N,GND*%
X76000000Y-130180000D03*
%TO.P,U2,44,GND_44*%
X76000000Y-132720000D03*
%TD*%
D17*
%TO.P,U3,1,VDD_1*%
%TO.N,+5V*%
X126262500Y-99512500D03*
%TO.P,U3,2,GND_2*%
%TO.N,GND*%
X126262500Y-96972500D03*
%TO.P,U3,3,TX/SCL_3*%
%TO.N,/SCL*%
X126262500Y-94432500D03*
%TO.P,U3,4,RX/SDA_4*%
%TO.N,/SDA*%
X126272500Y-91892500D03*
%TO.P,U3,5,RDY_5*%
%TO.N,unconnected-(U3-RDY-Pad5)*%
X126262500Y-89352500D03*
%TO.P,U3,6,PWM_6*%
%TO.N,unconnected-(U3-PWM-Pad6)*%
X126262500Y-86812500D03*
%TO.P,U3,7,SEL_7*%
%TO.N,GND*%
X126262500Y-84272500D03*
%TD*%
D18*
%TO.N,/ESP32TX*%
X107500000Y-102240000D03*
X116250000Y-130000000D03*
%TO.N,/ESP32RX*%
X116068647Y-127999999D03*
X106750000Y-103250000D03*
%TO.N,/SDA*%
X110243874Y-104750000D03*
%TO.N,+5V*%
X110750000Y-128000000D03*
%TO.N,GND*%
X111250000Y-124000000D03*
%TD*%
%TO.N,/SDA*%
D19*
X126272500Y-91892500D02*
X124642500Y-91892500D01*
X119250000Y-82250000D02*
X114710000Y-77710000D01*
X124642500Y-91892500D02*
X119250000Y-86500000D01*
X119250000Y-86500000D02*
X119250000Y-82250000D01*
X114710000Y-77710000D02*
X110630000Y-77710000D01*
%TO.N,/SCL*%
X110630000Y-80250000D02*
X116500000Y-80250000D01*
X118750000Y-86750000D02*
X123817500Y-91817500D01*
X116500000Y-80250000D02*
X118750000Y-82500000D01*
X118750000Y-82500000D02*
X118750000Y-86750000D01*
X123817500Y-91817500D02*
X123817500Y-94432500D01*
X104675000Y-112825000D02*
X112830000Y-104670000D01*
X118750000Y-104670000D02*
X112830000Y-104670000D01*
X126262500Y-94432500D02*
X123817500Y-94432500D01*
X123817500Y-94432500D02*
X122500000Y-95750000D01*
X122500000Y-95750000D02*
X122500000Y-102750000D01*
X120580000Y-104670000D02*
X118750000Y-104670000D01*
X122500000Y-102750000D02*
X120580000Y-104670000D01*
%TO.N,/ESP32TX*%
X116250000Y-130000000D02*
X118525000Y-130000000D01*
X101400000Y-102240000D02*
X107500000Y-102240000D01*
%TO.N,/ESP32RX*%
X104750000Y-103250000D02*
X106750000Y-103250000D01*
X118525000Y-128000000D02*
X116068647Y-127999999D01*
X103220000Y-104780000D02*
X104750000Y-103250000D01*
X101400000Y-104780000D02*
X103220000Y-104780000D01*
%TO.N,/SDA*%
X82500000Y-71750000D02*
X82500000Y-68000000D01*
X104750000Y-76750000D02*
X87500000Y-76750000D01*
X110630000Y-77710000D02*
X105710000Y-77710000D01*
X104675000Y-107250000D02*
X107175000Y-104750000D01*
X104605000Y-107320000D02*
X104675000Y-107250000D01*
X105710000Y-77710000D02*
X104750000Y-76750000D01*
X107175000Y-104750000D02*
X110243874Y-104750000D01*
X87500000Y-76750000D02*
X82500000Y-71750000D01*
X101400000Y-107320000D02*
X104605000Y-107320000D01*
%TO.N,/SCL*%
X104615000Y-114940000D02*
X104675000Y-115000000D01*
%TO.N,3V3*%
X118827500Y-94432500D02*
X118750000Y-94510000D01*
%TO.N,/SCL*%
X79960000Y-70210000D02*
X87000000Y-77250000D01*
X79960000Y-68000000D02*
X79960000Y-70210000D01*
X104250000Y-77250000D02*
X107250000Y-80250000D01*
X101400000Y-114940000D02*
X104615000Y-114940000D01*
X107250000Y-80250000D02*
X110630000Y-80250000D01*
X104675000Y-115000000D02*
X104675000Y-112825000D01*
X87000000Y-77250000D02*
X104250000Y-77250000D01*
%TO.N,+5V*%
X113925050Y-128000000D02*
X110750000Y-128000000D01*
%TO.N,GND*%
X113925050Y-124000000D02*
X111250000Y-124000000D01*
%TD*%
%TA.AperFunction,Conductor*%
%TO.N,3V3*%
G36*
X128442539Y-65520185D02*
G01*
X128488294Y-65572989D01*
X128499500Y-65624500D01*
X128499500Y-134375500D01*
X128479815Y-134442539D01*
X128427011Y-134488294D01*
X128375500Y-134499500D01*
X101885494Y-134499500D01*
X101818455Y-134479815D01*
X101772700Y-134427011D01*
X101762756Y-134357853D01*
X101791781Y-134294297D01*
X101847175Y-134257569D01*
X102014379Y-134203241D01*
X102238845Y-134088870D01*
X102442656Y-133940793D01*
X102620793Y-133762656D01*
X102768870Y-133558845D01*
X102883241Y-133334379D01*
X102961090Y-133094785D01*
X103000500Y-132845962D01*
X103000500Y-132594038D01*
X102961090Y-132345215D01*
X102883241Y-132105621D01*
X102883239Y-132105618D01*
X102883239Y-132105616D01*
X102841747Y-132024184D01*
X102768870Y-131881155D01*
X102706179Y-131794868D01*
X102620798Y-131677350D01*
X102620794Y-131677345D01*
X102481130Y-131537681D01*
X102447645Y-131476358D01*
X102452629Y-131406666D01*
X102481130Y-131362319D01*
X102620793Y-131222656D01*
X102768870Y-131018845D01*
X102883241Y-130794379D01*
X102961090Y-130554785D01*
X103000500Y-130305962D01*
X103000500Y-130054038D01*
X102961090Y-129805215D01*
X102883241Y-129565621D01*
X102883239Y-129565618D01*
X102883239Y-129565616D01*
X102823066Y-129447521D01*
X102768870Y-129341155D01*
X102688303Y-129230264D01*
X102620798Y-129137350D01*
X102620794Y-129137345D01*
X102481130Y-128997681D01*
X102447645Y-128936358D01*
X102452629Y-128866666D01*
X102481130Y-128822319D01*
X102533715Y-128769734D01*
X102620793Y-128682656D01*
X102768870Y-128478845D01*
X102883241Y-128254379D01*
X102961090Y-128014785D01*
X102975920Y-127921153D01*
X109949500Y-127921153D01*
X109949500Y-128078846D01*
X109980261Y-128233489D01*
X109980264Y-128233501D01*
X110040602Y-128379172D01*
X110040609Y-128379185D01*
X110128210Y-128510288D01*
X110128213Y-128510292D01*
X110239707Y-128621786D01*
X110239711Y-128621789D01*
X110370814Y-128709390D01*
X110370827Y-128709397D01*
X110516496Y-128769734D01*
X110516503Y-128769737D01*
X110671148Y-128800498D01*
X110671153Y-128800499D01*
X110671156Y-128800500D01*
X110671158Y-128800500D01*
X110828844Y-128800500D01*
X110828845Y-128800499D01*
X110983497Y-128769737D01*
X111129179Y-128709394D01*
X111186044Y-128671397D01*
X111252721Y-128650520D01*
X111254935Y-128650500D01*
X112291617Y-128650500D01*
X112358656Y-128670185D01*
X112390879Y-128700184D01*
X112467504Y-128802542D01*
X112467505Y-128802542D01*
X112467506Y-128802544D01*
X112582717Y-128888791D01*
X112587071Y-128891169D01*
X112636475Y-128940575D01*
X112651326Y-129008849D01*
X112626908Y-129074313D01*
X112587071Y-129108831D01*
X112582717Y-129111208D01*
X112467505Y-129197456D01*
X112467502Y-129197459D01*
X112381256Y-129312668D01*
X112381252Y-129312675D01*
X112330958Y-129447521D01*
X112324551Y-129507120D01*
X112324551Y-129507127D01*
X112324550Y-129507139D01*
X112324550Y-130492866D01*
X112324551Y-130492872D01*
X112330958Y-130552479D01*
X112381252Y-130687324D01*
X112381256Y-130687331D01*
X112467502Y-130802540D01*
X112467505Y-130802543D01*
X112582714Y-130888789D01*
X112582721Y-130888793D01*
X112717567Y-130939087D01*
X112717566Y-130939087D01*
X112724494Y-130939831D01*
X112777177Y-130945496D01*
X115072922Y-130945495D01*
X115132533Y-130939087D01*
X115267381Y-130888792D01*
X115382596Y-130802542D01*
X115468846Y-130687327D01*
X115492803Y-130623092D01*
X115534673Y-130567160D01*
X115600137Y-130542742D01*
X115668410Y-130557593D01*
X115696666Y-130578745D01*
X115739707Y-130621786D01*
X115739711Y-130621789D01*
X115870814Y-130709390D01*
X115870827Y-130709397D01*
X115955186Y-130744339D01*
X116016503Y-130769737D01*
X116140386Y-130794379D01*
X116171153Y-130800499D01*
X116171156Y-130800500D01*
X116171158Y-130800500D01*
X116328844Y-130800500D01*
X116328845Y-130800499D01*
X116483497Y-130769737D01*
X116629179Y-130709394D01*
X116686044Y-130671397D01*
X116704091Y-130665746D01*
X116720000Y-130655523D01*
X116750959Y-130651071D01*
X116752721Y-130650520D01*
X116754935Y-130650500D01*
X116891567Y-130650500D01*
X116958606Y-130670185D01*
X116990829Y-130700184D01*
X117067454Y-130802542D01*
X117067455Y-130802542D01*
X117067456Y-130802544D01*
X117182664Y-130888789D01*
X117182671Y-130888793D01*
X117317517Y-130939087D01*
X117317516Y-130939087D01*
X117324444Y-130939831D01*
X117377127Y-130945496D01*
X119672872Y-130945495D01*
X119732483Y-130939087D01*
X119867331Y-130888792D01*
X119982546Y-130802542D01*
X120068796Y-130687327D01*
X120119091Y-130552479D01*
X120125500Y-130492869D01*
X120125499Y-129507132D01*
X120119091Y-129447521D01*
X120109294Y-129421255D01*
X120068797Y-129312675D01*
X120068793Y-129312668D01*
X119982547Y-129197459D01*
X119982544Y-129197456D01*
X119867333Y-129111209D01*
X119862982Y-129108833D01*
X119813576Y-129059428D01*
X119798723Y-128991156D01*
X119823139Y-128925691D01*
X119862982Y-128891167D01*
X119867325Y-128888793D01*
X119867331Y-128888792D01*
X119982546Y-128802542D01*
X120068796Y-128687327D01*
X120119091Y-128552479D01*
X120125500Y-128492869D01*
X120125499Y-127507132D01*
X120119091Y-127447521D01*
X120079615Y-127341681D01*
X120068797Y-127312675D01*
X120068793Y-127312668D01*
X119982547Y-127197459D01*
X119982544Y-127197456D01*
X119867333Y-127111209D01*
X119862982Y-127108833D01*
X119813576Y-127059428D01*
X119798723Y-126991156D01*
X119823139Y-126925691D01*
X119862982Y-126891167D01*
X119867325Y-126888793D01*
X119867331Y-126888792D01*
X119982546Y-126802542D01*
X120068796Y-126687327D01*
X120119091Y-126552479D01*
X120125500Y-126492869D01*
X120125499Y-125507132D01*
X120119091Y-125447521D01*
X120068796Y-125312673D01*
X120068795Y-125312672D01*
X120068793Y-125312668D01*
X119982547Y-125197459D01*
X119982544Y-125197456D01*
X119867333Y-125111209D01*
X119862982Y-125108833D01*
X119813576Y-125059428D01*
X119798723Y-124991156D01*
X119823139Y-124925691D01*
X119862982Y-124891167D01*
X119867325Y-124888793D01*
X119867331Y-124888792D01*
X119982546Y-124802542D01*
X120068796Y-124687327D01*
X120119091Y-124552479D01*
X120125500Y-124492869D01*
X120125499Y-123507132D01*
X120119091Y-123447521D01*
X120068796Y-123312673D01*
X120068795Y-123312672D01*
X120068793Y-123312668D01*
X119982547Y-123197459D01*
X119982544Y-123197456D01*
X119867335Y-123111210D01*
X119867328Y-123111206D01*
X119732482Y-123060912D01*
X119732483Y-123060912D01*
X119672883Y-123054505D01*
X119672881Y-123054504D01*
X119672873Y-123054504D01*
X119672864Y-123054504D01*
X117377129Y-123054504D01*
X117377123Y-123054505D01*
X117317516Y-123060912D01*
X117182671Y-123111206D01*
X117182664Y-123111210D01*
X117067455Y-123197456D01*
X117067452Y-123197459D01*
X116981206Y-123312668D01*
X116981202Y-123312675D01*
X116930908Y-123447521D01*
X116924999Y-123502486D01*
X116924501Y-123507127D01*
X116924500Y-123507139D01*
X116924500Y-124492866D01*
X116924501Y-124492872D01*
X116930908Y-124552479D01*
X116981202Y-124687324D01*
X116981206Y-124687331D01*
X117067452Y-124802540D01*
X117067455Y-124802543D01*
X117182667Y-124888791D01*
X117187021Y-124891169D01*
X117236425Y-124940575D01*
X117251276Y-125008849D01*
X117226858Y-125074313D01*
X117187021Y-125108831D01*
X117182667Y-125111208D01*
X117067455Y-125197456D01*
X117067452Y-125197459D01*
X116981206Y-125312668D01*
X116981202Y-125312675D01*
X116930908Y-125447521D01*
X116924501Y-125507120D01*
X116924501Y-125507127D01*
X116924500Y-125507139D01*
X116924500Y-126492866D01*
X116924501Y-126492872D01*
X116930908Y-126552479D01*
X116981202Y-126687324D01*
X116981206Y-126687331D01*
X117067452Y-126802540D01*
X117067455Y-126802543D01*
X117182667Y-126888791D01*
X117187021Y-126891169D01*
X117236425Y-126940575D01*
X117251276Y-127008849D01*
X117226858Y-127074313D01*
X117187021Y-127108831D01*
X117182667Y-127111208D01*
X117067456Y-127197456D01*
X117067455Y-127197457D01*
X117067454Y-127197458D01*
X116990832Y-127299811D01*
X116934900Y-127341681D01*
X116891567Y-127349499D01*
X116573582Y-127349499D01*
X116506543Y-127329814D01*
X116504692Y-127328602D01*
X116447826Y-127290605D01*
X116447819Y-127290601D01*
X116302148Y-127230263D01*
X116302136Y-127230260D01*
X116147492Y-127199499D01*
X116147489Y-127199499D01*
X115989805Y-127199499D01*
X115989802Y-127199499D01*
X115835157Y-127230260D01*
X115835145Y-127230263D01*
X115689474Y-127290601D01*
X115689463Y-127290607D01*
X115629116Y-127330930D01*
X115562439Y-127351807D01*
X115495059Y-127333322D01*
X115460959Y-127302138D01*
X115382596Y-127197458D01*
X115344479Y-127168923D01*
X115267383Y-127111209D01*
X115263032Y-127108833D01*
X115213626Y-127059428D01*
X115198773Y-126991156D01*
X115223189Y-126925691D01*
X115263032Y-126891167D01*
X115267375Y-126888793D01*
X115267381Y-126888792D01*
X115382596Y-126802542D01*
X115468846Y-126687327D01*
X115519141Y-126552479D01*
X115525550Y-126492869D01*
X115525549Y-125507132D01*
X115519141Y-125447521D01*
X115468846Y-125312673D01*
X115468845Y-125312672D01*
X115468843Y-125312668D01*
X115382597Y-125197459D01*
X115382594Y-125197456D01*
X115267383Y-125111209D01*
X115263032Y-125108833D01*
X115213626Y-125059428D01*
X115198773Y-124991156D01*
X115223189Y-124925691D01*
X115263032Y-124891167D01*
X115267375Y-124888793D01*
X115267381Y-124888792D01*
X115382596Y-124802542D01*
X115468846Y-124687327D01*
X115519141Y-124552479D01*
X115525550Y-124492869D01*
X115525549Y-123507132D01*
X115519141Y-123447521D01*
X115468846Y-123312673D01*
X115468845Y-123312672D01*
X115468843Y-123312668D01*
X115382597Y-123197459D01*
X115382594Y-123197456D01*
X115267385Y-123111210D01*
X115267378Y-123111206D01*
X115132532Y-123060912D01*
X115132533Y-123060912D01*
X115072933Y-123054505D01*
X115072931Y-123054504D01*
X115072923Y-123054504D01*
X115072914Y-123054504D01*
X112777179Y-123054504D01*
X112777173Y-123054505D01*
X112717566Y-123060912D01*
X112582721Y-123111206D01*
X112582714Y-123111210D01*
X112467506Y-123197455D01*
X112467504Y-123197458D01*
X112390880Y-123299813D01*
X112334950Y-123341682D01*
X112291617Y-123349500D01*
X111754935Y-123349500D01*
X111687896Y-123329815D01*
X111686090Y-123328633D01*
X111629179Y-123290606D01*
X111629172Y-123290602D01*
X111483501Y-123230264D01*
X111483489Y-123230261D01*
X111328845Y-123199500D01*
X111328842Y-123199500D01*
X111171158Y-123199500D01*
X111171155Y-123199500D01*
X111016510Y-123230261D01*
X111016498Y-123230264D01*
X110870827Y-123290602D01*
X110870814Y-123290609D01*
X110739711Y-123378210D01*
X110739707Y-123378213D01*
X110628213Y-123489707D01*
X110628210Y-123489711D01*
X110540609Y-123620814D01*
X110540602Y-123620827D01*
X110480264Y-123766498D01*
X110480261Y-123766510D01*
X110449500Y-123921153D01*
X110449500Y-124078846D01*
X110480261Y-124233489D01*
X110480264Y-124233501D01*
X110540602Y-124379172D01*
X110540609Y-124379185D01*
X110628210Y-124510288D01*
X110628213Y-124510292D01*
X110739707Y-124621786D01*
X110739711Y-124621789D01*
X110870814Y-124709390D01*
X110870827Y-124709397D01*
X111016498Y-124769735D01*
X111016503Y-124769737D01*
X111171153Y-124800499D01*
X111171156Y-124800500D01*
X111171158Y-124800500D01*
X111328844Y-124800500D01*
X111328845Y-124800499D01*
X111483497Y-124769737D01*
X111629179Y-124709394D01*
X111686044Y-124671397D01*
X111752721Y-124650520D01*
X111754935Y-124650500D01*
X112291617Y-124650500D01*
X112358656Y-124670185D01*
X112390879Y-124700184D01*
X112467504Y-124802542D01*
X112467505Y-124802542D01*
X112467506Y-124802544D01*
X112582717Y-124888791D01*
X112587071Y-124891169D01*
X112636475Y-124940575D01*
X112651326Y-125008849D01*
X112626908Y-125074313D01*
X112587071Y-125108831D01*
X112582717Y-125111208D01*
X112467505Y-125197456D01*
X112467502Y-125197459D01*
X112381256Y-125312668D01*
X112381252Y-125312675D01*
X112330958Y-125447521D01*
X112324551Y-125507120D01*
X112324551Y-125507127D01*
X112324550Y-125507139D01*
X112324550Y-126492866D01*
X112324551Y-126492872D01*
X112330958Y-126552479D01*
X112381252Y-126687324D01*
X112381256Y-126687331D01*
X112467502Y-126802540D01*
X112467505Y-126802543D01*
X112582717Y-126888791D01*
X112587071Y-126891169D01*
X112636475Y-126940575D01*
X112651326Y-127008849D01*
X112626908Y-127074313D01*
X112587071Y-127108831D01*
X112582717Y-127111208D01*
X112467506Y-127197455D01*
X112467504Y-127197458D01*
X112390880Y-127299813D01*
X112334950Y-127341682D01*
X112291617Y-127349500D01*
X111254935Y-127349500D01*
X111187896Y-127329815D01*
X111186090Y-127328633D01*
X111129179Y-127290606D01*
X111129177Y-127290605D01*
X111129172Y-127290602D01*
X110983501Y-127230264D01*
X110983489Y-127230261D01*
X110828845Y-127199500D01*
X110828842Y-127199500D01*
X110671158Y-127199500D01*
X110671155Y-127199500D01*
X110516510Y-127230261D01*
X110516498Y-127230264D01*
X110370827Y-127290602D01*
X110370814Y-127290609D01*
X110239711Y-127378210D01*
X110239707Y-127378213D01*
X110128213Y-127489707D01*
X110128210Y-127489711D01*
X110040609Y-127620814D01*
X110040602Y-127620827D01*
X109980264Y-127766498D01*
X109980261Y-127766510D01*
X109949500Y-127921153D01*
X102975920Y-127921153D01*
X103000500Y-127765962D01*
X103000500Y-127514038D01*
X102961090Y-127265215D01*
X102883241Y-127025621D01*
X102883239Y-127025618D01*
X102883239Y-127025616D01*
X102813523Y-126888792D01*
X102768870Y-126801155D01*
X102706179Y-126714868D01*
X102620798Y-126597350D01*
X102620794Y-126597345D01*
X102481130Y-126457681D01*
X102447645Y-126396358D01*
X102452629Y-126326666D01*
X102481130Y-126282319D01*
X102620793Y-126142656D01*
X102768870Y-125938845D01*
X102883241Y-125714379D01*
X102961090Y-125474785D01*
X103000500Y-125225962D01*
X103000500Y-124974038D01*
X102961090Y-124725215D01*
X102883241Y-124485621D01*
X102883239Y-124485618D01*
X102883239Y-124485616D01*
X102829006Y-124379179D01*
X102768870Y-124261155D01*
X102706179Y-124174868D01*
X102620798Y-124057350D01*
X102620794Y-124057345D01*
X102481130Y-123917681D01*
X102447645Y-123856358D01*
X102452629Y-123786666D01*
X102481130Y-123742319D01*
X102620793Y-123602656D01*
X102768870Y-123398845D01*
X102883241Y-123174379D01*
X102961090Y-122934785D01*
X103000500Y-122685962D01*
X103000500Y-122434038D01*
X102961090Y-122185215D01*
X102883241Y-121945621D01*
X102883239Y-121945618D01*
X102883239Y-121945616D01*
X102841747Y-121864184D01*
X102768870Y-121721155D01*
X102706179Y-121634868D01*
X102620798Y-121517350D01*
X102620794Y-121517345D01*
X102481130Y-121377681D01*
X102447645Y-121316358D01*
X102452629Y-121246666D01*
X102481130Y-121202319D01*
X102620793Y-121062656D01*
X102768870Y-120858845D01*
X102883241Y-120634379D01*
X102961090Y-120394785D01*
X103000500Y-120145962D01*
X103000500Y-119894038D01*
X102961090Y-119645215D01*
X102883241Y-119405621D01*
X102883239Y-119405618D01*
X102883239Y-119405616D01*
X102841747Y-119324184D01*
X102768870Y-119181155D01*
X102706179Y-119094868D01*
X102620798Y-118977350D01*
X102620794Y-118977345D01*
X102481130Y-118837681D01*
X102447645Y-118776358D01*
X102452629Y-118706666D01*
X102481130Y-118662319D01*
X102620793Y-118522656D01*
X102768870Y-118318845D01*
X102883241Y-118094379D01*
X102961090Y-117854785D01*
X103000500Y-117605962D01*
X103000500Y-117354038D01*
X102961090Y-117105215D01*
X102883241Y-116865621D01*
X102883239Y-116865618D01*
X102883239Y-116865616D01*
X102841747Y-116784184D01*
X102768870Y-116641155D01*
X102706179Y-116554868D01*
X102620798Y-116437350D01*
X102620794Y-116437345D01*
X102481130Y-116297681D01*
X102447645Y-116236358D01*
X102452629Y-116166666D01*
X102481130Y-116122319D01*
X102620793Y-115982656D01*
X102768870Y-115778845D01*
X102830339Y-115658205D01*
X102878314Y-115607409D01*
X102940824Y-115590500D01*
X103777239Y-115590500D01*
X103844278Y-115610185D01*
X103883356Y-115650350D01*
X103919525Y-115710181D01*
X103919526Y-115710182D01*
X103919528Y-115710185D01*
X104039815Y-115830472D01*
X104185394Y-115918478D01*
X104347804Y-115969086D01*
X104418384Y-115975500D01*
X104418387Y-115975500D01*
X104931613Y-115975500D01*
X104931616Y-115975500D01*
X105002196Y-115969086D01*
X105164606Y-115918478D01*
X105310185Y-115830472D01*
X105412673Y-115727983D01*
X105473994Y-115694499D01*
X105543685Y-115699483D01*
X105588034Y-115727984D01*
X105690122Y-115830072D01*
X105835604Y-115918019D01*
X105835603Y-115918019D01*
X105997894Y-115968590D01*
X105997893Y-115968590D01*
X106068408Y-115974998D01*
X106068426Y-115974999D01*
X106575000Y-115974999D01*
X106581581Y-115974999D01*
X106652102Y-115968591D01*
X106652107Y-115968590D01*
X106814396Y-115918018D01*
X106959877Y-115830072D01*
X107080072Y-115709877D01*
X107168019Y-115564395D01*
X107218590Y-115402106D01*
X107225000Y-115331572D01*
X107225000Y-115250000D01*
X106575000Y-115250000D01*
X106575000Y-115974999D01*
X106068426Y-115974999D01*
X106074999Y-115974998D01*
X106075000Y-115974998D01*
X106075000Y-114750000D01*
X106575000Y-114750000D01*
X107224999Y-114750000D01*
X107224999Y-114668417D01*
X107218591Y-114597897D01*
X107218590Y-114597892D01*
X107168018Y-114435603D01*
X107080072Y-114290122D01*
X106959877Y-114169927D01*
X106814395Y-114081980D01*
X106814396Y-114081980D01*
X106652105Y-114031409D01*
X106652106Y-114031409D01*
X106581572Y-114025000D01*
X106575000Y-114025000D01*
X106575000Y-114750000D01*
X106075000Y-114750000D01*
X106075000Y-114025000D01*
X106074999Y-114024999D01*
X106068436Y-114025000D01*
X106068417Y-114025001D01*
X105997897Y-114031408D01*
X105997892Y-114031409D01*
X105835603Y-114081981D01*
X105690124Y-114169926D01*
X105588034Y-114272016D01*
X105580086Y-114276355D01*
X105574662Y-114283602D01*
X105549904Y-114292835D01*
X105526711Y-114305500D01*
X105517680Y-114304854D01*
X105509198Y-114308018D01*
X105483377Y-114302401D01*
X105457019Y-114300516D01*
X105447965Y-114294697D01*
X105440925Y-114293166D01*
X105412671Y-114272014D01*
X105361818Y-114221160D01*
X105328334Y-114159837D01*
X105325500Y-114133480D01*
X105325500Y-113145808D01*
X105345185Y-113078769D01*
X105361819Y-113058127D01*
X113063127Y-105356819D01*
X113124450Y-105323334D01*
X113150808Y-105320500D01*
X117209176Y-105320500D01*
X117276215Y-105340185D01*
X117319661Y-105388205D01*
X117381132Y-105508848D01*
X117529201Y-105712649D01*
X117529205Y-105712654D01*
X117668870Y-105852319D01*
X117702355Y-105913642D01*
X117697371Y-105983334D01*
X117668870Y-106027681D01*
X117529205Y-106167345D01*
X117529201Y-106167350D01*
X117381132Y-106371151D01*
X117266760Y-106595616D01*
X117188910Y-106835214D01*
X117153789Y-107056961D01*
X117149500Y-107084038D01*
X117149500Y-107335962D01*
X117175481Y-107500000D01*
X117188910Y-107584785D01*
X117266760Y-107824383D01*
X117381132Y-108048848D01*
X117529201Y-108252649D01*
X117529205Y-108252654D01*
X117707345Y-108430794D01*
X117707350Y-108430798D01*
X117911153Y-108578869D01*
X117937018Y-108592048D01*
X117968405Y-108614852D01*
X118579765Y-109226212D01*
X118537708Y-109237482D01*
X118412292Y-109309890D01*
X118309890Y-109412292D01*
X118237482Y-109537708D01*
X118226212Y-109579765D01*
X117455748Y-108809300D01*
X117455747Y-108809301D01*
X117381559Y-108911413D01*
X117267219Y-109135815D01*
X117189397Y-109375330D01*
X117150000Y-109624071D01*
X117150000Y-109875928D01*
X117189397Y-110124669D01*
X117267219Y-110364184D01*
X117381557Y-110588583D01*
X117455748Y-110690697D01*
X117455748Y-110690698D01*
X118226212Y-109920234D01*
X118237482Y-109962292D01*
X118309890Y-110087708D01*
X118412292Y-110190110D01*
X118537708Y-110262518D01*
X118579765Y-110273787D01*
X117809300Y-111044250D01*
X117911416Y-111118442D01*
X118135815Y-111232780D01*
X118375330Y-111310602D01*
X118624072Y-111350000D01*
X118875928Y-111350000D01*
X119124669Y-111310602D01*
X119364184Y-111232780D01*
X119588575Y-111118446D01*
X119588581Y-111118442D01*
X119690697Y-111044250D01*
X119690698Y-111044250D01*
X118920234Y-110273787D01*
X118962292Y-110262518D01*
X119087708Y-110190110D01*
X119190110Y-110087708D01*
X119262518Y-109962292D01*
X119273787Y-109920235D01*
X120044250Y-110690698D01*
X120044250Y-110690697D01*
X120118442Y-110588581D01*
X120118446Y-110588575D01*
X120232780Y-110364184D01*
X120310602Y-110124669D01*
X120350000Y-109875928D01*
X120350000Y-109624071D01*
X120310602Y-109375330D01*
X120232780Y-109135815D01*
X120118442Y-108911416D01*
X120044250Y-108809301D01*
X120044250Y-108809300D01*
X119273787Y-109579764D01*
X119262518Y-109537708D01*
X119190110Y-109412292D01*
X119087708Y-109309890D01*
X118962292Y-109237482D01*
X118920232Y-109226212D01*
X119531594Y-108614851D01*
X119562975Y-108592051D01*
X119588845Y-108578870D01*
X119792656Y-108430793D01*
X119970793Y-108252656D01*
X120118870Y-108048845D01*
X120233241Y-107824379D01*
X120311090Y-107584785D01*
X120350500Y-107335962D01*
X120350500Y-107084038D01*
X120311090Y-106835215D01*
X120233241Y-106595621D01*
X120233239Y-106595618D01*
X120233239Y-106595616D01*
X120174918Y-106481155D01*
X120118870Y-106371155D01*
X120099952Y-106345117D01*
X119970798Y-106167350D01*
X119970794Y-106167345D01*
X119831130Y-106027681D01*
X119797645Y-105966358D01*
X119802629Y-105896666D01*
X119831130Y-105852319D01*
X119862767Y-105820682D01*
X119970793Y-105712656D01*
X120118870Y-105508845D01*
X120180339Y-105388205D01*
X120228314Y-105337409D01*
X120290824Y-105320500D01*
X120644071Y-105320500D01*
X120728615Y-105303682D01*
X120769744Y-105295501D01*
X120888127Y-105246465D01*
X120994669Y-105175277D01*
X123005277Y-103164669D01*
X123076465Y-103058127D01*
X123125501Y-102939744D01*
X123131486Y-102909655D01*
X123150500Y-102814069D01*
X123150500Y-96070808D01*
X123170185Y-96003769D01*
X123186819Y-95983127D01*
X124050627Y-95119319D01*
X124111950Y-95085834D01*
X124138308Y-95083000D01*
X124946141Y-95083000D01*
X125013180Y-95102685D01*
X125056626Y-95150705D01*
X125064687Y-95166526D01*
X125194252Y-95344858D01*
X125194256Y-95344863D01*
X125350136Y-95500743D01*
X125350141Y-95500747D01*
X125489754Y-95602182D01*
X125532420Y-95657512D01*
X125538399Y-95727125D01*
X125505793Y-95788920D01*
X125489754Y-95802818D01*
X125350141Y-95904252D01*
X125350136Y-95904256D01*
X125194256Y-96060136D01*
X125194252Y-96060141D01*
X125064687Y-96238474D01*
X124964604Y-96434893D01*
X124964603Y-96434896D01*
X124896485Y-96644547D01*
X124862000Y-96862278D01*
X124862000Y-97082721D01*
X124896485Y-97300452D01*
X124964603Y-97510103D01*
X124964604Y-97510106D01*
X125064687Y-97706525D01*
X125194252Y-97884858D01*
X125194256Y-97884863D01*
X125350136Y-98040743D01*
X125350141Y-98040747D01*
X125489754Y-98142182D01*
X125532420Y-98197512D01*
X125538399Y-98267125D01*
X125505793Y-98328920D01*
X125489754Y-98342818D01*
X125350141Y-98444252D01*
X125350136Y-98444256D01*
X125194256Y-98600136D01*
X125194252Y-98600141D01*
X125064687Y-98778474D01*
X124964604Y-98974893D01*
X124964603Y-98974896D01*
X124896485Y-99184547D01*
X124862000Y-99402278D01*
X124862000Y-99622721D01*
X124896485Y-99840452D01*
X124964603Y-100050103D01*
X124964604Y-100050106D01*
X125032622Y-100183596D01*
X125043112Y-100204184D01*
X125064687Y-100246525D01*
X125194252Y-100424858D01*
X125194256Y-100424863D01*
X125350136Y-100580743D01*
X125350141Y-100580747D01*
X125478003Y-100673643D01*
X125528478Y-100710315D01*
X125628207Y-100761130D01*
X125724893Y-100810395D01*
X125724896Y-100810396D01*
X125829721Y-100844455D01*
X125934549Y-100878515D01*
X126152278Y-100913000D01*
X126152279Y-100913000D01*
X126372721Y-100913000D01*
X126372722Y-100913000D01*
X126590451Y-100878515D01*
X126800106Y-100810395D01*
X126996522Y-100710315D01*
X127174865Y-100580742D01*
X127330742Y-100424865D01*
X127460315Y-100246522D01*
X127560395Y-100050106D01*
X127628515Y-99840451D01*
X127663000Y-99622722D01*
X127663000Y-99402278D01*
X127628515Y-99184549D01*
X127581549Y-99040000D01*
X127560396Y-98974896D01*
X127560395Y-98974893D01*
X127502439Y-98861151D01*
X127460315Y-98778478D01*
X127438347Y-98748241D01*
X127330747Y-98600141D01*
X127330743Y-98600136D01*
X127174863Y-98444256D01*
X127174858Y-98444252D01*
X127035245Y-98342818D01*
X126992579Y-98287489D01*
X126986600Y-98217875D01*
X127019205Y-98156080D01*
X127035245Y-98142182D01*
X127174858Y-98040747D01*
X127174856Y-98040747D01*
X127174865Y-98040742D01*
X127330742Y-97884865D01*
X127460315Y-97706522D01*
X127560395Y-97510106D01*
X127628515Y-97300451D01*
X127663000Y-97082722D01*
X127663000Y-96862278D01*
X127628515Y-96644549D01*
X127594455Y-96539721D01*
X127560396Y-96434896D01*
X127560395Y-96434893D01*
X127502439Y-96321151D01*
X127460315Y-96238478D01*
X127438347Y-96208241D01*
X127330747Y-96060141D01*
X127330743Y-96060136D01*
X127174863Y-95904256D01*
X127174858Y-95904252D01*
X127035245Y-95802818D01*
X126992579Y-95747489D01*
X126986600Y-95677875D01*
X127019205Y-95616080D01*
X127035245Y-95602182D01*
X127174858Y-95500747D01*
X127174856Y-95500747D01*
X127174865Y-95500742D01*
X127330742Y-95344865D01*
X127460315Y-95166522D01*
X127560395Y-94970106D01*
X127628515Y-94760451D01*
X127663000Y-94542722D01*
X127663000Y-94322278D01*
X127628515Y-94104549D01*
X127581549Y-93960000D01*
X127560396Y-93894896D01*
X127560395Y-93894893D01*
X127494256Y-93765091D01*
X127460315Y-93698478D01*
X127430906Y-93658000D01*
X127330747Y-93520141D01*
X127330743Y-93520136D01*
X127174863Y-93364256D01*
X127174858Y-93364252D01*
X127040245Y-93266450D01*
X126997579Y-93211120D01*
X126991600Y-93141507D01*
X127024206Y-93079712D01*
X127040238Y-93065818D01*
X127184865Y-92960742D01*
X127340742Y-92804865D01*
X127470315Y-92626522D01*
X127570395Y-92430106D01*
X127638515Y-92220451D01*
X127673000Y-92002722D01*
X127673000Y-91782278D01*
X127638515Y-91564549D01*
X127570395Y-91354894D01*
X127570395Y-91354893D01*
X127512439Y-91241151D01*
X127470315Y-91158478D01*
X127448347Y-91128241D01*
X127340747Y-90980141D01*
X127340743Y-90980136D01*
X127184863Y-90824256D01*
X127184858Y-90824252D01*
X127040245Y-90719185D01*
X126997579Y-90663855D01*
X126991600Y-90594242D01*
X127024205Y-90532447D01*
X127040240Y-90518551D01*
X127174865Y-90420742D01*
X127330742Y-90264865D01*
X127460315Y-90086522D01*
X127560395Y-89890106D01*
X127628515Y-89680451D01*
X127663000Y-89462722D01*
X127663000Y-89242278D01*
X127628515Y-89024549D01*
X127560395Y-88814894D01*
X127560395Y-88814893D01*
X127502439Y-88701151D01*
X127460315Y-88618478D01*
X127438347Y-88588241D01*
X127330747Y-88440141D01*
X127330743Y-88440136D01*
X127174863Y-88284256D01*
X127174858Y-88284252D01*
X127035245Y-88182818D01*
X126992579Y-88127489D01*
X126986600Y-88057875D01*
X127019205Y-87996080D01*
X127035245Y-87982182D01*
X127174858Y-87880747D01*
X127174856Y-87880747D01*
X127174865Y-87880742D01*
X127330742Y-87724865D01*
X127460315Y-87546522D01*
X127560395Y-87350106D01*
X127628515Y-87140451D01*
X127663000Y-86922722D01*
X127663000Y-86702278D01*
X127628515Y-86484549D01*
X127560395Y-86274894D01*
X127560395Y-86274893D01*
X127502439Y-86161151D01*
X127460315Y-86078478D01*
X127438347Y-86048241D01*
X127330747Y-85900141D01*
X127330743Y-85900136D01*
X127174863Y-85744256D01*
X127174858Y-85744252D01*
X127035245Y-85642818D01*
X126992579Y-85587489D01*
X126986600Y-85517875D01*
X127019205Y-85456080D01*
X127035245Y-85442182D01*
X127174858Y-85340747D01*
X127174856Y-85340747D01*
X127174865Y-85340742D01*
X127330742Y-85184865D01*
X127460315Y-85006522D01*
X127560395Y-84810106D01*
X127628515Y-84600451D01*
X127663000Y-84382722D01*
X127663000Y-84162278D01*
X127628515Y-83944549D01*
X127560395Y-83734894D01*
X127560395Y-83734893D01*
X127506361Y-83628848D01*
X127460315Y-83538478D01*
X127438347Y-83508241D01*
X127330747Y-83360141D01*
X127330743Y-83360136D01*
X127174863Y-83204256D01*
X127174858Y-83204252D01*
X126996525Y-83074687D01*
X126996524Y-83074686D01*
X126996522Y-83074685D01*
X126933596Y-83042622D01*
X126800106Y-82974604D01*
X126800103Y-82974603D01*
X126590452Y-82906485D01*
X126472460Y-82887797D01*
X126372722Y-82872000D01*
X126152278Y-82872000D01*
X126079701Y-82883495D01*
X125934547Y-82906485D01*
X125724896Y-82974603D01*
X125724893Y-82974604D01*
X125528474Y-83074687D01*
X125350141Y-83204252D01*
X125350136Y-83204256D01*
X125194256Y-83360136D01*
X125194252Y-83360141D01*
X125064687Y-83538474D01*
X124964604Y-83734893D01*
X124964603Y-83734896D01*
X124896485Y-83944547D01*
X124862000Y-84162278D01*
X124862000Y-84382721D01*
X124896485Y-84600452D01*
X124964603Y-84810103D01*
X124964604Y-84810106D01*
X125005257Y-84889890D01*
X125057434Y-84992292D01*
X125064687Y-85006525D01*
X125194252Y-85184858D01*
X125194256Y-85184863D01*
X125350136Y-85340743D01*
X125350141Y-85340747D01*
X125489754Y-85442182D01*
X125532420Y-85497512D01*
X125538399Y-85567125D01*
X125505793Y-85628920D01*
X125489754Y-85642818D01*
X125350141Y-85744252D01*
X125350136Y-85744256D01*
X125194256Y-85900136D01*
X125194252Y-85900141D01*
X125064687Y-86078474D01*
X124964604Y-86274893D01*
X124964603Y-86274896D01*
X124896485Y-86484547D01*
X124862000Y-86702278D01*
X124862000Y-86922721D01*
X124896485Y-87140452D01*
X124964603Y-87350103D01*
X124964604Y-87350106D01*
X125064687Y-87546525D01*
X125194252Y-87724858D01*
X125194256Y-87724863D01*
X125350136Y-87880743D01*
X125350141Y-87880747D01*
X125489754Y-87982182D01*
X125532420Y-88037512D01*
X125538399Y-88107125D01*
X125505793Y-88168920D01*
X125489754Y-88182818D01*
X125350141Y-88284252D01*
X125350136Y-88284256D01*
X125194256Y-88440136D01*
X125194252Y-88440141D01*
X125064687Y-88618474D01*
X124964604Y-88814893D01*
X124964603Y-88814896D01*
X124896485Y-89024547D01*
X124862000Y-89242278D01*
X124862000Y-89462721D01*
X124896485Y-89680452D01*
X124964603Y-89890103D01*
X124964604Y-89890106D01*
X125064687Y-90086525D01*
X125194252Y-90264858D01*
X125194256Y-90264863D01*
X125350136Y-90420743D01*
X125350141Y-90420747D01*
X125494754Y-90525814D01*
X125537420Y-90581143D01*
X125543399Y-90650757D01*
X125510794Y-90712552D01*
X125494755Y-90726450D01*
X125360136Y-90824256D01*
X125204256Y-90980136D01*
X125204252Y-90980141D01*
X125074685Y-91158476D01*
X125069044Y-91169548D01*
X125021069Y-91220344D01*
X124953248Y-91237138D01*
X124887113Y-91214600D01*
X124870879Y-91200933D01*
X119936819Y-86266873D01*
X119903334Y-86205550D01*
X119900500Y-86179192D01*
X119900500Y-82185928D01*
X119875502Y-82060261D01*
X119875501Y-82060260D01*
X119875501Y-82060256D01*
X119830310Y-81951155D01*
X119826466Y-81941874D01*
X119755277Y-81835331D01*
X119755275Y-81835329D01*
X119755273Y-81835326D01*
X115124673Y-77204726D01*
X115124669Y-77204723D01*
X115018127Y-77133535D01*
X114899744Y-77084499D01*
X114899738Y-77084497D01*
X114774071Y-77059500D01*
X114774069Y-77059500D01*
X112170824Y-77059500D01*
X112103785Y-77039815D01*
X112060339Y-76991795D01*
X112049093Y-76969724D01*
X111998870Y-76871155D01*
X111979952Y-76845117D01*
X111850798Y-76667350D01*
X111850794Y-76667345D01*
X111711130Y-76527681D01*
X111677645Y-76466358D01*
X111682629Y-76396666D01*
X111711130Y-76352319D01*
X111850793Y-76212656D01*
X111998870Y-76008845D01*
X112113241Y-75784379D01*
X112191090Y-75544785D01*
X112230500Y-75295962D01*
X112230500Y-75044038D01*
X112191090Y-74795215D01*
X112113241Y-74555621D01*
X112113239Y-74555618D01*
X112113239Y-74555616D01*
X112071747Y-74474184D01*
X111998870Y-74331155D01*
X111979952Y-74305117D01*
X111850798Y-74127350D01*
X111850794Y-74127345D01*
X111672654Y-73949205D01*
X111672649Y-73949201D01*
X111468848Y-73801132D01*
X111468847Y-73801131D01*
X111468845Y-73801130D01*
X111398747Y-73765413D01*
X111244383Y-73686760D01*
X111004785Y-73608910D01*
X110755962Y-73569500D01*
X110504038Y-73569500D01*
X110379626Y-73589205D01*
X110255214Y-73608910D01*
X110015616Y-73686760D01*
X109791151Y-73801132D01*
X109587350Y-73949201D01*
X109587345Y-73949205D01*
X109409205Y-74127345D01*
X109409201Y-74127350D01*
X109261132Y-74331151D01*
X109146760Y-74555616D01*
X109068910Y-74795214D01*
X109029500Y-75044038D01*
X109029500Y-75295961D01*
X109068910Y-75544785D01*
X109146760Y-75784383D01*
X109261132Y-76008848D01*
X109409201Y-76212649D01*
X109409205Y-76212654D01*
X109548870Y-76352319D01*
X109582355Y-76413642D01*
X109577371Y-76483334D01*
X109548870Y-76527681D01*
X109409205Y-76667345D01*
X109409201Y-76667350D01*
X109261132Y-76871151D01*
X109199661Y-76991795D01*
X109151686Y-77042591D01*
X109089176Y-77059500D01*
X106030808Y-77059500D01*
X105963769Y-77039815D01*
X105943127Y-77023181D01*
X105164674Y-76244727D01*
X105164673Y-76244726D01*
X105164669Y-76244723D01*
X105058127Y-76173535D01*
X104939744Y-76124499D01*
X104939738Y-76124497D01*
X104814071Y-76099500D01*
X104814069Y-76099500D01*
X87820808Y-76099500D01*
X87753769Y-76079815D01*
X87733127Y-76063181D01*
X83186819Y-71516873D01*
X83153334Y-71455550D01*
X83150500Y-71429192D01*
X83150500Y-70712135D01*
X92529500Y-70712135D01*
X92529500Y-72337870D01*
X92529501Y-72337876D01*
X92535908Y-72397483D01*
X92586202Y-72532328D01*
X92586206Y-72532335D01*
X92672452Y-72647544D01*
X92672455Y-72647547D01*
X92787664Y-72733793D01*
X92787671Y-72733797D01*
X92922517Y-72784091D01*
X92922516Y-72784091D01*
X92929444Y-72784835D01*
X92982127Y-72790500D01*
X94777872Y-72790499D01*
X94837483Y-72784091D01*
X94972331Y-72733796D01*
X95087546Y-72647546D01*
X95173796Y-72532331D01*
X95224091Y-72397483D01*
X95230500Y-72337873D01*
X95230499Y-72331414D01*
X95234010Y-72317983D01*
X95247447Y-72295626D01*
X95257429Y-72271529D01*
X95265156Y-72266163D01*
X95270004Y-72258098D01*
X95293395Y-72246555D01*
X95314820Y-72231680D01*
X95326408Y-72230266D01*
X95332661Y-72227181D01*
X95342533Y-72228299D01*
X95363711Y-72225716D01*
X95365581Y-72225863D01*
X95928871Y-71662574D01*
X95944755Y-71721853D01*
X96011898Y-71838147D01*
X96106853Y-71933102D01*
X96223147Y-72000245D01*
X96282425Y-72016128D01*
X95719134Y-72579417D01*
X95756994Y-72606924D01*
X95934405Y-72697320D01*
X96123777Y-72758852D01*
X96320437Y-72790000D01*
X96519563Y-72790000D01*
X96716222Y-72758852D01*
X96905594Y-72697320D01*
X97083005Y-72606924D01*
X97120863Y-72579418D01*
X97120863Y-72579417D01*
X96557574Y-72016128D01*
X96616853Y-72000245D01*
X96733147Y-71933102D01*
X96828102Y-71838147D01*
X96895245Y-71721853D01*
X96911128Y-71662574D01*
X97474417Y-72225863D01*
X97474418Y-72225863D01*
X97501924Y-72188005D01*
X97579234Y-72036277D01*
X97627208Y-71985481D01*
X97695029Y-71968686D01*
X97761164Y-71991223D01*
X97800204Y-72036277D01*
X97877514Y-72188005D01*
X97877647Y-72188266D01*
X97994731Y-72349418D01*
X98135582Y-72490269D01*
X98296734Y-72607353D01*
X98473304Y-72697320D01*
X98474219Y-72697786D01*
X98663657Y-72759338D01*
X98663658Y-72759338D01*
X98663661Y-72759339D01*
X98860403Y-72790500D01*
X98860404Y-72790500D01*
X99059596Y-72790500D01*
X99059597Y-72790500D01*
X99256339Y-72759339D01*
X99256342Y-72759338D01*
X99256343Y-72759338D01*
X99445780Y-72697786D01*
X99445780Y-72697785D01*
X99445783Y-72697785D01*
X99623266Y-72607353D01*
X99784418Y-72490269D01*
X99925269Y-72349418D01*
X100042353Y-72188266D01*
X100119515Y-72036827D01*
X100167490Y-71986031D01*
X100235311Y-71969236D01*
X100301446Y-71991773D01*
X100340485Y-72036827D01*
X100417647Y-72188266D01*
X100534731Y-72349418D01*
X100675582Y-72490269D01*
X100836734Y-72607353D01*
X101013304Y-72697320D01*
X101014219Y-72697786D01*
X101203657Y-72759338D01*
X101203658Y-72759338D01*
X101203661Y-72759339D01*
X101400403Y-72790500D01*
X101400404Y-72790500D01*
X101599596Y-72790500D01*
X101599597Y-72790500D01*
X101796339Y-72759339D01*
X101796342Y-72759338D01*
X101796343Y-72759338D01*
X101985780Y-72697786D01*
X101985780Y-72697785D01*
X101985783Y-72697785D01*
X102163266Y-72607353D01*
X102324418Y-72490269D01*
X102465269Y-72349418D01*
X102582353Y-72188266D01*
X102659515Y-72036827D01*
X102707490Y-71986031D01*
X102775311Y-71969236D01*
X102841446Y-71991773D01*
X102880485Y-72036827D01*
X102957647Y-72188266D01*
X103074731Y-72349418D01*
X103215582Y-72490269D01*
X103376734Y-72607353D01*
X103553304Y-72697320D01*
X103554219Y-72697786D01*
X103743657Y-72759338D01*
X103743658Y-72759338D01*
X103743661Y-72759339D01*
X103940403Y-72790500D01*
X103940404Y-72790500D01*
X104139596Y-72790500D01*
X104139597Y-72790500D01*
X104336339Y-72759339D01*
X104336342Y-72759338D01*
X104336343Y-72759338D01*
X104525780Y-72697786D01*
X104525780Y-72697785D01*
X104525783Y-72697785D01*
X104703266Y-72607353D01*
X104864418Y-72490269D01*
X105005269Y-72349418D01*
X105122353Y-72188266D01*
X105199515Y-72036827D01*
X105247490Y-71986031D01*
X105315311Y-71969236D01*
X105381446Y-71991773D01*
X105420485Y-72036827D01*
X105497647Y-72188266D01*
X105614731Y-72349418D01*
X105755582Y-72490269D01*
X105916734Y-72607353D01*
X106093304Y-72697320D01*
X106094219Y-72697786D01*
X106283657Y-72759338D01*
X106283658Y-72759338D01*
X106283661Y-72759339D01*
X106480403Y-72790500D01*
X106480404Y-72790500D01*
X106679596Y-72790500D01*
X106679597Y-72790500D01*
X106876339Y-72759339D01*
X106876342Y-72759338D01*
X106876343Y-72759338D01*
X107065780Y-72697786D01*
X107065780Y-72697785D01*
X107065783Y-72697785D01*
X107243266Y-72607353D01*
X107404418Y-72490269D01*
X107545269Y-72349418D01*
X107662353Y-72188266D01*
X107739515Y-72036827D01*
X107787490Y-71986031D01*
X107855311Y-71969236D01*
X107921446Y-71991773D01*
X107960485Y-72036827D01*
X108037647Y-72188266D01*
X108154731Y-72349418D01*
X108295582Y-72490269D01*
X108456734Y-72607353D01*
X108633304Y-72697320D01*
X108634219Y-72697786D01*
X108823657Y-72759338D01*
X108823658Y-72759338D01*
X108823661Y-72759339D01*
X109020403Y-72790500D01*
X109020404Y-72790500D01*
X109219596Y-72790500D01*
X109219597Y-72790500D01*
X109416339Y-72759339D01*
X109416342Y-72759338D01*
X109416343Y-72759338D01*
X109605780Y-72697786D01*
X109605780Y-72697785D01*
X109605783Y-72697785D01*
X109783266Y-72607353D01*
X109944418Y-72490269D01*
X110085269Y-72349418D01*
X110202353Y-72188266D01*
X110292785Y-72010783D01*
X110301006Y-71985481D01*
X110354338Y-71821343D01*
X110354338Y-71821342D01*
X110354339Y-71821339D01*
X110385500Y-71624597D01*
X110385500Y-71425403D01*
X110354339Y-71228661D01*
X110354338Y-71228657D01*
X110354338Y-71228656D01*
X110292786Y-71039219D01*
X110245916Y-70947231D01*
X110202353Y-70861734D01*
X110085269Y-70700582D01*
X109944418Y-70559731D01*
X109783266Y-70442647D01*
X109699064Y-70399744D01*
X109605780Y-70352213D01*
X109416342Y-70290661D01*
X109268782Y-70267290D01*
X109219597Y-70259500D01*
X109020403Y-70259500D01*
X108954822Y-70269887D01*
X108823659Y-70290661D01*
X108823656Y-70290661D01*
X108634219Y-70352213D01*
X108456733Y-70442647D01*
X108418286Y-70470581D01*
X108295582Y-70559731D01*
X108295580Y-70559733D01*
X108295579Y-70559733D01*
X108154733Y-70700579D01*
X108154733Y-70700580D01*
X108154731Y-70700582D01*
X108131893Y-70732016D01*
X108037647Y-70861733D01*
X107960485Y-71013172D01*
X107912510Y-71063968D01*
X107844689Y-71080763D01*
X107778554Y-71058225D01*
X107739515Y-71013172D01*
X107697877Y-70931453D01*
X107662353Y-70861734D01*
X107545269Y-70700582D01*
X107404418Y-70559731D01*
X107243266Y-70442647D01*
X107159064Y-70399744D01*
X107065780Y-70352213D01*
X106876342Y-70290661D01*
X106728782Y-70267290D01*
X106679597Y-70259500D01*
X106480403Y-70259500D01*
X106414822Y-70269887D01*
X106283659Y-70290661D01*
X106283656Y-70290661D01*
X106094219Y-70352213D01*
X105916733Y-70442647D01*
X105878286Y-70470581D01*
X105755582Y-70559731D01*
X105755580Y-70559733D01*
X105755579Y-70559733D01*
X105614733Y-70700579D01*
X105614733Y-70700580D01*
X105614731Y-70700582D01*
X105591893Y-70732016D01*
X105497647Y-70861733D01*
X105420485Y-71013172D01*
X105372510Y-71063968D01*
X105304689Y-71080763D01*
X105238554Y-71058225D01*
X105199515Y-71013172D01*
X105157877Y-70931453D01*
X105122353Y-70861734D01*
X105005269Y-70700582D01*
X104864418Y-70559731D01*
X104703266Y-70442647D01*
X104619064Y-70399744D01*
X104525780Y-70352213D01*
X104336342Y-70290661D01*
X104188782Y-70267290D01*
X104139597Y-70259500D01*
X103940403Y-70259500D01*
X103874822Y-70269887D01*
X103743659Y-70290661D01*
X103743656Y-70290661D01*
X103554219Y-70352213D01*
X103376733Y-70442647D01*
X103338286Y-70470581D01*
X103215582Y-70559731D01*
X103215580Y-70559733D01*
X103215579Y-70559733D01*
X103074733Y-70700579D01*
X103074733Y-70700580D01*
X103074731Y-70700582D01*
X103051893Y-70732016D01*
X102957647Y-70861733D01*
X102880485Y-71013172D01*
X102832510Y-71063968D01*
X102764689Y-71080763D01*
X102698554Y-71058225D01*
X102659515Y-71013172D01*
X102617877Y-70931453D01*
X102582353Y-70861734D01*
X102465269Y-70700582D01*
X102324418Y-70559731D01*
X102163266Y-70442647D01*
X102079064Y-70399744D01*
X101985780Y-70352213D01*
X101796342Y-70290661D01*
X101648782Y-70267290D01*
X101599597Y-70259500D01*
X101400403Y-70259500D01*
X101334822Y-70269887D01*
X101203659Y-70290661D01*
X101203656Y-70290661D01*
X101014219Y-70352213D01*
X100836733Y-70442647D01*
X100798286Y-70470581D01*
X100675582Y-70559731D01*
X100675580Y-70559733D01*
X100675579Y-70559733D01*
X100534733Y-70700579D01*
X100534733Y-70700580D01*
X100534731Y-70700582D01*
X100511893Y-70732016D01*
X100417647Y-70861733D01*
X100340485Y-71013172D01*
X100292510Y-71063968D01*
X100224689Y-71080763D01*
X100158554Y-71058225D01*
X100119515Y-71013172D01*
X100077877Y-70931453D01*
X100042353Y-70861734D01*
X99925269Y-70700582D01*
X99784418Y-70559731D01*
X99623266Y-70442647D01*
X99539064Y-70399744D01*
X99445780Y-70352213D01*
X99256342Y-70290661D01*
X99108782Y-70267290D01*
X99059597Y-70259500D01*
X98860403Y-70259500D01*
X98794822Y-70269887D01*
X98663659Y-70290661D01*
X98663656Y-70290661D01*
X98474219Y-70352213D01*
X98296733Y-70442647D01*
X98258286Y-70470581D01*
X98135582Y-70559731D01*
X98135580Y-70559733D01*
X98135579Y-70559733D01*
X97994733Y-70700579D01*
X97994733Y-70700580D01*
X97994731Y-70700582D01*
X97971893Y-70732016D01*
X97877645Y-70861735D01*
X97800203Y-71013723D01*
X97752229Y-71064518D01*
X97684408Y-71081313D01*
X97618273Y-71058775D01*
X97579234Y-71013722D01*
X97501924Y-70861994D01*
X97474417Y-70824135D01*
X97474417Y-70824134D01*
X96911128Y-71387424D01*
X96895245Y-71328147D01*
X96828102Y-71211853D01*
X96733147Y-71116898D01*
X96616853Y-71049755D01*
X96557574Y-71033871D01*
X97120864Y-70470581D01*
X97120863Y-70470580D01*
X97083008Y-70443077D01*
X96905594Y-70352679D01*
X96716222Y-70291147D01*
X96519563Y-70260000D01*
X96320437Y-70260000D01*
X96123777Y-70291147D01*
X95934405Y-70352679D01*
X95756990Y-70443077D01*
X95719135Y-70470580D01*
X95719135Y-70470581D01*
X96282425Y-71033871D01*
X96223147Y-71049755D01*
X96106853Y-71116898D01*
X96011898Y-71211853D01*
X95944755Y-71328147D01*
X95928871Y-71387425D01*
X95365580Y-70824134D01*
X95363709Y-70824282D01*
X95295332Y-70809917D01*
X95245576Y-70760866D01*
X95234010Y-70732016D01*
X95230499Y-70718580D01*
X95230499Y-70712128D01*
X95224091Y-70652517D01*
X95173967Y-70518127D01*
X95173798Y-70517673D01*
X95173793Y-70517664D01*
X95087547Y-70402455D01*
X95087544Y-70402452D01*
X94972335Y-70316206D01*
X94972328Y-70316202D01*
X94837482Y-70265908D01*
X94837483Y-70265908D01*
X94777883Y-70259501D01*
X94777881Y-70259500D01*
X94777873Y-70259500D01*
X94777864Y-70259500D01*
X92982129Y-70259500D01*
X92982123Y-70259501D01*
X92922516Y-70265908D01*
X92787671Y-70316202D01*
X92787664Y-70316206D01*
X92672455Y-70402452D01*
X92672452Y-70402455D01*
X92586206Y-70517664D01*
X92586202Y-70517671D01*
X92535908Y-70652517D01*
X92529501Y-70712116D01*
X92529500Y-70712135D01*
X83150500Y-70712135D01*
X83150500Y-69259617D01*
X83170185Y-69192578D01*
X83204592Y-69158902D01*
X83203874Y-69157914D01*
X83207811Y-69155053D01*
X83207816Y-69155051D01*
X83379792Y-69030104D01*
X83530104Y-68879792D01*
X83530106Y-68879788D01*
X83530109Y-68879786D01*
X83655048Y-68707820D01*
X83655047Y-68707820D01*
X83655051Y-68707816D01*
X83659514Y-68699054D01*
X83707488Y-68648259D01*
X83775308Y-68631463D01*
X83841444Y-68653999D01*
X83880486Y-68699056D01*
X83884951Y-68707820D01*
X84009890Y-68879786D01*
X84160213Y-69030109D01*
X84332179Y-69155048D01*
X84332181Y-69155049D01*
X84332184Y-69155051D01*
X84521588Y-69251557D01*
X84723757Y-69317246D01*
X84933713Y-69350500D01*
X84933714Y-69350500D01*
X85146286Y-69350500D01*
X85146287Y-69350500D01*
X85356243Y-69317246D01*
X85558412Y-69251557D01*
X85747816Y-69155051D01*
X85919792Y-69030104D01*
X86033329Y-68916566D01*
X86094648Y-68883084D01*
X86164340Y-68888068D01*
X86220274Y-68929939D01*
X86237189Y-68960917D01*
X86286202Y-69092328D01*
X86286206Y-69092335D01*
X86372452Y-69207544D01*
X86372455Y-69207547D01*
X86487664Y-69293793D01*
X86487671Y-69293797D01*
X86622517Y-69344091D01*
X86622516Y-69344091D01*
X86629444Y-69344835D01*
X86682127Y-69350500D01*
X88477872Y-69350499D01*
X88537483Y-69344091D01*
X88672331Y-69293796D01*
X88787546Y-69207546D01*
X88873796Y-69092331D01*
X88924091Y-68957483D01*
X88930500Y-68897873D01*
X88930499Y-67102128D01*
X88924091Y-67042517D01*
X88922810Y-67039083D01*
X88873797Y-66907671D01*
X88873793Y-66907664D01*
X88787547Y-66792455D01*
X88787544Y-66792452D01*
X88672335Y-66706206D01*
X88672328Y-66706202D01*
X88537482Y-66655908D01*
X88537483Y-66655908D01*
X88477883Y-66649501D01*
X88477881Y-66649500D01*
X88477873Y-66649500D01*
X88477864Y-66649500D01*
X86682129Y-66649500D01*
X86682123Y-66649501D01*
X86622516Y-66655908D01*
X86487671Y-66706202D01*
X86487664Y-66706206D01*
X86372455Y-66792452D01*
X86372452Y-66792455D01*
X86286206Y-66907664D01*
X86286203Y-66907669D01*
X86237189Y-67039083D01*
X86195317Y-67095016D01*
X86129853Y-67119433D01*
X86061580Y-67104581D01*
X86033326Y-67083430D01*
X85919786Y-66969890D01*
X85747820Y-66844951D01*
X85558414Y-66748444D01*
X85558413Y-66748443D01*
X85558412Y-66748443D01*
X85356243Y-66682754D01*
X85356241Y-66682753D01*
X85356240Y-66682753D01*
X85194957Y-66657208D01*
X85146287Y-66649500D01*
X84933713Y-66649500D01*
X84885042Y-66657208D01*
X84723760Y-66682753D01*
X84521585Y-66748444D01*
X84332179Y-66844951D01*
X84160213Y-66969890D01*
X84009890Y-67120213D01*
X83884949Y-67292182D01*
X83880484Y-67300946D01*
X83832509Y-67351742D01*
X83764688Y-67368536D01*
X83698553Y-67345998D01*
X83659516Y-67300946D01*
X83655050Y-67292182D01*
X83530109Y-67120213D01*
X83379786Y-66969890D01*
X83207820Y-66844951D01*
X83018414Y-66748444D01*
X83018413Y-66748443D01*
X83018412Y-66748443D01*
X82816243Y-66682754D01*
X82816241Y-66682753D01*
X82816240Y-66682753D01*
X82654957Y-66657208D01*
X82606287Y-66649500D01*
X82393713Y-66649500D01*
X82345042Y-66657208D01*
X82183760Y-66682753D01*
X81981585Y-66748444D01*
X81792179Y-66844951D01*
X81620213Y-66969890D01*
X81469890Y-67120213D01*
X81344949Y-67292182D01*
X81340484Y-67300946D01*
X81292509Y-67351742D01*
X81224688Y-67368536D01*
X81158553Y-67345998D01*
X81119516Y-67300946D01*
X81115050Y-67292182D01*
X80990109Y-67120213D01*
X80839786Y-66969890D01*
X80667820Y-66844951D01*
X80478414Y-66748444D01*
X80478413Y-66748443D01*
X80478412Y-66748443D01*
X80276243Y-66682754D01*
X80276241Y-66682753D01*
X80276240Y-66682753D01*
X80114957Y-66657208D01*
X80066287Y-66649500D01*
X79853713Y-66649500D01*
X79805042Y-66657208D01*
X79643760Y-66682753D01*
X79441585Y-66748444D01*
X79252179Y-66844951D01*
X79080213Y-66969890D01*
X78929890Y-67120213D01*
X78804949Y-67292182D01*
X78800484Y-67300946D01*
X78752509Y-67351742D01*
X78684688Y-67368536D01*
X78618553Y-67345998D01*
X78579516Y-67300946D01*
X78575050Y-67292182D01*
X78450109Y-67120213D01*
X78299786Y-66969890D01*
X78127820Y-66844951D01*
X77938414Y-66748444D01*
X77938413Y-66748443D01*
X77938412Y-66748443D01*
X77736243Y-66682754D01*
X77736241Y-66682753D01*
X77736240Y-66682753D01*
X77574957Y-66657208D01*
X77526287Y-66649500D01*
X77313713Y-66649500D01*
X77265042Y-66657208D01*
X77103760Y-66682753D01*
X76901585Y-66748444D01*
X76712179Y-66844951D01*
X76540213Y-66969890D01*
X76389890Y-67120213D01*
X76264951Y-67292179D01*
X76168444Y-67481585D01*
X76102753Y-67683760D01*
X76069500Y-67893713D01*
X76069500Y-68106286D01*
X76102753Y-68316239D01*
X76168444Y-68518414D01*
X76264951Y-68707820D01*
X76389890Y-68879786D01*
X76540213Y-69030109D01*
X76712179Y-69155048D01*
X76712181Y-69155049D01*
X76712184Y-69155051D01*
X76901588Y-69251557D01*
X77103757Y-69317246D01*
X77313713Y-69350500D01*
X77313714Y-69350500D01*
X77526286Y-69350500D01*
X77526287Y-69350500D01*
X77736243Y-69317246D01*
X77938412Y-69251557D01*
X78127816Y-69155051D01*
X78214138Y-69092335D01*
X78299786Y-69030109D01*
X78299788Y-69030106D01*
X78299792Y-69030104D01*
X78450104Y-68879792D01*
X78450106Y-68879788D01*
X78450109Y-68879786D01*
X78575048Y-68707820D01*
X78575047Y-68707820D01*
X78575051Y-68707816D01*
X78579514Y-68699054D01*
X78627488Y-68648259D01*
X78695308Y-68631463D01*
X78761444Y-68653999D01*
X78800486Y-68699056D01*
X78804951Y-68707820D01*
X78929890Y-68879786D01*
X78929896Y-68879792D01*
X79080208Y-69030104D01*
X79252184Y-69155051D01*
X79252188Y-69155053D01*
X79256126Y-69157914D01*
X79255146Y-69159262D01*
X79297160Y-69205690D01*
X79309500Y-69259617D01*
X79309500Y-70274070D01*
X79312897Y-70291147D01*
X79325045Y-70352215D01*
X79334499Y-70399744D01*
X79383535Y-70518127D01*
X79411335Y-70559733D01*
X79454726Y-70624673D01*
X86585327Y-77755274D01*
X86672416Y-77813465D01*
X86672417Y-77813465D01*
X86678932Y-77817818D01*
X86691872Y-77826465D01*
X86740908Y-77846776D01*
X86810256Y-77875501D01*
X86810260Y-77875501D01*
X86810261Y-77875502D01*
X86935928Y-77900500D01*
X86935931Y-77900500D01*
X100339738Y-77900500D01*
X100406777Y-77920185D01*
X100452532Y-77972989D01*
X100463356Y-78034229D01*
X100459301Y-78085749D01*
X101229765Y-78856212D01*
X101187708Y-78867482D01*
X101062292Y-78939890D01*
X100959890Y-79042292D01*
X100887482Y-79167708D01*
X100876212Y-79209765D01*
X100105748Y-78439300D01*
X100105747Y-78439301D01*
X100031559Y-78541413D01*
X99917219Y-78765815D01*
X99839397Y-79005330D01*
X99800000Y-79254071D01*
X99800000Y-79505928D01*
X99839397Y-79754669D01*
X99917219Y-79994184D01*
X100031557Y-80218583D01*
X100105748Y-80320697D01*
X100105748Y-80320698D01*
X100876212Y-79550234D01*
X100887482Y-79592292D01*
X100959890Y-79717708D01*
X101062292Y-79820110D01*
X101187708Y-79892518D01*
X101229765Y-79903787D01*
X100483553Y-80650000D01*
X101229765Y-81396212D01*
X101187708Y-81407482D01*
X101062292Y-81479890D01*
X100959890Y-81582292D01*
X100887482Y-81707708D01*
X100876212Y-81749765D01*
X100105748Y-80979300D01*
X100105747Y-80979301D01*
X100031559Y-81081413D01*
X99917219Y-81305815D01*
X99839397Y-81545330D01*
X99800000Y-81794071D01*
X99800000Y-82045928D01*
X99839397Y-82294669D01*
X99917219Y-82534184D01*
X100031557Y-82758583D01*
X100105748Y-82860697D01*
X100105748Y-82860698D01*
X100876212Y-82090234D01*
X100887482Y-82132292D01*
X100959890Y-82257708D01*
X101062292Y-82360110D01*
X101187708Y-82432518D01*
X101229765Y-82443787D01*
X100618404Y-83055147D01*
X100587023Y-83077948D01*
X100561152Y-83091131D01*
X100357350Y-83239201D01*
X100357345Y-83239205D01*
X100179205Y-83417345D01*
X100179201Y-83417350D01*
X100031132Y-83621151D01*
X99916760Y-83845616D01*
X99838910Y-84085214D01*
X99799500Y-84334038D01*
X99799500Y-84585961D01*
X99838910Y-84834785D01*
X99916760Y-85074383D01*
X100031132Y-85298848D01*
X100179201Y-85502649D01*
X100179205Y-85502654D01*
X100318870Y-85642319D01*
X100352355Y-85703642D01*
X100347371Y-85773334D01*
X100318870Y-85817681D01*
X100179205Y-85957345D01*
X100179201Y-85957350D01*
X100031132Y-86161151D01*
X99916760Y-86385616D01*
X99838910Y-86625214D01*
X99838910Y-86625215D01*
X99799500Y-86874038D01*
X99799500Y-87125962D01*
X99835001Y-87350103D01*
X99838910Y-87374785D01*
X99916760Y-87614383D01*
X100031132Y-87838848D01*
X100179201Y-88042649D01*
X100179205Y-88042654D01*
X100318870Y-88182319D01*
X100352355Y-88243642D01*
X100347371Y-88313334D01*
X100318870Y-88357681D01*
X100179205Y-88497345D01*
X100179201Y-88497350D01*
X100031132Y-88701151D01*
X99916760Y-88925616D01*
X99838910Y-89165214D01*
X99799500Y-89414038D01*
X99799500Y-89665961D01*
X99838910Y-89914785D01*
X99916760Y-90154383D01*
X100031132Y-90378848D01*
X100179201Y-90582649D01*
X100179205Y-90582654D01*
X100318870Y-90722319D01*
X100352355Y-90783642D01*
X100347371Y-90853334D01*
X100318870Y-90897681D01*
X100179205Y-91037345D01*
X100179201Y-91037350D01*
X100031132Y-91241151D01*
X99916760Y-91465616D01*
X99838910Y-91705214D01*
X99799500Y-91954038D01*
X99799500Y-92205961D01*
X99838910Y-92454785D01*
X99916760Y-92694383D01*
X99973053Y-92804863D01*
X100026623Y-92910000D01*
X100031132Y-92918848D01*
X100179201Y-93122649D01*
X100179205Y-93122654D01*
X100318870Y-93262319D01*
X100352355Y-93323642D01*
X100347371Y-93393334D01*
X100318870Y-93437681D01*
X100179205Y-93577345D01*
X100179201Y-93577350D01*
X100031132Y-93781151D01*
X99916760Y-94005616D01*
X99838910Y-94245214D01*
X99799500Y-94494038D01*
X99799500Y-94745961D01*
X99838910Y-94994785D01*
X99916760Y-95234383D01*
X99974949Y-95348583D01*
X100026978Y-95450697D01*
X100031132Y-95458848D01*
X100179201Y-95662649D01*
X100179205Y-95662654D01*
X100318870Y-95802319D01*
X100352355Y-95863642D01*
X100347371Y-95933334D01*
X100318870Y-95977681D01*
X100179205Y-96117345D01*
X100179201Y-96117350D01*
X100031132Y-96321151D01*
X99916760Y-96545616D01*
X99838910Y-96785214D01*
X99799500Y-97034038D01*
X99799500Y-97285961D01*
X99838910Y-97534785D01*
X99916760Y-97774383D01*
X100031132Y-97998848D01*
X100179201Y-98202649D01*
X100179205Y-98202654D01*
X100318870Y-98342319D01*
X100352355Y-98403642D01*
X100347371Y-98473334D01*
X100318870Y-98517681D01*
X100179205Y-98657345D01*
X100179201Y-98657350D01*
X100031132Y-98861151D01*
X99916760Y-99085616D01*
X99838910Y-99325214D01*
X99799500Y-99574038D01*
X99799500Y-99825961D01*
X99838910Y-100074785D01*
X99916760Y-100314383D01*
X99974949Y-100428583D01*
X100026978Y-100530697D01*
X100031132Y-100538848D01*
X100179201Y-100742649D01*
X100179205Y-100742654D01*
X100318870Y-100882319D01*
X100352355Y-100943642D01*
X100347371Y-101013334D01*
X100318870Y-101057681D01*
X100179205Y-101197345D01*
X100179201Y-101197350D01*
X100031132Y-101401151D01*
X99916760Y-101625616D01*
X99838910Y-101865214D01*
X99799500Y-102114038D01*
X99799500Y-102365961D01*
X99838910Y-102614785D01*
X99916760Y-102854383D01*
X99965173Y-102949397D01*
X100015285Y-103047748D01*
X100031132Y-103078848D01*
X100179201Y-103282649D01*
X100179205Y-103282654D01*
X100318870Y-103422319D01*
X100352355Y-103483642D01*
X100347371Y-103553334D01*
X100318870Y-103597681D01*
X100179205Y-103737345D01*
X100179201Y-103737350D01*
X100031132Y-103941151D01*
X99916760Y-104165616D01*
X99838910Y-104405214D01*
X99821282Y-104516510D01*
X99799500Y-104654038D01*
X99799500Y-104905962D01*
X99811781Y-104983501D01*
X99838910Y-105154785D01*
X99916760Y-105394383D01*
X100031132Y-105618848D01*
X100179201Y-105822649D01*
X100179205Y-105822654D01*
X100318870Y-105962319D01*
X100352355Y-106023642D01*
X100347371Y-106093334D01*
X100318870Y-106137681D01*
X100179205Y-106277345D01*
X100179201Y-106277350D01*
X100031132Y-106481151D01*
X99916760Y-106705616D01*
X99838910Y-106945214D01*
X99799500Y-107194038D01*
X99799500Y-107445961D01*
X99838910Y-107694785D01*
X99916760Y-107934383D01*
X100031132Y-108158848D01*
X100179201Y-108362649D01*
X100179205Y-108362654D01*
X100318870Y-108502319D01*
X100352355Y-108563642D01*
X100347371Y-108633334D01*
X100318870Y-108677681D01*
X100179205Y-108817345D01*
X100179201Y-108817350D01*
X100031132Y-109021151D01*
X99916760Y-109245616D01*
X99838910Y-109485214D01*
X99799500Y-109734038D01*
X99799500Y-109985961D01*
X99838910Y-110234785D01*
X99916760Y-110474383D01*
X99974949Y-110588583D01*
X100026978Y-110690697D01*
X100031132Y-110698848D01*
X100179201Y-110902649D01*
X100179205Y-110902654D01*
X100318870Y-111042319D01*
X100352355Y-111103642D01*
X100347371Y-111173334D01*
X100318870Y-111217681D01*
X100179205Y-111357345D01*
X100179201Y-111357350D01*
X100031132Y-111561151D01*
X99916760Y-111785616D01*
X99900500Y-111835660D01*
X99838910Y-112025215D01*
X99799500Y-112274038D01*
X99799500Y-112525962D01*
X99816811Y-112635256D01*
X99838910Y-112774785D01*
X99916760Y-113014383D01*
X100031132Y-113238848D01*
X100179201Y-113442649D01*
X100179205Y-113442654D01*
X100318870Y-113582319D01*
X100352355Y-113643642D01*
X100347371Y-113713334D01*
X100318870Y-113757681D01*
X100179205Y-113897345D01*
X100179201Y-113897350D01*
X100031132Y-114101151D01*
X99916760Y-114325616D01*
X99838910Y-114565214D01*
X99799500Y-114814038D01*
X99799500Y-115065961D01*
X99838910Y-115314785D01*
X99916760Y-115554383D01*
X100031132Y-115778848D01*
X100179201Y-115982649D01*
X100179205Y-115982654D01*
X100318870Y-116122319D01*
X100352355Y-116183642D01*
X100347371Y-116253334D01*
X100318870Y-116297681D01*
X100179205Y-116437345D01*
X100179201Y-116437350D01*
X100031132Y-116641151D01*
X99916760Y-116865616D01*
X99838910Y-117105214D01*
X99799500Y-117354038D01*
X99799500Y-117605961D01*
X99838910Y-117854785D01*
X99916760Y-118094383D01*
X100031132Y-118318848D01*
X100179201Y-118522649D01*
X100179205Y-118522654D01*
X100318870Y-118662319D01*
X100352355Y-118723642D01*
X100347371Y-118793334D01*
X100318870Y-118837681D01*
X100179205Y-118977345D01*
X100179201Y-118977350D01*
X100031132Y-119181151D01*
X99916760Y-119405616D01*
X99838910Y-119645214D01*
X99799500Y-119894038D01*
X99799500Y-120145961D01*
X99838910Y-120394785D01*
X99916760Y-120634383D01*
X100031132Y-120858848D01*
X100179201Y-121062649D01*
X100179205Y-121062654D01*
X100318870Y-121202319D01*
X100352355Y-121263642D01*
X100347371Y-121333334D01*
X100318870Y-121377681D01*
X100179205Y-121517345D01*
X100179201Y-121517350D01*
X100031132Y-121721151D01*
X99916760Y-121945616D01*
X99838910Y-122185214D01*
X99799500Y-122434038D01*
X99799500Y-122685961D01*
X99838910Y-122934785D01*
X99916760Y-123174383D01*
X99975981Y-123290609D01*
X100020617Y-123378213D01*
X100031132Y-123398848D01*
X100179201Y-123602649D01*
X100179205Y-123602654D01*
X100318870Y-123742319D01*
X100352355Y-123803642D01*
X100347371Y-123873334D01*
X100318870Y-123917681D01*
X100179205Y-124057345D01*
X100179201Y-124057350D01*
X100031132Y-124261151D01*
X99916760Y-124485616D01*
X99838910Y-124725214D01*
X99799500Y-124974038D01*
X99799500Y-125225961D01*
X99838910Y-125474785D01*
X99916760Y-125714383D01*
X100031132Y-125938848D01*
X100179201Y-126142649D01*
X100179205Y-126142654D01*
X100318870Y-126282319D01*
X100352355Y-126343642D01*
X100347371Y-126413334D01*
X100318870Y-126457681D01*
X100179205Y-126597345D01*
X100179201Y-126597350D01*
X100031132Y-126801151D01*
X99916760Y-127025616D01*
X99838910Y-127265214D01*
X99799500Y-127514038D01*
X99799500Y-127765961D01*
X99838910Y-128014785D01*
X99916760Y-128254383D01*
X100031132Y-128478848D01*
X100179201Y-128682649D01*
X100179205Y-128682654D01*
X100318870Y-128822319D01*
X100352355Y-128883642D01*
X100347371Y-128953334D01*
X100318870Y-128997681D01*
X100179205Y-129137345D01*
X100179201Y-129137350D01*
X100031132Y-129341151D01*
X99916760Y-129565616D01*
X99838910Y-129805214D01*
X99799500Y-130054038D01*
X99799500Y-130305961D01*
X99838910Y-130554785D01*
X99916760Y-130794383D01*
X100031132Y-131018848D01*
X100179201Y-131222649D01*
X100179205Y-131222654D01*
X100318870Y-131362319D01*
X100352355Y-131423642D01*
X100347371Y-131493334D01*
X100318870Y-131537681D01*
X100179205Y-131677345D01*
X100179201Y-131677350D01*
X100031132Y-131881151D01*
X99916760Y-132105616D01*
X99838910Y-132345214D01*
X99799500Y-132594038D01*
X99799500Y-132845961D01*
X99838910Y-133094785D01*
X99916760Y-133334383D01*
X100031132Y-133558848D01*
X100179201Y-133762649D01*
X100179205Y-133762654D01*
X100357345Y-133940794D01*
X100357350Y-133940798D01*
X100535117Y-134069952D01*
X100561155Y-134088870D01*
X100704184Y-134161747D01*
X100785616Y-134203239D01*
X100785618Y-134203239D01*
X100785621Y-134203241D01*
X100952825Y-134257569D01*
X101010500Y-134297007D01*
X101037698Y-134361366D01*
X101025783Y-134430212D01*
X100978539Y-134481688D01*
X100914506Y-134499500D01*
X76485494Y-134499500D01*
X76418455Y-134479815D01*
X76372700Y-134427011D01*
X76362756Y-134357853D01*
X76391781Y-134294297D01*
X76447175Y-134257569D01*
X76614379Y-134203241D01*
X76838845Y-134088870D01*
X77042656Y-133940793D01*
X77220793Y-133762656D01*
X77368870Y-133558845D01*
X77483241Y-133334379D01*
X77561090Y-133094785D01*
X77600500Y-132845962D01*
X77600500Y-132594038D01*
X77561090Y-132345215D01*
X77483241Y-132105621D01*
X77483239Y-132105618D01*
X77483239Y-132105616D01*
X77441747Y-132024184D01*
X77368870Y-131881155D01*
X77306179Y-131794868D01*
X77220798Y-131677350D01*
X77220794Y-131677345D01*
X77081130Y-131537681D01*
X77047645Y-131476358D01*
X77052629Y-131406666D01*
X77081130Y-131362319D01*
X77220793Y-131222656D01*
X77368870Y-131018845D01*
X77483241Y-130794379D01*
X77561090Y-130554785D01*
X77600500Y-130305962D01*
X77600500Y-130054038D01*
X77561090Y-129805215D01*
X77483241Y-129565621D01*
X77483239Y-129565618D01*
X77483239Y-129565616D01*
X77423066Y-129447521D01*
X77368870Y-129341155D01*
X77288303Y-129230264D01*
X77220798Y-129137350D01*
X77220794Y-129137345D01*
X77081130Y-128997681D01*
X77047645Y-128936358D01*
X77052629Y-128866666D01*
X77081130Y-128822319D01*
X77133715Y-128769734D01*
X77220793Y-128682656D01*
X77368870Y-128478845D01*
X77483241Y-128254379D01*
X77561090Y-128014785D01*
X77600500Y-127765962D01*
X77600500Y-127514038D01*
X77561090Y-127265215D01*
X77483241Y-127025621D01*
X77483239Y-127025618D01*
X77483239Y-127025616D01*
X77413523Y-126888792D01*
X77368870Y-126801155D01*
X77306179Y-126714868D01*
X77220798Y-126597350D01*
X77220794Y-126597345D01*
X77081130Y-126457681D01*
X77047645Y-126396358D01*
X77052629Y-126326666D01*
X77081130Y-126282319D01*
X77220793Y-126142656D01*
X77368870Y-125938845D01*
X77483241Y-125714379D01*
X77561090Y-125474785D01*
X77600500Y-125225962D01*
X77600500Y-124974038D01*
X77561090Y-124725215D01*
X77483241Y-124485621D01*
X77483239Y-124485618D01*
X77483239Y-124485616D01*
X77429006Y-124379179D01*
X77368870Y-124261155D01*
X77306179Y-124174868D01*
X77220798Y-124057350D01*
X77220794Y-124057345D01*
X77081130Y-123917681D01*
X77047645Y-123856358D01*
X77052629Y-123786666D01*
X77081130Y-123742319D01*
X77220793Y-123602656D01*
X77368870Y-123398845D01*
X77483241Y-123174379D01*
X77561090Y-122934785D01*
X77600500Y-122685962D01*
X77600500Y-122434038D01*
X77561090Y-122185215D01*
X77483241Y-121945621D01*
X77483239Y-121945618D01*
X77483239Y-121945616D01*
X77441747Y-121864184D01*
X77368870Y-121721155D01*
X77306179Y-121634868D01*
X77220798Y-121517350D01*
X77220794Y-121517345D01*
X77081130Y-121377681D01*
X77047645Y-121316358D01*
X77052629Y-121246666D01*
X77081130Y-121202319D01*
X77220793Y-121062656D01*
X77368870Y-120858845D01*
X77483241Y-120634379D01*
X77561090Y-120394785D01*
X77600500Y-120145962D01*
X77600500Y-119894038D01*
X77561090Y-119645215D01*
X77483241Y-119405621D01*
X77483239Y-119405618D01*
X77483239Y-119405616D01*
X77441747Y-119324184D01*
X77368870Y-119181155D01*
X77306179Y-119094868D01*
X77220798Y-118977350D01*
X77220794Y-118977345D01*
X77081130Y-118837681D01*
X77047645Y-118776358D01*
X77052629Y-118706666D01*
X77081130Y-118662319D01*
X77220793Y-118522656D01*
X77368870Y-118318845D01*
X77483241Y-118094379D01*
X77561090Y-117854785D01*
X77600500Y-117605962D01*
X77600500Y-117354038D01*
X77561090Y-117105215D01*
X77483241Y-116865621D01*
X77483239Y-116865618D01*
X77483239Y-116865616D01*
X77441747Y-116784184D01*
X77368870Y-116641155D01*
X77306179Y-116554868D01*
X77220798Y-116437350D01*
X77220794Y-116437345D01*
X77081130Y-116297681D01*
X77047645Y-116236358D01*
X77052629Y-116166666D01*
X77081130Y-116122319D01*
X77220793Y-115982656D01*
X77368870Y-115778845D01*
X77483241Y-115554379D01*
X77561090Y-115314785D01*
X77600500Y-115065962D01*
X77600500Y-114814038D01*
X77561090Y-114565215D01*
X77483241Y-114325621D01*
X77483239Y-114325618D01*
X77483239Y-114325616D01*
X77430339Y-114221795D01*
X77368870Y-114101155D01*
X77306179Y-114014868D01*
X77220798Y-113897350D01*
X77220794Y-113897345D01*
X77081130Y-113757681D01*
X77047645Y-113696358D01*
X77052629Y-113626666D01*
X77081130Y-113582319D01*
X77220793Y-113442656D01*
X77368870Y-113238845D01*
X77483241Y-113014379D01*
X77561090Y-112774785D01*
X77600500Y-112525962D01*
X77600500Y-112274038D01*
X77561090Y-112025215D01*
X77483241Y-111785621D01*
X77483239Y-111785618D01*
X77483239Y-111785616D01*
X77441747Y-111704184D01*
X77368870Y-111561155D01*
X77306179Y-111474868D01*
X77220798Y-111357350D01*
X77220794Y-111357345D01*
X77081130Y-111217681D01*
X77047645Y-111156358D01*
X77052629Y-111086666D01*
X77081130Y-111042319D01*
X77220793Y-110902656D01*
X77368870Y-110698845D01*
X77483241Y-110474379D01*
X77561090Y-110234785D01*
X77600500Y-109985962D01*
X77600500Y-109734038D01*
X77561090Y-109485215D01*
X77483241Y-109245621D01*
X77483239Y-109245618D01*
X77483239Y-109245616D01*
X77427292Y-109135815D01*
X77368870Y-109021155D01*
X77289138Y-108911413D01*
X77220798Y-108817350D01*
X77220794Y-108817345D01*
X77081130Y-108677681D01*
X77047645Y-108616358D01*
X77052629Y-108546666D01*
X77081130Y-108502319D01*
X77220793Y-108362656D01*
X77368870Y-108158845D01*
X77483241Y-107934379D01*
X77561090Y-107694785D01*
X77600500Y-107445962D01*
X77600500Y-107194038D01*
X77561090Y-106945215D01*
X77483241Y-106705621D01*
X77483239Y-106705618D01*
X77483239Y-106705616D01*
X77398915Y-106540122D01*
X77368870Y-106481155D01*
X77324097Y-106419530D01*
X77220798Y-106277350D01*
X77220794Y-106277345D01*
X77081130Y-106137681D01*
X77047645Y-106076358D01*
X77052629Y-106006666D01*
X77081130Y-105962319D01*
X77146783Y-105896666D01*
X77220793Y-105822656D01*
X77368870Y-105618845D01*
X77483241Y-105394379D01*
X77561090Y-105154785D01*
X77600500Y-104905962D01*
X77600500Y-104654038D01*
X77561090Y-104405215D01*
X77483241Y-104165621D01*
X77483239Y-104165618D01*
X77483239Y-104165616D01*
X77419544Y-104040609D01*
X77368870Y-103941155D01*
X77341392Y-103903334D01*
X77220798Y-103737350D01*
X77220794Y-103737345D01*
X77081130Y-103597681D01*
X77047645Y-103536358D01*
X77052629Y-103466666D01*
X77081130Y-103422319D01*
X77146783Y-103356666D01*
X77220793Y-103282656D01*
X77368870Y-103078845D01*
X77483241Y-102854379D01*
X77561090Y-102614785D01*
X77600500Y-102365962D01*
X77600500Y-102114038D01*
X77561090Y-101865215D01*
X77483241Y-101625621D01*
X77483239Y-101625618D01*
X77483239Y-101625616D01*
X77427191Y-101515616D01*
X77368870Y-101401155D01*
X77288948Y-101291151D01*
X77220798Y-101197350D01*
X77220794Y-101197345D01*
X77081130Y-101057681D01*
X77047645Y-100996358D01*
X77052629Y-100926666D01*
X77081130Y-100882319D01*
X77084935Y-100878514D01*
X77220793Y-100742656D01*
X77368870Y-100538845D01*
X77483241Y-100314379D01*
X77561090Y-100074785D01*
X77600500Y-99825962D01*
X77600500Y-99574038D01*
X77561090Y-99325215D01*
X77483241Y-99085621D01*
X77483239Y-99085618D01*
X77483239Y-99085616D01*
X77426822Y-98974893D01*
X77368870Y-98861155D01*
X77289138Y-98751413D01*
X77220798Y-98657350D01*
X77220794Y-98657345D01*
X77081130Y-98517681D01*
X77047645Y-98456358D01*
X77052629Y-98386666D01*
X77081130Y-98342319D01*
X77135960Y-98287489D01*
X77220793Y-98202656D01*
X77368870Y-97998845D01*
X77483241Y-97774379D01*
X77561090Y-97534785D01*
X77600500Y-97285962D01*
X77600500Y-97034038D01*
X77561090Y-96785215D01*
X77483241Y-96545621D01*
X77483239Y-96545618D01*
X77483239Y-96545616D01*
X77426822Y-96434893D01*
X77368870Y-96321155D01*
X77288948Y-96211151D01*
X77220798Y-96117350D01*
X77220794Y-96117345D01*
X77081130Y-95977681D01*
X77047645Y-95916358D01*
X77052629Y-95846666D01*
X77081130Y-95802319D01*
X77135960Y-95747489D01*
X77220793Y-95662656D01*
X77368870Y-95458845D01*
X77483241Y-95234379D01*
X77561090Y-94994785D01*
X77600500Y-94745962D01*
X77600500Y-94494038D01*
X77561090Y-94245215D01*
X77483241Y-94005621D01*
X77483239Y-94005618D01*
X77483239Y-94005616D01*
X77426822Y-93894893D01*
X77368870Y-93781155D01*
X77349952Y-93755117D01*
X77220798Y-93577350D01*
X77220794Y-93577345D01*
X77081130Y-93437681D01*
X77047645Y-93376358D01*
X77052629Y-93306666D01*
X77081130Y-93262319D01*
X77132329Y-93211120D01*
X77220793Y-93122656D01*
X77368870Y-92918845D01*
X77483241Y-92694379D01*
X77561090Y-92454785D01*
X77600500Y-92205962D01*
X77600500Y-91954038D01*
X77561090Y-91705215D01*
X77483241Y-91465621D01*
X77483239Y-91465618D01*
X77483239Y-91465616D01*
X77426822Y-91354893D01*
X77368870Y-91241155D01*
X77308802Y-91158478D01*
X77220798Y-91037350D01*
X77220794Y-91037345D01*
X77081130Y-90897681D01*
X77047645Y-90836358D01*
X77052629Y-90766666D01*
X77081130Y-90722319D01*
X77139594Y-90663855D01*
X77220793Y-90582656D01*
X77368870Y-90378845D01*
X77483241Y-90154379D01*
X77561090Y-89914785D01*
X77600500Y-89665962D01*
X77600500Y-89414038D01*
X77561090Y-89165215D01*
X77483241Y-88925621D01*
X77483239Y-88925618D01*
X77483239Y-88925616D01*
X77426822Y-88814893D01*
X77368870Y-88701155D01*
X77306179Y-88614868D01*
X77220798Y-88497350D01*
X77220794Y-88497345D01*
X77081130Y-88357681D01*
X77047645Y-88296358D01*
X77052629Y-88226666D01*
X77081130Y-88182319D01*
X77135960Y-88127489D01*
X77220793Y-88042656D01*
X77368870Y-87838845D01*
X77483241Y-87614379D01*
X77561090Y-87374785D01*
X77600500Y-87125962D01*
X77600500Y-86874038D01*
X77561090Y-86625215D01*
X77483241Y-86385621D01*
X77483239Y-86385618D01*
X77483239Y-86385616D01*
X77422736Y-86266873D01*
X77368870Y-86161155D01*
X77306179Y-86074868D01*
X77220798Y-85957350D01*
X77220794Y-85957345D01*
X77081130Y-85817681D01*
X77047645Y-85756358D01*
X77052629Y-85686666D01*
X77081130Y-85642319D01*
X77135960Y-85587489D01*
X77220793Y-85502656D01*
X77368870Y-85298845D01*
X77483241Y-85074379D01*
X77561090Y-84834785D01*
X77600500Y-84585962D01*
X77600500Y-84334038D01*
X77561090Y-84085215D01*
X77483241Y-83845621D01*
X77483239Y-83845618D01*
X77483239Y-83845616D01*
X77426822Y-83734893D01*
X77368870Y-83621155D01*
X77306179Y-83534868D01*
X77220798Y-83417350D01*
X77220794Y-83417345D01*
X77081130Y-83277681D01*
X77047645Y-83216358D01*
X77052629Y-83146666D01*
X77081130Y-83102319D01*
X77128302Y-83055147D01*
X77220793Y-82962656D01*
X77368870Y-82758845D01*
X77483241Y-82534379D01*
X77561090Y-82294785D01*
X77600500Y-82045962D01*
X77600500Y-81794038D01*
X77561090Y-81545215D01*
X77483241Y-81305621D01*
X77483239Y-81305618D01*
X77483239Y-81305616D01*
X77441747Y-81224184D01*
X77368870Y-81081155D01*
X77294868Y-80979300D01*
X77220798Y-80877350D01*
X77220794Y-80877345D01*
X77081130Y-80737681D01*
X77076791Y-80729735D01*
X77069544Y-80724310D01*
X77060309Y-80699550D01*
X77047645Y-80676358D01*
X77048290Y-80667328D01*
X77045127Y-80658846D01*
X77050743Y-80633025D01*
X77052629Y-80606666D01*
X77058447Y-80597612D01*
X77059979Y-80590573D01*
X77081130Y-80562319D01*
X77132492Y-80510957D01*
X77220793Y-80422656D01*
X77368870Y-80218845D01*
X77483241Y-79994379D01*
X77561090Y-79754785D01*
X77600500Y-79505962D01*
X77600500Y-79254038D01*
X77561090Y-79005215D01*
X77483241Y-78765621D01*
X77483239Y-78765618D01*
X77483239Y-78765616D01*
X77441747Y-78684184D01*
X77368870Y-78541155D01*
X77294868Y-78439300D01*
X77220798Y-78337350D01*
X77220794Y-78337345D01*
X77042654Y-78159205D01*
X77042649Y-78159201D01*
X76838848Y-78011132D01*
X76838847Y-78011131D01*
X76838845Y-78011130D01*
X76749982Y-77965852D01*
X76614383Y-77896760D01*
X76374785Y-77818910D01*
X76340407Y-77813465D01*
X76125962Y-77779500D01*
X75874038Y-77779500D01*
X75749626Y-77799205D01*
X75625214Y-77818910D01*
X75385616Y-77896760D01*
X75161151Y-78011132D01*
X74957350Y-78159201D01*
X74957345Y-78159205D01*
X74779205Y-78337345D01*
X74724818Y-78412203D01*
X74669488Y-78454868D01*
X74599874Y-78460847D01*
X74538079Y-78428241D01*
X74503722Y-78367402D01*
X74500500Y-78339317D01*
X74500500Y-65624500D01*
X74520185Y-65557461D01*
X74572989Y-65511706D01*
X74624500Y-65500500D01*
X128375500Y-65500500D01*
X128442539Y-65520185D01*
G37*
%TD.AperFunction*%
%TA.AperFunction,Conductor*%
G36*
X103996231Y-77920185D02*
G01*
X104016873Y-77936819D01*
X106835325Y-80755272D01*
X106835326Y-80755273D01*
X106835329Y-80755275D01*
X106835331Y-80755277D01*
X106941873Y-80826465D01*
X107060256Y-80875501D01*
X107060260Y-80875501D01*
X107060261Y-80875502D01*
X107185928Y-80900500D01*
X107185931Y-80900500D01*
X109089176Y-80900500D01*
X109156215Y-80920185D01*
X109199661Y-80968205D01*
X109205314Y-80979300D01*
X109257343Y-81081413D01*
X109261132Y-81088848D01*
X109409201Y-81292649D01*
X109409205Y-81292654D01*
X109548870Y-81432319D01*
X109582355Y-81493642D01*
X109577371Y-81563334D01*
X109548870Y-81607681D01*
X109409205Y-81747345D01*
X109409201Y-81747350D01*
X109261132Y-81951151D01*
X109146760Y-82175616D01*
X109068910Y-82415214D01*
X109068910Y-82415215D01*
X109029500Y-82664038D01*
X109029500Y-82915962D01*
X109054640Y-83074687D01*
X109068910Y-83164785D01*
X109146760Y-83404383D01*
X109261132Y-83628848D01*
X109409201Y-83832649D01*
X109409205Y-83832654D01*
X109587345Y-84010794D01*
X109587350Y-84010798D01*
X109791153Y-84158869D01*
X109817018Y-84172048D01*
X109848405Y-84194852D01*
X110459765Y-84806212D01*
X110417708Y-84817482D01*
X110292292Y-84889890D01*
X110189890Y-84992292D01*
X110117482Y-85117708D01*
X110106212Y-85159765D01*
X109335748Y-84389300D01*
X109335747Y-84389301D01*
X109261559Y-84491413D01*
X109147219Y-84715815D01*
X109069397Y-84955330D01*
X109030000Y-85204071D01*
X109030000Y-85455928D01*
X109069397Y-85704669D01*
X109147219Y-85944184D01*
X109261557Y-86168583D01*
X109335748Y-86270697D01*
X109335748Y-86270698D01*
X110106212Y-85500233D01*
X110117482Y-85542292D01*
X110189890Y-85667708D01*
X110292292Y-85770110D01*
X110417708Y-85842518D01*
X110459765Y-85853787D01*
X109689300Y-86624250D01*
X109791416Y-86698442D01*
X110015815Y-86812780D01*
X110255330Y-86890602D01*
X110504072Y-86930000D01*
X110755928Y-86930000D01*
X111004669Y-86890602D01*
X111244184Y-86812780D01*
X111468575Y-86698446D01*
X111468581Y-86698442D01*
X111570697Y-86624250D01*
X111570698Y-86624250D01*
X110800234Y-85853787D01*
X110842292Y-85842518D01*
X110967708Y-85770110D01*
X111070110Y-85667708D01*
X111142518Y-85542292D01*
X111153787Y-85500235D01*
X111924250Y-86270698D01*
X111924250Y-86270697D01*
X111998442Y-86168581D01*
X111998446Y-86168575D01*
X112112780Y-85944184D01*
X112190602Y-85704669D01*
X112230000Y-85455928D01*
X112230000Y-85204071D01*
X112190602Y-84955330D01*
X112112780Y-84715815D01*
X111998442Y-84491416D01*
X111924250Y-84389301D01*
X111924250Y-84389300D01*
X111153787Y-85159764D01*
X111142518Y-85117708D01*
X111070110Y-84992292D01*
X110967708Y-84889890D01*
X110842292Y-84817482D01*
X110800232Y-84806212D01*
X111411594Y-84194851D01*
X111442975Y-84172051D01*
X111468845Y-84158870D01*
X111672656Y-84010793D01*
X111850793Y-83832656D01*
X111998870Y-83628845D01*
X112113241Y-83404379D01*
X112191090Y-83164785D01*
X112230500Y-82915962D01*
X112230500Y-82664038D01*
X112191090Y-82415215D01*
X112113241Y-82175621D01*
X112113239Y-82175618D01*
X112113239Y-82175616D01*
X112054462Y-82060261D01*
X111998870Y-81951155D01*
X111914716Y-81835326D01*
X111850798Y-81747350D01*
X111850794Y-81747345D01*
X111711130Y-81607681D01*
X111677645Y-81546358D01*
X111682629Y-81476666D01*
X111711130Y-81432319D01*
X111773449Y-81370000D01*
X111850793Y-81292656D01*
X111998870Y-81088845D01*
X112054686Y-80979300D01*
X112060339Y-80968205D01*
X112108314Y-80917409D01*
X112170824Y-80900500D01*
X116179192Y-80900500D01*
X116246231Y-80920185D01*
X116266873Y-80936819D01*
X118063181Y-82733127D01*
X118096666Y-82794450D01*
X118099500Y-82820808D01*
X118099500Y-86814069D01*
X118099500Y-86814071D01*
X118099499Y-86814071D01*
X118119511Y-86914669D01*
X118124499Y-86939744D01*
X118173535Y-87058127D01*
X118228542Y-87140452D01*
X118244726Y-87164673D01*
X118244727Y-87164674D01*
X123130681Y-92050626D01*
X123164166Y-92111949D01*
X123167000Y-92138307D01*
X123167000Y-94111691D01*
X123147315Y-94178730D01*
X123130681Y-94199372D01*
X121994727Y-95335325D01*
X121994726Y-95335326D01*
X121929466Y-95432997D01*
X121929464Y-95432999D01*
X121923537Y-95441868D01*
X121923534Y-95441874D01*
X121874499Y-95560255D01*
X121874497Y-95560261D01*
X121849500Y-95685928D01*
X121849500Y-102429192D01*
X121829815Y-102496231D01*
X121813181Y-102516873D01*
X120367827Y-103962226D01*
X120306504Y-103995711D01*
X120236812Y-103990727D01*
X120180879Y-103948855D01*
X120169661Y-103930839D01*
X120118869Y-103831153D01*
X119970798Y-103627350D01*
X119970794Y-103627345D01*
X119831130Y-103487681D01*
X119797645Y-103426358D01*
X119802629Y-103356666D01*
X119831130Y-103312319D01*
X119862767Y-103280682D01*
X119970793Y-103172656D01*
X120118870Y-102968845D01*
X120233241Y-102744379D01*
X120311090Y-102504785D01*
X120350500Y-102255962D01*
X120350500Y-102004038D01*
X120311090Y-101755215D01*
X120233241Y-101515621D01*
X120233239Y-101515618D01*
X120233239Y-101515616D01*
X120174918Y-101401155D01*
X120118870Y-101291155D01*
X120050713Y-101197345D01*
X119970798Y-101087350D01*
X119970794Y-101087345D01*
X119792654Y-100909205D01*
X119792649Y-100909201D01*
X119588846Y-100761130D01*
X119562979Y-100747950D01*
X119531594Y-100725147D01*
X118920234Y-100113787D01*
X118962292Y-100102518D01*
X119087708Y-100030110D01*
X119190110Y-99927708D01*
X119262518Y-99802292D01*
X119273787Y-99760235D01*
X120044250Y-100530698D01*
X120044250Y-100530697D01*
X120118442Y-100428581D01*
X120118446Y-100428575D01*
X120232780Y-100204184D01*
X120310602Y-99964669D01*
X120350000Y-99715928D01*
X120350000Y-99464071D01*
X120310602Y-99215330D01*
X120232780Y-98975815D01*
X120118442Y-98751416D01*
X120044250Y-98649301D01*
X120044250Y-98649300D01*
X119273787Y-99419764D01*
X119262518Y-99377708D01*
X119190110Y-99252292D01*
X119087708Y-99149890D01*
X118962292Y-99077482D01*
X118920232Y-99066212D01*
X119531594Y-98454851D01*
X119562975Y-98432051D01*
X119588845Y-98418870D01*
X119792656Y-98270793D01*
X119970793Y-98092656D01*
X120118870Y-97888845D01*
X120233241Y-97664379D01*
X120311090Y-97424785D01*
X120350500Y-97175962D01*
X120350500Y-96924038D01*
X120311090Y-96675215D01*
X120233241Y-96435621D01*
X120233239Y-96435618D01*
X120233239Y-96435616D01*
X120174918Y-96321155D01*
X120118870Y-96211155D01*
X120050713Y-96117345D01*
X119970798Y-96007350D01*
X119970794Y-96007345D01*
X119792654Y-95829205D01*
X119792649Y-95829201D01*
X119588846Y-95681130D01*
X119562979Y-95667950D01*
X119531594Y-95645147D01*
X118920234Y-95033787D01*
X118962292Y-95022518D01*
X119087708Y-94950110D01*
X119190110Y-94847708D01*
X119262518Y-94722292D01*
X119273787Y-94680235D01*
X120044250Y-95450698D01*
X120044250Y-95450697D01*
X120118442Y-95348581D01*
X120118446Y-95348575D01*
X120232780Y-95124184D01*
X120310602Y-94884669D01*
X120350000Y-94635928D01*
X120350000Y-94384071D01*
X120310602Y-94135330D01*
X120232780Y-93895815D01*
X120118442Y-93671416D01*
X120044250Y-93569301D01*
X120044250Y-93569300D01*
X119273787Y-94339764D01*
X119262518Y-94297708D01*
X119190110Y-94172292D01*
X119087708Y-94069890D01*
X118962292Y-93997482D01*
X118920232Y-93986212D01*
X119690698Y-93215748D01*
X119588583Y-93141557D01*
X119364184Y-93027219D01*
X119124669Y-92949397D01*
X118875928Y-92910000D01*
X118624072Y-92910000D01*
X118375330Y-92949397D01*
X118135815Y-93027219D01*
X117911413Y-93141559D01*
X117809301Y-93215747D01*
X117809300Y-93215748D01*
X118579765Y-93986212D01*
X118537708Y-93997482D01*
X118412292Y-94069890D01*
X118309890Y-94172292D01*
X118237482Y-94297708D01*
X118226212Y-94339765D01*
X117455748Y-93569300D01*
X117455747Y-93569301D01*
X117381559Y-93671413D01*
X117267219Y-93895815D01*
X117189397Y-94135330D01*
X117150000Y-94384071D01*
X117150000Y-94635928D01*
X117189397Y-94884669D01*
X117267219Y-95124184D01*
X117381557Y-95348583D01*
X117455748Y-95450697D01*
X117455748Y-95450698D01*
X118226212Y-94680234D01*
X118237482Y-94722292D01*
X118309890Y-94847708D01*
X118412292Y-94950110D01*
X118537708Y-95022518D01*
X118579765Y-95033787D01*
X117968404Y-95645147D01*
X117937023Y-95667948D01*
X117911152Y-95681131D01*
X117707350Y-95829201D01*
X117707345Y-95829205D01*
X117529205Y-96007345D01*
X117529201Y-96007350D01*
X117381132Y-96211151D01*
X117266760Y-96435616D01*
X117188910Y-96675214D01*
X117159282Y-96862278D01*
X117149500Y-96924038D01*
X117149500Y-97175962D01*
X117188910Y-97424785D01*
X117266760Y-97664383D01*
X117345413Y-97818747D01*
X117379102Y-97884865D01*
X117381132Y-97888848D01*
X117529201Y-98092649D01*
X117529205Y-98092654D01*
X117707345Y-98270794D01*
X117707350Y-98270798D01*
X117911153Y-98418869D01*
X117937018Y-98432048D01*
X117968405Y-98454852D01*
X118579765Y-99066212D01*
X118537708Y-99077482D01*
X118412292Y-99149890D01*
X118309890Y-99252292D01*
X118237482Y-99377708D01*
X118226212Y-99419765D01*
X117455748Y-98649300D01*
X117455747Y-98649301D01*
X117381559Y-98751413D01*
X117267219Y-98975815D01*
X117189397Y-99215330D01*
X117150000Y-99464071D01*
X117150000Y-99715928D01*
X117189397Y-99964669D01*
X117267219Y-100204184D01*
X117381557Y-100428583D01*
X117455748Y-100530697D01*
X117455748Y-100530698D01*
X118226212Y-99760234D01*
X118237482Y-99802292D01*
X118309890Y-99927708D01*
X118412292Y-100030110D01*
X118537708Y-100102518D01*
X118579765Y-100113787D01*
X117968404Y-100725147D01*
X117937023Y-100747948D01*
X117911152Y-100761131D01*
X117707350Y-100909201D01*
X117707345Y-100909205D01*
X117529205Y-101087345D01*
X117529201Y-101087350D01*
X117381132Y-101291151D01*
X117266760Y-101515616D01*
X117188910Y-101755214D01*
X117149500Y-102004038D01*
X117149500Y-102255962D01*
X117176937Y-102429192D01*
X117188910Y-102504785D01*
X117266760Y-102744383D01*
X117326581Y-102861786D01*
X117378146Y-102962989D01*
X117381132Y-102968848D01*
X117529201Y-103172649D01*
X117529205Y-103172654D01*
X117668870Y-103312319D01*
X117702355Y-103373642D01*
X117697371Y-103443334D01*
X117668870Y-103487681D01*
X117529205Y-103627345D01*
X117529201Y-103627350D01*
X117381132Y-103831151D01*
X117319661Y-103951795D01*
X117271686Y-104002591D01*
X117209176Y-104019500D01*
X112765929Y-104019500D01*
X112640261Y-104044497D01*
X112640251Y-104044500D01*
X112591220Y-104064810D01*
X112521881Y-104093530D01*
X112521863Y-104093540D01*
X112415332Y-104164721D01*
X112415325Y-104164727D01*
X104169726Y-112410326D01*
X104107495Y-112503464D01*
X104098533Y-112516876D01*
X104049499Y-112635255D01*
X104049497Y-112635261D01*
X104024500Y-112760928D01*
X104024500Y-114133481D01*
X104015855Y-114162921D01*
X104009332Y-114192908D01*
X104005577Y-114197923D01*
X104004815Y-114200520D01*
X103988181Y-114221162D01*
X103956162Y-114253181D01*
X103894839Y-114286666D01*
X103868481Y-114289500D01*
X102940824Y-114289500D01*
X102873785Y-114269815D01*
X102830339Y-114221795D01*
X102800341Y-114162921D01*
X102768870Y-114101155D01*
X102706179Y-114014868D01*
X102620798Y-113897350D01*
X102620794Y-113897345D01*
X102481130Y-113757681D01*
X102447645Y-113696358D01*
X102452629Y-113626666D01*
X102481130Y-113582319D01*
X102620793Y-113442656D01*
X102768870Y-113238845D01*
X102883241Y-113014379D01*
X102961090Y-112774785D01*
X103000500Y-112525962D01*
X103000500Y-112274038D01*
X102961090Y-112025215D01*
X102883241Y-111785621D01*
X102883239Y-111785618D01*
X102883239Y-111785616D01*
X102841747Y-111704184D01*
X102768870Y-111561155D01*
X102706179Y-111474868D01*
X102620798Y-111357350D01*
X102620794Y-111357345D01*
X102481130Y-111217681D01*
X102447645Y-111156358D01*
X102452629Y-111086666D01*
X102481130Y-111042319D01*
X102620793Y-110902656D01*
X102768870Y-110698845D01*
X102883241Y-110474379D01*
X102961090Y-110234785D01*
X103000500Y-109985962D01*
X103000500Y-109734038D01*
X102961090Y-109485215D01*
X102883241Y-109245621D01*
X102883239Y-109245618D01*
X102883239Y-109245616D01*
X102827292Y-109135815D01*
X102768870Y-109021155D01*
X102689138Y-108911413D01*
X102620798Y-108817350D01*
X102620794Y-108817345D01*
X102481130Y-108677681D01*
X102447645Y-108616358D01*
X102452629Y-108546666D01*
X102481130Y-108502319D01*
X102620793Y-108362656D01*
X102768870Y-108158845D01*
X102824916Y-108048848D01*
X102830339Y-108038205D01*
X102878314Y-107987409D01*
X102940824Y-107970500D01*
X103878481Y-107970500D01*
X103945520Y-107990185D01*
X103966157Y-108006814D01*
X104039815Y-108080472D01*
X104185394Y-108168478D01*
X104347804Y-108219086D01*
X104418384Y-108225500D01*
X104418387Y-108225500D01*
X104931613Y-108225500D01*
X104931616Y-108225500D01*
X105002196Y-108219086D01*
X105164606Y-108168478D01*
X105310185Y-108080472D01*
X105412673Y-107977983D01*
X105473994Y-107944499D01*
X105543685Y-107949483D01*
X105588034Y-107977984D01*
X105690122Y-108080072D01*
X105835604Y-108168019D01*
X105835603Y-108168019D01*
X105997894Y-108218590D01*
X105997893Y-108218590D01*
X106068408Y-108224998D01*
X106068426Y-108224999D01*
X106575000Y-108224999D01*
X106581581Y-108224999D01*
X106652102Y-108218591D01*
X106652107Y-108218590D01*
X106814396Y-108168018D01*
X106959877Y-108080072D01*
X107080072Y-107959877D01*
X107168019Y-107814395D01*
X107218590Y-107652106D01*
X107225000Y-107581572D01*
X107225000Y-107500000D01*
X106575000Y-107500000D01*
X106575000Y-108224999D01*
X106068426Y-108224999D01*
X106074999Y-108224998D01*
X106075000Y-108224998D01*
X106075000Y-107374000D01*
X106094685Y-107306961D01*
X106147489Y-107261206D01*
X106199000Y-107250000D01*
X106325000Y-107250000D01*
X106325000Y-107124000D01*
X106344685Y-107056961D01*
X106397489Y-107011206D01*
X106449000Y-107000000D01*
X107224999Y-107000000D01*
X107224999Y-106918417D01*
X107218591Y-106847897D01*
X107218590Y-106847892D01*
X107168018Y-106685603D01*
X107080072Y-106540122D01*
X106959877Y-106419927D01*
X106814397Y-106331981D01*
X106780409Y-106321390D01*
X106722262Y-106282652D01*
X106694289Y-106218626D01*
X106705371Y-106149641D01*
X106729615Y-106115330D01*
X107408127Y-105436819D01*
X107469450Y-105403334D01*
X107495808Y-105400500D01*
X109738939Y-105400500D01*
X109805978Y-105420185D01*
X109807783Y-105421366D01*
X109864695Y-105459394D01*
X109864697Y-105459395D01*
X109864701Y-105459397D01*
X109984081Y-105508845D01*
X110010377Y-105519737D01*
X110165027Y-105550499D01*
X110165030Y-105550500D01*
X110165032Y-105550500D01*
X110322718Y-105550500D01*
X110322719Y-105550499D01*
X110477371Y-105519737D01*
X110623053Y-105459394D01*
X110754163Y-105371789D01*
X110865663Y-105260289D01*
X110953268Y-105129179D01*
X111013611Y-104983497D01*
X111044374Y-104828842D01*
X111044374Y-104671158D01*
X111044374Y-104671155D01*
X111044373Y-104671153D01*
X111013612Y-104516510D01*
X111013611Y-104516503D01*
X111013609Y-104516498D01*
X110953271Y-104370827D01*
X110953264Y-104370814D01*
X110865663Y-104239711D01*
X110865660Y-104239707D01*
X110754166Y-104128213D01*
X110754162Y-104128210D01*
X110623059Y-104040609D01*
X110623046Y-104040602D01*
X110477375Y-103980264D01*
X110477363Y-103980261D01*
X110322719Y-103949500D01*
X110322716Y-103949500D01*
X110165032Y-103949500D01*
X110165029Y-103949500D01*
X110010384Y-103980261D01*
X110010372Y-103980264D01*
X109864701Y-104040602D01*
X109864694Y-104040606D01*
X109848108Y-104051689D01*
X109807829Y-104078602D01*
X109741153Y-104099480D01*
X109738939Y-104099500D01*
X107328269Y-104099500D01*
X107261230Y-104079815D01*
X107215475Y-104027011D01*
X107205531Y-103957853D01*
X107234556Y-103894297D01*
X107255626Y-103875707D01*
X107255581Y-103875653D01*
X107257119Y-103874390D01*
X107259379Y-103872397D01*
X107260289Y-103871789D01*
X107371789Y-103760289D01*
X107459394Y-103629179D01*
X107519737Y-103483497D01*
X107550500Y-103328842D01*
X107550500Y-103171158D01*
X107550500Y-103171155D01*
X107549903Y-103165093D01*
X107551448Y-103164940D01*
X107556995Y-103102927D01*
X107599856Y-103047748D01*
X107648196Y-103026705D01*
X107685585Y-103019267D01*
X107733497Y-103009737D01*
X107879179Y-102949394D01*
X108010289Y-102861789D01*
X108121789Y-102750289D01*
X108209394Y-102619179D01*
X108269737Y-102473497D01*
X108300500Y-102318842D01*
X108300500Y-102161158D01*
X108300500Y-102161155D01*
X108300499Y-102161153D01*
X108269738Y-102006510D01*
X108269737Y-102006503D01*
X108268716Y-102004038D01*
X108209397Y-101860827D01*
X108209390Y-101860814D01*
X108121789Y-101729711D01*
X108121786Y-101729707D01*
X108010292Y-101618213D01*
X108010288Y-101618210D01*
X107879185Y-101530609D01*
X107879172Y-101530602D01*
X107733501Y-101470264D01*
X107733489Y-101470261D01*
X107578845Y-101439500D01*
X107578842Y-101439500D01*
X107421158Y-101439500D01*
X107421155Y-101439500D01*
X107266510Y-101470261D01*
X107266498Y-101470264D01*
X107120827Y-101530602D01*
X107120820Y-101530606D01*
X107091928Y-101549911D01*
X107063955Y-101568602D01*
X106997279Y-101589480D01*
X106995065Y-101589500D01*
X102940824Y-101589500D01*
X102873785Y-101569815D01*
X102830339Y-101521795D01*
X102819093Y-101499724D01*
X102768870Y-101401155D01*
X102688948Y-101291151D01*
X102620798Y-101197350D01*
X102620794Y-101197345D01*
X102481130Y-101057681D01*
X102447645Y-100996358D01*
X102452629Y-100926666D01*
X102481130Y-100882319D01*
X102484935Y-100878514D01*
X102620793Y-100742656D01*
X102768870Y-100538845D01*
X102883241Y-100314379D01*
X102961090Y-100074785D01*
X103000500Y-99825962D01*
X103000500Y-99574038D01*
X102961090Y-99325215D01*
X102883241Y-99085621D01*
X102883239Y-99085618D01*
X102883239Y-99085616D01*
X102826822Y-98974893D01*
X102768870Y-98861155D01*
X102689138Y-98751413D01*
X102620798Y-98657350D01*
X102620794Y-98657345D01*
X102481130Y-98517681D01*
X102447645Y-98456358D01*
X102452629Y-98386666D01*
X102481130Y-98342319D01*
X102535960Y-98287489D01*
X102620793Y-98202656D01*
X102768870Y-97998845D01*
X102883241Y-97774379D01*
X102961090Y-97534785D01*
X103000500Y-97285962D01*
X103000500Y-97034038D01*
X102961090Y-96785215D01*
X102883241Y-96545621D01*
X102883239Y-96545618D01*
X102883239Y-96545616D01*
X102826822Y-96434893D01*
X102768870Y-96321155D01*
X102688948Y-96211151D01*
X102620798Y-96117350D01*
X102620794Y-96117345D01*
X102481130Y-95977681D01*
X102447645Y-95916358D01*
X102452629Y-95846666D01*
X102481130Y-95802319D01*
X102535960Y-95747489D01*
X102620793Y-95662656D01*
X102768870Y-95458845D01*
X102883241Y-95234379D01*
X102961090Y-94994785D01*
X103000500Y-94745962D01*
X103000500Y-94494038D01*
X102961090Y-94245215D01*
X102883241Y-94005621D01*
X102883239Y-94005618D01*
X102883239Y-94005616D01*
X102826822Y-93894893D01*
X102768870Y-93781155D01*
X102749952Y-93755117D01*
X102620798Y-93577350D01*
X102620794Y-93577345D01*
X102481130Y-93437681D01*
X102476791Y-93429735D01*
X102469544Y-93424310D01*
X102460309Y-93399550D01*
X102447645Y-93376358D01*
X102448290Y-93367328D01*
X102445127Y-93358846D01*
X102450743Y-93333025D01*
X102452629Y-93306666D01*
X102458447Y-93297612D01*
X102459979Y-93290573D01*
X102481130Y-93262319D01*
X102568122Y-93175327D01*
X102583497Y-93159952D01*
X102620793Y-93122656D01*
X102768870Y-92918845D01*
X102883241Y-92694379D01*
X102961090Y-92454785D01*
X103000500Y-92205962D01*
X103000500Y-91954038D01*
X102961090Y-91705215D01*
X102883241Y-91465621D01*
X102883239Y-91465618D01*
X102883239Y-91465616D01*
X102826822Y-91354893D01*
X102768870Y-91241155D01*
X102708802Y-91158478D01*
X102620798Y-91037350D01*
X102620794Y-91037345D01*
X102481130Y-90897681D01*
X102447645Y-90836358D01*
X102452629Y-90766666D01*
X102481130Y-90722319D01*
X102539594Y-90663855D01*
X102620793Y-90582656D01*
X102768870Y-90378845D01*
X102883241Y-90154379D01*
X102961090Y-89914785D01*
X103000500Y-89665962D01*
X103000500Y-89414038D01*
X102961090Y-89165215D01*
X102883241Y-88925621D01*
X102883239Y-88925618D01*
X102883239Y-88925616D01*
X102826822Y-88814893D01*
X102768870Y-88701155D01*
X102706179Y-88614868D01*
X102620798Y-88497350D01*
X102620794Y-88497345D01*
X102481130Y-88357681D01*
X102447645Y-88296358D01*
X102452629Y-88226666D01*
X102481130Y-88182319D01*
X102535960Y-88127489D01*
X102620793Y-88042656D01*
X102768870Y-87838845D01*
X102883241Y-87614379D01*
X102961090Y-87374785D01*
X103000500Y-87125962D01*
X103000500Y-86874038D01*
X102961090Y-86625215D01*
X102961089Y-86625211D01*
X102961089Y-86625210D01*
X102957872Y-86615309D01*
X102883239Y-86385616D01*
X102822736Y-86266873D01*
X102768870Y-86161155D01*
X102706179Y-86074868D01*
X102620798Y-85957350D01*
X102620794Y-85957345D01*
X102481130Y-85817681D01*
X102447645Y-85756358D01*
X102452629Y-85686666D01*
X102481130Y-85642319D01*
X102535960Y-85587489D01*
X102620793Y-85502656D01*
X102768870Y-85298845D01*
X102883241Y-85074379D01*
X102961090Y-84834785D01*
X103000500Y-84585962D01*
X103000500Y-84334038D01*
X102961090Y-84085215D01*
X102883241Y-83845621D01*
X102883239Y-83845618D01*
X102883239Y-83845616D01*
X102826822Y-83734893D01*
X102768870Y-83621155D01*
X102706179Y-83534868D01*
X102620798Y-83417350D01*
X102620794Y-83417345D01*
X102442654Y-83239205D01*
X102442649Y-83239201D01*
X102238846Y-83091130D01*
X102212979Y-83077950D01*
X102181594Y-83055147D01*
X101570234Y-82443787D01*
X101612292Y-82432518D01*
X101737708Y-82360110D01*
X101840110Y-82257708D01*
X101912518Y-82132292D01*
X101923787Y-82090235D01*
X102694250Y-82860698D01*
X102694250Y-82860697D01*
X102768442Y-82758581D01*
X102768446Y-82758575D01*
X102882780Y-82534184D01*
X102960602Y-82294669D01*
X103000000Y-82045928D01*
X103000000Y-81794071D01*
X102960602Y-81545330D01*
X102882780Y-81305815D01*
X102768442Y-81081416D01*
X102694250Y-80979301D01*
X102694250Y-80979300D01*
X101923787Y-81749764D01*
X101912518Y-81707708D01*
X101840110Y-81582292D01*
X101737708Y-81479890D01*
X101612292Y-81407482D01*
X101570233Y-81396212D01*
X102316446Y-80650000D01*
X102316446Y-80649999D01*
X101570235Y-79903787D01*
X101612292Y-79892518D01*
X101737708Y-79820110D01*
X101840110Y-79717708D01*
X101912518Y-79592292D01*
X101923787Y-79550235D01*
X102694250Y-80320698D01*
X102694250Y-80320697D01*
X102768442Y-80218581D01*
X102768446Y-80218575D01*
X102882780Y-79994184D01*
X102960602Y-79754669D01*
X103000000Y-79505928D01*
X103000000Y-79254071D01*
X102960602Y-79005330D01*
X102882780Y-78765815D01*
X102768442Y-78541416D01*
X102694250Y-78439301D01*
X102694250Y-78439300D01*
X101923787Y-79209764D01*
X101912518Y-79167708D01*
X101840110Y-79042292D01*
X101737708Y-78939890D01*
X101612292Y-78867482D01*
X101570232Y-78856212D01*
X102340697Y-78085749D01*
X102336643Y-78034229D01*
X102351007Y-77965852D01*
X102400058Y-77916095D01*
X102460261Y-77900500D01*
X103929192Y-77900500D01*
X103996231Y-77920185D01*
G37*
%TD.AperFunction*%
%TD*%
M02*
